<?xml version="1.0" standalone="no"?>
<!DOCTYPE svg PUBLIC "-//W3C//DTD SVG 1.1//EN" "http://www.w3.org/Graphics/SVG/1.1/DTD/svg11.dtd" >
<svg xmlns="http://www.w3.org/2000/svg" xmlns:xlink="http://www.w3.org/1999/xlink" version="1.1">
<metadata>
Created by FontForge 20161003 at Tue May 29 13:24:22 2018
 By www-data
2009 Mitja Miklavcic published by FSI FontShop International GmbH
</metadata>
<defs>
<font id="Ystjspqcfcszzzihczqjvhvwycx" horiz-adv-x="570" >
  <font-face 
    font-family="Ystjspqcfcszzzihczqjvhvwycx"
    font-weight="400"
    font-stretch="normal"
    units-per-em="1000"
    panose-1="2 1 5 4 3 1 1 1 1 2"
    ascent="747"
    descent="-253"
    x-height="468"
    cap-height="686"
    bbox="-378 -258 1219 1041"
    underline-thickness="40"
    underline-position="-200"
    unicode-range="U+0020-FEFF"
  />
<missing-glyph horiz-adv-x="736" 
d="M362 176q-17 0 -27.5 -10.5t-10.5 -26.5q0 -39 38 -39q16 0 26.5 10t10.5 29q0 17 -10.5 27t-26.5 10zM102 723h532v-723h-532v723zM283 571q14 8 36 13t42 5q22 0 38.5 -6.5t26.5 -16.5t15 -23t5 -26q0 -29 -20.5 -52.5t-45.5 -46t-45.5 -46.5t-20.5 -54
q0 -20 7.5 -37.5t19.5 -31.5q10 2 21.5 6.5t18.5 11.5q-10 11 -15 24t-5 31q0 22 21.5 42.5t48 44t48 50.5t21.5 63q0 47 -32.5 74t-94.5 27q-17 0 -36 -2t-37.5 -6t-34.5 -8.5t-27 -10.5q0 -29 2 -56.5t6 -50.5q8 0 19.5 2t17.5 5v75z" />
    <glyph glyph-name=".notdef" horiz-adv-x="736" 
d="M362 176q-17 0 -27.5 -10.5t-10.5 -26.5q0 -39 38 -39q16 0 26.5 10t10.5 29q0 17 -10.5 27t-26.5 10zM102 723h532v-723h-532v723zM283 571q14 8 36 13t42 5q22 0 38.5 -6.5t26.5 -16.5t15 -23t5 -26q0 -29 -20.5 -52.5t-45.5 -46t-45.5 -46.5t-20.5 -54
q0 -20 7.5 -37.5t19.5 -31.5q10 2 21.5 6.5t18.5 11.5q-10 11 -15 24t-5 31q0 22 21.5 42.5t48 44t48 50.5t21.5 63q0 47 -32.5 74t-94.5 27q-17 0 -36 -2t-37.5 -6t-34.5 -8.5t-27 -10.5q0 -29 2 -56.5t6 -50.5q8 0 19.5 2t17.5 5v75z" />
    <glyph glyph-name=".null" horiz-adv-x="0" 
 />
    <glyph glyph-name="nonmarkingreturn" horiz-adv-x="195" 
 />
    <glyph glyph-name="space" unicode=" " horiz-adv-x="195" 
 />
    <glyph glyph-name="exclam" unicode="!" horiz-adv-x="297" 
d="M172 196q-8 -3 -22 -3q-6 0 -12 0.5t-10 2.5l-19 486q8 3 23 5t28 2h10q6 0 11 -1zM149 80q20 0 33 -11.5t13 -33.5q0 -24 -12.5 -36t-33.5 -12q-47 0 -47 47q0 21 13 33.5t34 12.5z" />
    <glyph glyph-name="quotedbl" unicode="&#x22;" 
d="M317 464q-9 0 -21.5 1.5t-20.5 3.5q5 45 6.5 99t1.5 96q13 0 29.5 -1.5t28.5 -4.5q0 -19 -2 -44t-5.5 -51.5t-8 -52.5t-8.5 -46zM151 464q-9 0 -21.5 1.5t-20.5 3.5q5 45 6.5 99t1.5 96q13 0 29.5 -1.5t28.5 -4.5q0 -19 -2 -44t-5.5 -51.5t-8 -52.5t-8.5 -46z" />
    <glyph glyph-name="numbersign" unicode="#" 
d="M390 212l-34 -211q-8 -2 -27 -2q-7 0 -14.5 0.5t-9.5 1.5l34 211h-153l-33 -211q-8 -2 -27 -2q-7 0 -14.5 0.5t-9.5 1.5l35 211h-104q0 8 2 18.5t5 18.5h104l31 188h-107q0 8 2 18.5t5 18.5h106l33 190q20 5 47 5l-32 -195h155l32 190q20 5 47 5l-32 -195h106q2 -6 2 -16
q0 -9 -1 -14t-2 -7h-110l-30 -188h106q2 -8 1 -19t-3 -18h-110zM193 249h153l31 188h-155z" />
    <glyph glyph-name="dollar" unicode="$" 
d="M407 616q-19 10 -45 16.5t-54 6.5q-68 0 -104 -32.5t-36 -84.5q0 -45 23.5 -72.5t58.5 -47.5t76 -37.5t76 -41.5t58.5 -59.5t23.5 -91.5q0 -49 -15.5 -83.5t-41.5 -57t-60.5 -34.5t-72.5 -15v-102q-6 -2 -23 -2q-7 0 -14 0.5t-9 1.5v100q-47 2 -90.5 11.5t-72.5 23.5
q0 36 2 76.5t7 72.5q10 0 23.5 -1.5t23.5 -4.5v-105q25 -14 59.5 -21.5t66.5 -7.5q81 0 118.5 37t37.5 102q0 47 -23.5 75.5t-59 48.5t-76.5 36.5t-76.5 40t-59 58.5t-23.5 92q0 72 44.5 116t129.5 50v81q11 2 22.5 3t23.5 1v-84q32 -2 68 -10t68 -22q0 -32 -2 -64t-7 -65
q-10 0 -23.5 3t-21.5 7v86z" />
    <glyph glyph-name="percent" unicode="%" horiz-adv-x="900" 
d="M226 678q68 0 109 -43t41 -125q0 -88 -40.5 -133t-109.5 -45q-72 0 -111 45t-39 133q0 78 41.5 123t108.5 45zM130 510q0 -67 24.5 -105t71.5 -38t71 38.5t24 104.5q0 60 -25 97t-70 37q-47 0 -71.5 -36t-24.5 -98zM236 -22q-10 2 -21.5 8.5t-16.5 12.5l470 689
q10 -1 22 -4t20 -8zM673 329q68 0 109 -43t41 -125q0 -88 -40.5 -133t-109.5 -45q-72 0 -111 45t-39 133q0 78 41.5 123t108.5 45zM577 161q0 -67 24.5 -105t71.5 -38t71 38.5t24 104.5q0 60 -25 97t-70 37q-47 0 -71.5 -36t-24.5 -98z" />
    <glyph glyph-name="ampersand" unicode="&#x26;" horiz-adv-x="820" 
d="M660 355q-7 -52 -26 -108t-48 -104q25 -25 45.5 -49.5t38.5 -47.5q20 -1 43.5 -3t44.5 -6q2 -5 4.5 -17t2.5 -20h-133q-21 28 -41.5 53t-42.5 48q-42 -53 -100.5 -87t-145.5 -34q-42 0 -83 9.5t-73.5 31t-52 56.5t-19.5 86q0 39 12 72t32.5 58.5t47.5 43.5t58 27v4
q-46 26 -72.5 62t-26.5 92q0 43 16 73.5t41 49.5t56 27.5t61 8.5q28 0 57 -7.5t52.5 -24.5t38.5 -44.5t15 -66.5q0 -32 -10.5 -60t-28 -50.5t-41.5 -38.5t-51 -25v-4q23 -14 51.5 -35.5t58 -46t58 -51t52.5 -50.5q20 40 33.5 86.5t18.5 91.5q-17 1 -37.5 3.5t-32.5 4.5
q-2 8 -3.5 18t-2.5 19h224q0 -8 -2.5 -19.5t-5.5 -19.5q-17 -2 -39.5 -3.5t-43.5 -2.5zM516 135q-69 71 -133.5 121.5t-121.5 85.5q-55 -20 -89.5 -61t-34.5 -107q0 -42 14 -70.5t37.5 -46t54.5 -25t65 -7.5q72 0 122 29.5t86 80.5zM291 387q58 22 85 60.5t27 86.5
q0 30 -9.5 50.5t-25 33t-34.5 18t-38 5.5q-16 0 -35.5 -4.5t-36 -16.5t-28 -33t-11.5 -54q0 -53 29 -85.5t77 -60.5z" />
    <glyph glyph-name="quotesingle" unicode="'" horiz-adv-x="350" 
d="M142 464q-9 0 -21.5 1.5t-20.5 3.5q5 45 6.5 99t1.5 96q13 0 29.5 -1.5t28.5 -4.5q0 -19 -2 -44t-5.5 -51.5t-8 -52.5t-8.5 -46z" />
    <glyph glyph-name="parenleft" unicode="(" horiz-adv-x="304" 
d="M240 -191q-8 -6 -19.5 -11t-22.5 -7q-29 63 -49 127t-32.5 127t-18 122.5t-5.5 113.5q0 49 4.5 104.5t15.5 114t29 119t44 119.5q10 5 25 7.5t27 2.5q-42 -97 -64.5 -218.5t-22.5 -247.5t23 -247t66 -226z" />
    <glyph glyph-name="parenright" unicode=")" horiz-adv-x="304" 
d="M77 -191q44 106 66.5 226t22.5 246q0 125 -21.5 242.5t-59.5 213.5q7 5 19 9.5t23 5.5q27 -59 45.5 -120.5t30 -122t16.5 -117.5t5 -107q0 -109 -23 -237t-82 -256q-25 5 -42 17z" />
    <glyph glyph-name="asterisk" unicode="*" horiz-adv-x="407" 
d="M239 518q-8 5 -14.5 11t-11.5 11l-3 -3q2 -5 5 -14t3 -17l4 -107q-5 -2 -11.5 -2.5t-11.5 -0.5t-11 0.5t-11 2.5l4 107q0 8 2.5 17t4.5 14l-3 2q-5 -5 -11.5 -10.5t-13.5 -10.5l-91 -58q-6 7 -12 18t-9 20l94 49q7 4 15 6.5t16 4.5v4q-18 3 -30 10l-92 48q2 8 6.5 20.5
t9.5 20.5l94 -57q14 -8 24 -21l3 2q-7 16 -7 31l-3 104q8 2 21 3.5t22 1.5l-3 -109q0 -15 -8 -31l4 -2q5 6 11 11.5t13 9.5l88 55q6 -5 14 -15.5t13 -18.5l-97 -53q-5 -3 -13 -5.5t-16 -4.5v-4q13 -1 30 -10l95 -50q-2 -8 -9.5 -20t-13.5 -18z" />
    <glyph glyph-name="plus" unicode="+" 
d="M518 287q2 -5 2.5 -13t0.5 -15v-8q0 -4 -1 -9h-208v-217q-3 -1 -10 -2t-16 -1q-8 0 -16.5 1t-11.5 2v217h-209q0 9 2 23t4 22h203v211q13 3 26.5 4t27.5 1v-216h206z" />
    <glyph glyph-name="comma" unicode="," horiz-adv-x="350" 
d="M71 23q3 10 8.5 22t12.5 20q15 3 33 3q29 0 51 -10q-5 -23 -14 -50.5t-19.5 -54.5t-22 -50.5t-20.5 -38.5q-9 2 -18.5 7t-16.5 10q6 15 12.5 33t12.5 36.5t10.5 35.5t6.5 29z" />
    <glyph glyph-name="hyphen" unicode="-" horiz-adv-x="333" 
d="M273 293q2 -5 2.5 -14t0.5 -17v-8q0 -5 -1 -10h-224q0 10 2 25.5t5 23.5h215z" />
    <glyph glyph-name="period" unicode="." horiz-adv-x="350" 
d="M136 80q20 0 33 -11.5t13 -33.5q0 -24 -12.5 -36t-33.5 -12q-47 0 -47 47q0 21 13 33.5t34 12.5z" />
    <glyph glyph-name="slash" unicode="/" horiz-adv-x="414" 
d="M102 -168q-11 2 -25 6.5t-20 9.5l337 887q11 0 24.5 -1.5t24.5 -4.5z" />
    <glyph glyph-name="zero" unicode="0" 
d="M286 681q52 0 94 -21.5t72 -64.5t46 -106.5t16 -147.5q0 -178 -61 -269.5t-167 -91.5q-112 0 -171 89t-59 272q0 81 16 144t46 106.5t72.5 66.5t95.5 23zM120 342q0 -150 42.5 -233.5t123.5 -83.5t122.5 84t41.5 233q0 67 -11.5 121.5t-32.5 93.5t-51.5 60t-68.5 21
q-41 0 -72 -20.5t-52 -59t-31.5 -93.5t-10.5 -123z" />
    <glyph glyph-name="one" unicode="1" 
d="M269 617l-163 -23q1 10 4 22t7 20q17 5 42 10.5t53.5 11t59 10.5t57.5 8v-629q36 -1 78 -3.5t74 -5.5q4 -10 4 -26q0 -8 -1 -12h-369q1 19 8 37q13 2 31 4t38 3l40 3q20 2 37 2v568z" />
    <glyph glyph-name="two" unicode="2" 
d="M75 58q24 27 57 60.5t69.5 70.5t72 76.5t63.5 81t45.5 83t17.5 82.5q0 63 -36.5 93t-97.5 30q-36 0 -69 -9t-60 -21v-102q-8 -4 -21 -6.5t-24 -2.5q-5 31 -7.5 71t-2.5 73q32 17 82 30t107 13q42 0 77.5 -9t61.5 -28t41 -49t15 -71q0 -46 -18 -92t-47 -90t-65.5 -85
t-73 -77t-69.5 -66.5t-55 -53.5v-6h291q1 23 3.5 51.5t5.5 48.5q8 3 22.5 5t22.5 2v-161h-408v58z" />
    <glyph glyph-name="three" unicode="3" 
d="M146 524q-8 -5 -21 -7t-23 -2q-5 29 -7.5 66.5t-2.5 68.5q16 7 38 13t46.5 10t49.5 6t47 2q39 0 74 -9t61 -28t41 -49.5t15 -72.5q0 -72 -41.5 -116.5t-111.5 -56.5v-4q33 -4 64 -15.5t55 -32t38.5 -51t14.5 -72.5q0 -52 -20.5 -89t-54.5 -60t-79 -34t-94 -11
q-45 0 -84.5 6.5t-65.5 16.5q-14 26 -14 62q15 -7 34.5 -13.5t42.5 -11.5t47.5 -8t48.5 -3q33 0 64.5 7.5t56 24t39 43t14.5 65.5q0 79 -60.5 115t-194.5 36q-2 6 -2 18q0 5 1 12.5t4 13.5q48 1 91 8.5t74.5 25.5t50 47t18.5 72q0 34 -11.5 57t-30.5 37t-43.5 20t-49.5 6
q-29 0 -62.5 -6t-56.5 -16v-91z" />
    <glyph glyph-name="four" unicode="4" 
d="M55 242l288 424h67v-427h90q2 -5 3 -13.5t1 -16.5v-8q0 -4 -1 -8h-93v-150q25 -1 46.5 -2.5t42.5 -5.5q2 -6 3 -16.5t-1 -18.5h-242q1 18 8 34q16 4 41 6.5t45 3.5v149h-298v49zM354 514q0 22 1 46.5t3 41.5h-6l-242 -360v-6q19 2 40 2.5t39 0.5h165v275z" />
    <glyph glyph-name="five" unicode="5" 
d="M161 381q23 7 51 10t53 3q46 0 85.5 -12.5t68 -37.5t44.5 -62.5t16 -87.5q0 -57 -20 -97.5t-54 -66.5t-78.5 -38t-93.5 -12q-45 0 -81.5 7t-62.5 17q-8 12 -11 29t-3 35q30 -18 72 -29.5t90 -11.5q36 0 68.5 9t56.5 29t38.5 51.5t14.5 76.5q0 42 -13 72t-36 48.5
t-56 27.5t-73 9q-30 0 -63 -4t-66 -13l25 328h352q0 -14 -2 -29t-4 -28h-299z" />
    <glyph glyph-name="six" unicode="6" 
d="M138 324q20 33 62.5 57.5t108.5 24.5q49 0 87 -14.5t63 -41t38 -63.5t13 -83q0 -52 -15 -93.5t-43 -70.5t-67.5 -44.5t-87.5 -15.5q-116 0 -171 76.5t-55 221.5q0 97 21.5 172t59.5 126.5t91 78t115 26.5q32 0 65.5 -8t56.5 -24q5 -11 8 -31t1 -33q-26 23 -62 36t-75 13
q-46 0 -83.5 -21.5t-65.5 -61.5t-45.5 -97.5t-23.5 -129.5h4zM134 265q0 -118 43 -180.5t124 -62.5q34 0 61.5 13.5t47 37.5t29.5 56.5t10 71.5q0 75 -40 117.5t-113 42.5q-55 0 -92.5 -23.5t-69.5 -61.5v-11z" />
    <glyph glyph-name="seven" unicode="7" 
d="M515 605q-86 -154 -153 -308.5t-107 -294.5q-5 -2 -13 -3t-22 -1q-12 0 -21 1t-14 3q21 66 51.5 142t66.5 154.5t76 155.5t81 146v5h-309q-1 -23 -3.5 -50.5t-6.5 -46.5q-9 -2 -22 -3.5t-23 -1.5v158h419v-56z" />
    <glyph glyph-name="eight" unicode="8" 
d="M66 157q0 36 12 67t33 56t49 43t60 27v4q-24 10 -47 24.5t-40.5 33.5t-28 44.5t-10.5 58.5q0 45 17.5 76.5t46 51.5t64.5 29t73 9q36 0 70.5 -8.5t61.5 -27.5t43 -48.5t16 -71.5q0 -32 -10 -59.5t-27.5 -50t-40 -39t-47.5 -24.5v-4q27 -12 53 -27t45.5 -36t31.5 -49
t12 -65q0 -47 -18 -83t-48 -60t-70 -36t-84 -12q-40 0 -79 9t-69.5 30t-49.5 54.5t-19 83.5zM442 165q0 36 -15 62t-40 45t-56.5 33.5t-64.5 27.5q-64 -20 -102 -62.5t-38 -105.5q0 -38 13 -65.5t35 -45t50.5 -25.5t59.5 -8q29 0 57.5 7.5t51 25t36 45t13.5 66.5zM153 522
q0 -31 13 -54t35.5 -40.5t51 -31t60.5 -26.5q57 21 86 61.5t29 89.5q0 34 -12 57.5t-31 37.5t-43 20.5t-48 6.5q-23 0 -48 -5.5t-45.5 -19.5t-34 -37t-13.5 -59z" />
    <glyph glyph-name="nine" unicode="9" 
d="M438 344q-23 -33 -63.5 -56.5t-104.5 -23.5q-49 0 -86.5 14.5t-63 41t-38.5 63.5t-13 81q0 50 15 90.5t43 68.5t67 43t87 15q115 0 169.5 -77.5t54.5 -224.5q0 -98 -19.5 -173t-55.5 -125t-87.5 -75.5t-114.5 -25.5q-38 0 -76.5 7.5t-67.5 24.5q-7 11 -10.5 32t-1.5 34
q29 -20 72.5 -34t83.5 -14q96 0 151 79.5t63 234.5h-4zM442 390q0 123 -41.5 186.5t-122.5 63.5q-35 0 -62.5 -13t-46 -36t-28.5 -54.5t-10 -68.5q0 -72 40 -115.5t115 -43.5q51 0 87.5 21.5t68.5 59.5z" />
    <glyph glyph-name="colon" unicode=":" horiz-adv-x="350" 
d="M139 100q20 0 33 -11.5t13 -33.5q0 -24 -12.5 -36t-33.5 -12q-47 0 -47 47q0 21 13 33.5t34 12.5zM139 458q20 0 32.5 -11.5t12.5 -32.5q0 -23 -12.5 -35t-32.5 -12q-46 0 -46 46q0 20 13 32.5t33 12.5z" />
    <glyph glyph-name="semicolon" unicode=";" horiz-adv-x="350" 
d="M74 23q3 10 8.5 22t12.5 20q15 3 33 3q29 0 51 -10q-5 -23 -14 -50.5t-19.5 -54.5t-22 -50.5t-20.5 -38.5q-9 2 -18.5 7t-16.5 10q6 15 12.5 33t12.5 36.5t10.5 35.5t6.5 29zM132 458q20 0 32.5 -11.5t12.5 -32.5q0 -23 -12.5 -35t-32.5 -12q-46 0 -46 46q0 20 13 32.5
t33 12.5z" />
    <glyph glyph-name="less" unicode="&#x3c;" 
d="M158 266v-5l295 -207q-2 -9 -13 -21t-19 -17l-320 226l3 45l309 220q11 -6 22.5 -14.5t19.5 -17.5z" />
    <glyph glyph-name="equal" unicode="=" 
d="M71 327q0 9 2 23t4 22h420q2 -5 2.5 -13t0.5 -15v-8q0 -4 -1 -9h-428zM71 151q0 9 2 23t4 22h420q2 -5 2.5 -13t0.5 -15v-8q0 -4 -1 -9h-428z" />
    <glyph glyph-name="greater" unicode="&#x3e;" 
d="M150 14q-9 4 -18.5 16.5t-12.5 22.5l294 208v5l-299 209q8 8 20.5 17t23.5 14l309 -219l3 -44z" />
    <glyph glyph-name="question" unicode="?" horiz-adv-x="445" 
d="M115 520q-9 -4 -21.5 -6.5t-23.5 -2.5q-5 35 -8 74t-3 81q15 7 37 14t46.5 12t50.5 8t50 3q85 0 129.5 -37t44.5 -100q0 -33 -14.5 -60.5t-36 -51.5t-47 -45t-47 -41.5t-36 -41.5t-14.5 -43q0 -28 8 -46t22 -35q-9 -7 -22.5 -12.5t-27.5 -7.5q-17 20 -27.5 43.5
t-10.5 52.5q0 26 14 50t34.5 46t44.5 43.5t44.5 44t34.5 46.5t14 51q0 19 -7 37.5t-22 33t-38 23t-55 8.5q-30 0 -61.5 -7.5t-51.5 -18.5v-115zM228 80q20 0 33 -11.5t13 -33.5q0 -24 -12.5 -36t-33.5 -12q-47 0 -47 47q0 21 13 33.5t34 12.5z" />
    <glyph glyph-name="at" unicode="@" horiz-adv-x="1030" 
d="M660 99q1 -11 3 -22t6 -21q62 5 109.5 32.5t79 68.5t47.5 91.5t16 102.5q0 78 -31.5 137t-83 98t-117.5 58.5t-135 19.5q-94 0 -172.5 -34t-135.5 -94.5t-88.5 -142.5t-31.5 -178q0 -88 27 -161t78 -125t124.5 -80.5t166.5 -28.5q35 0 71.5 4t71 12t65 19t53.5 25
q6 -5 11.5 -14t9.5 -18q-29 -17 -63.5 -30t-73 -22t-79 -14t-79.5 -5q-101 0 -181.5 31t-136.5 88t-86.5 137t-30.5 178q0 108 36.5 199t101.5 156.5t154.5 102.5t196.5 37q86 0 160.5 -24t129 -69.5t86 -110.5t31.5 -146q0 -62 -20.5 -122t-62.5 -108.5t-105.5 -80.5
t-149.5 -37q-8 16 -14.5 34.5t-8.5 36.5h-4q-15 -21 -34 -35t-39.5 -22t-40 -11t-35.5 -3q-30 0 -55.5 9.5t-44 30t-28.5 53t-10 77.5q0 56 16.5 108.5t49.5 91.5q32 38 77.5 60t105.5 22q45 0 80 -11t55 -25zM649 406q-14 8 -38 13t-47 5q-47 0 -80.5 -18.5t-56.5 -47.5
q-29 -36 -40.5 -81.5t-11.5 -90.5q0 -73 27 -103t75 -30q39 0 75.5 19.5t57.5 58.5z" />
    <glyph glyph-name="A" unicode="A" horiz-adv-x="708" 
d="M469 0q1 8 4 19t5 16q17 4 41 6.5t43 3.5q-12 22 -22.5 45.5t-18.5 46.5l-36 99h-275l-36 -101q-8 -23 -17.5 -46.5t-20.5 -44.5q22 -1 46 -3t45 -6q2 -6 4 -16.5t2 -18.5h-221q1 8 4 18.5t6 16.5q12 3 28 5t34 4l244 656h51l242 -655q32 -2 63 -8q2 -6 4.5 -17.5
t2.5 -19.5h-222zM345 636q-5 -26 -14.5 -58t-19.5 -58l-87 -244h246l-89 247q-9 25 -17 54.5t-13 58.5h-6z" />
    <glyph glyph-name="B" unicode="B" horiz-adv-x="597" 
d="M406 362q68 -16 110 -55.5t42 -112.5q0 -51 -21 -88t-56.5 -61t-82 -35.5t-96.5 -11.5q-70 0 -138 0.5t-128 3.5q1 8 3.5 18.5t4.5 16.5q15 4 39.5 6.5t44.5 3.5v598q-19 0 -39.5 0.5t-37.5 2.5q-2 7 -3 19t0 20q55 4 110.5 6t111.5 2q53 0 99 -10.5t79.5 -32t53 -54.5
t19.5 -78q0 -31 -9 -56.5t-25 -45t-36.5 -33t-44.5 -19.5v-4zM189 43q49 -3 98 -3q97 0 153 36t56 112t-54 113.5t-142 37.5h-111v-296zM189 381h106q75 0 120 32.5t45 98.5q0 37 -14.5 63.5t-41 43.5t-63 25.5t-80.5 8.5h-34q-19 0 -38 -2v-270z" />
    <glyph glyph-name="C" unicode="C" horiz-adv-x="597" 
d="M497 640q-55 23 -120 23q-55 0 -103 -19.5t-83.5 -59t-56 -99.5t-20.5 -142q0 -78 18.5 -136.5t51 -97.5t77.5 -58.5t98 -19.5q54 0 102.5 11t86.5 25q0 -8 -3 -22t-7 -21q-38 -19 -87.5 -31.5t-110.5 -12.5q-67 0 -120.5 26t-91.5 72.5t-58.5 112t-20.5 144.5
q0 90 26.5 159.5t71.5 116.5t105.5 71t129.5 24q50 0 92.5 -9t77.5 -26q0 -38 -2 -77.5t-7 -73.5q-10 0 -23.5 2t-22.5 7v111z" />
    <glyph glyph-name="D" unicode="D" horiz-adv-x="667" 
d="M128 639q-19 0 -39.5 0.5t-37.5 2.5q-2 7 -3 19t0 20q57 5 120.5 8.5t115.5 3.5q74 0 137.5 -21.5t110 -65.5t72.5 -110t26 -154q0 -89 -25.5 -154t-69 -107.5t-100.5 -63t-121 -20.5t-136.5 1t-141.5 4q1 8 3.5 18.5t4.5 16.5q15 4 39.5 6.5t44.5 3.5v592zM189 42
q26 -2 53 -2h52q62 0 112.5 18t86 55t54.5 92t19 130q0 81 -21.5 140.5t-60.5 98.5t-93 58t-118 19q-19 0 -43 -0.5t-41 -2.5v-606z" />
    <glyph glyph-name="E" unicode="E" horiz-adv-x="560" 
d="M38 0q2 19 8 35q15 4 39 6.5t43 3.5v597q-23 1 -42.5 3t-33.5 4q-2 8 -3 18.5t0 18.5h453v-131q-9 0 -20.5 1t-18.5 3q-3 17 -5.5 41.5t-3.5 44.5h-265v-277h216q1 14 3 31.5t5 30.5q7 2 18.5 3.5t19.5 1.5v-176q-8 -1 -19.5 0t-19.5 3q-2 13 -4 31t-3 34h-216v-284h272
q1 23 3.5 48t5.5 44q8 2 20.5 3.5t21.5 1.5v-140h-474z" />
    <glyph glyph-name="F" unicode="F" horiz-adv-x="504" 
d="M394 356q1 14 3.5 33t4.5 31q8 2 19 3.5t19 1.5v-182q-9 -1 -20 0.5t-18 3.5q-3 14 -5 32.5t-3 34.5h-205v-270q28 -1 52.5 -2.5t47.5 -5.5q2 -6 3 -17t-1 -19h-253q2 19 8 35q15 4 39 6.5t43 3.5v597q-23 1 -42.5 3t-33.5 4q-2 8 -3 18.5t0 18.5h437v-135q-9 0 -19.5 1
t-20.5 3q-3 19 -5 42.5t-4 47.5h-248v-289h205z" />
    <glyph glyph-name="G" unicode="G" horiz-adv-x="681" 
d="M577 22q-18 -7 -43 -14.5t-54.5 -13.5t-61.5 -10t-64 -4q-72 0 -129 24.5t-96 69.5t-59.5 109t-20.5 144q0 91 25.5 161.5t72 119t110 73.5t140.5 25q54 0 100 -11t84 -35q0 -34 -2.5 -73t-7.5 -69q-9 0 -23 2.5t-22 6.5v104q-32 18 -66 25.5t-70 7.5q-57 0 -107 -20
t-88 -60.5t-60 -102t-22 -145.5q0 -78 19 -136t53.5 -96.5t82.5 -57t106 -18.5q39 0 76.5 6t67.5 14v237q-35 0 -77 2t-76 5q-3 9 -4 19.5t-1 20.5h304q-1 -10 -2.5 -20t-4.5 -20q-17 -3 -38.5 -4.5t-41.5 -2.5v-263z" />
    <glyph glyph-name="H" unicode="H" horiz-adv-x="749" 
d="M477 0q2 19 8 35q14 4 36 6.5t39 3.5v292h-371v-293q24 -1 45 -2.5t41 -5.5q2 -6 3 -17t-1 -19h-239q2 19 8 35q15 4 39 6.5t43 3.5v597q-23 1 -42.5 3t-33.5 4q-2 8 -3 18.5t0 18.5h224q2 -7 1 -17.5t-3 -18.5q-17 -3 -39 -5t-43 -3v-261h371v261q-23 1 -42 3t-33 4
q-2 8 -3 18.5t0 18.5h226q2 -7 1 -17.5t-3 -18.5q-17 -3 -40 -5t-45 -3v-598q26 -1 47.5 -2.5t43.5 -5.5q2 -4 2.5 -11t0.5 -12v-6q0 -3 -1 -7h-237z" />
    <glyph glyph-name="I" unicode="I" horiz-adv-x="317" 
d="M38 0q2 19 8 35q15 4 39 6.5t43 3.5v597q-23 1 -42.5 3t-33.5 4q-2 8 -3 18.5t0 18.5h227q2 -7 1 -17.5t-3 -18.5q-17 -3 -40 -5t-45 -3v-598q26 -1 47.5 -2.5t43.5 -5.5q2 -4 2.5 -11t0.5 -12v-6q0 -3 -1 -7h-244z" />
    <glyph glyph-name="J" unicode="J" horiz-adv-x="321" 
d="M206 217q0 -141 -55.5 -238.5t-160.5 -153.5q-6 5 -11.5 15.5t-7.5 18.5q93 57 133.5 142.5t40.5 202.5v438q-29 1 -51.5 3t-40.5 4q-2 8 -3 18.5t0 18.5h243q1 -3 1 -7v-6q0 -14 -3 -23q-17 -3 -40 -5t-45 -3v-425z" />
    <glyph glyph-name="K" unicode="K" horiz-adv-x="624" 
d="M251 372l149 206q11 15 27 34t28 30q-20 1 -41.5 3t-35.5 4q-3 8 -4.5 18.5t-1.5 18.5h204q0 -7 -2.5 -18.5t-6.5 -19.5q-11 -2 -27 -3.5t-34 -2.5l-212 -284l247 -321l73 5q0 -9 -2.5 -22t-5.5 -20q-21 -5 -50 -8.5t-53 -5.5l-262 347h-52v-289q23 -1 43 -2.5t40 -5.5
q2 -6 3 -17t-1 -19h-236q2 19 8 35q15 4 39 6.5t43 3.5v597q-23 1 -42.5 3t-33.5 4q-2 8 -3 18.5t0 18.5h219q2 -7 1 -17.5t-3 -18.5q-16 -3 -36.5 -5t-40.5 -3v-270h62z" />
    <glyph glyph-name="L" unicode="L" horiz-adv-x="538" 
d="M128 642q-23 1 -42.5 3t-33.5 4q-2 8 -3 18.5t0 18.5h237q2 -7 1 -17.5t-3 -18.5q-20 -3 -45.5 -5t-49.5 -3v-598h276q1 26 3 54.5t5 49.5q8 2 21 3.5t22 1.5v-153h-478q2 19 8 35q15 4 39 6.5t43 3.5v597z" />
    <glyph glyph-name="M" unicode="M" horiz-adv-x="872" 
d="M232 462q-32 88 -54 178h-6v-597q23 -1 42 -2.5t38 -5.5q2 -6 3 -16.5t-1 -18.5h-212q1 18 8 34q14 4 35 6.5t38 3.5v598q-23 1 -42 3t-33 4q-2 8 -3 18.5t0 18.5h169l175 -485q13 -36 24 -73.5t19 -74.5h6q8 37 19 74.5t25 73.5l178 485h170q2 -7 1 -17.5t-3 -18.5
q-17 -3 -39.5 -5t-44.5 -3v-598q26 -1 47 -2.5t43 -5.5q2 -4 2.5 -11t0.5 -12v-6q0 -3 -1 -7h-232q2 19 8 35q14 4 36 6.5t39 3.5v595h-6q-10 -42 -23.5 -87t-28.5 -86l-176 -480h-48z" />
    <glyph glyph-name="N" unicode="N" horiz-adv-x="712" 
d="M482 212q9 -17 19.5 -37t21 -41t19.5 -42t16 -39h6v589q-24 1 -44 3t-35 4q-2 8 -3 18.5t0 18.5h206q1 -3 1 -7v-6q0 -14 -3 -23q-15 -3 -34.5 -5t-38.5 -3v-647h-80l-308 552q-11 19 -22 42.5t-19 46.5h-7v-592q26 -1 48.5 -2.5t44.5 -5.5q2 -6 3 -17t-1 -19h-235
q2 19 8 35q15 4 38.5 6.5t41.5 3.5v597q-23 1 -42.5 3t-33.5 4q-2 8 -3 18.5t0 18.5h170z" />
    <glyph glyph-name="O" unicode="O" horiz-adv-x="699" 
d="M351 706q66 0 121 -23t94.5 -68t61 -111t21.5 -152q0 -89 -21.5 -158t-60.5 -116.5t-94 -72.5t-122 -25q-145 0 -223 94t-78 278q0 82 22.5 148t62 111.5t95 70t121.5 24.5zM115 352q0 -75 15.5 -135.5t45.5 -103t74 -65t101 -22.5t101 23t73.5 65t44.5 102.5t15 135.5
q0 69 -16.5 126t-47 97.5t-74 63t-96.5 22.5q-58 0 -102 -22t-74 -62.5t-45 -97.5t-15 -127z" />
    <glyph glyph-name="P" unicode="P" horiz-adv-x="546" 
d="M128 644q-19 0 -39.5 0.5t-37.5 2.5q-2 7 -3 19t0 20q57 5 117 7.5t114 2.5q56 0 102 -12.5t79 -38.5t51 -65t18 -91q0 -53 -18 -92t-49 -65t-71.5 -38.5t-86.5 -12.5q-29 0 -58.5 2t-56.5 7v-246q31 -1 57.5 -2.5t53.5 -5.5q2 -6 3 -17t-1 -19h-264q2 19 8 35
q15 4 39 6.5t43 3.5v599zM189 331q26 -3 53 -4.5t59 -1.5q75 0 120 37t45 120q0 45 -14 77.5t-40 53t-62 30.5t-81 10q-14 0 -37 -0.5t-43 -2.5v-319z" />
    <glyph glyph-name="Q" unicode="Q" horiz-adv-x="719" 
d="M518 26q22 -17 50 -33.5t56 -30.5t51 -22.5t34 -8.5l68 9q0 -9 -2.5 -24.5t-7.5 -25.5q-14 -5 -34.5 -10t-31.5 -5q-15 0 -44 12t-63 30t-68.5 40.5t-60.5 43.5q-26 -10 -53.5 -15.5t-58.5 -5.5q-146 0 -224.5 94t-78.5 278q0 82 22.5 148t62.5 111.5t95.5 70t122.5 24.5
t122 -23t94.5 -68t61.5 -111t22 -152q0 -117 -36 -199t-99 -123v-4zM115 352q0 -75 15.5 -135.5t46 -103t75 -65t101.5 -22.5q58 0 102 23t73.5 65t44.5 102.5t15 135.5q0 69 -16.5 126t-47.5 97.5t-74 63t-97 22.5q-59 0 -103.5 -22t-74.5 -62.5t-45 -97.5t-15 -127z" />
    <glyph glyph-name="R" unicode="R" horiz-adv-x="607" 
d="M128 645q-19 0 -39.5 0.5t-37.5 2.5q-2 8 -2.5 19.5t0.5 19.5q61 5 117.5 7.5t108.5 2.5q54 0 100.5 -11.5t80 -35t52.5 -60t19 -85.5q0 -41 -12.5 -73t-34.5 -55.5t-52 -38t-64 -20.5q24 -50 49 -98.5t47 -88t38 -65.5t21 -29l72 5q0 -10 -2.5 -21.5t-5.5 -19.5
q-24 -6 -51.5 -9.5t-51.5 -5.5q-8 6 -25 33t-40 70t-51 99.5t-59 122.5q-29 0 -59 1.5t-57 5.5v-274q25 -1 46 -2.5t43 -5.5q2 -6 3 -17t-1 -19h-242q2 19 8 35q15 4 39 6.5t43 3.5v600zM189 356q26 -2 53 -3t58 -1q73 0 119 36.5t46 110.5q0 42 -14.5 71t-41 48t-63.5 27.5
t-82 8.5q-17 0 -37 -0.5t-38 -2.5v-295z" />
    <glyph glyph-name="S" unicode="S" horiz-adv-x="516" 
d="M393 641q-20 11 -47 17t-56 6q-72 0 -111 -33.5t-39 -89.5q0 -47 24.5 -75.5t61.5 -49.5t80 -38.5t80 -42t61.5 -61.5t24.5 -96q0 -56 -19.5 -94t-51.5 -61t-74.5 -33t-87.5 -10q-52 0 -100 10.5t-82 24.5q0 37 1.5 78t6.5 76q11 0 24 -1.5t24 -5.5v-109q27 -14 63 -21.5
t71 -7.5q85 0 124.5 38t39.5 106q0 50 -24.5 80.5t-61.5 51t-80.5 37.5t-80.5 41t-61.5 60t-24.5 95q0 78 53.5 125.5t151.5 47.5q39 0 82.5 -8t81.5 -24q0 -31 -2.5 -67t-7.5 -66q-9 0 -22.5 2.5t-21.5 6.5v91z" />
    <glyph glyph-name="T" unicode="T" horiz-adv-x="562" 
d="M311 44q27 -1 50.5 -2.5t46.5 -5.5q2 -6 3 -17t-1 -19h-256q2 19 8 35q16 4 42 6.5t46 3.5v600h-184q-2 -24 -4 -49t-5 -45q-9 -2 -20.5 -3t-20.5 -1v139h530v-141q-10 0 -21.5 1.5t-19.5 3.5q-3 18 -5.5 44.5t-3.5 50.5h-185v-601z" />
    <glyph glyph-name="U" unicode="U" horiz-adv-x="686" 
d="M164 248q0 -109 46 -166t139 -57q51 0 88 16.5t61 46.5t35.5 71.5t11.5 90.5v392q-23 1 -43 3t-34 4q-2 8 -3 18.5t1 18.5h205q1 -3 1 -7v-6q0 -14 -3 -23q-15 -3 -34.5 -5t-38.5 -3v-387q0 -62 -15 -112.5t-46.5 -86.5t-79.5 -56t-115 -20q-121 0 -179 66t-58 195v401
q-23 1 -42.5 3t-33.5 4q-2 8 -3.5 18.5t-1.5 18.5h230q2 -7 1 -17.5t-3 -18.5q-17 -3 -40.5 -5t-45.5 -3v-394z" />
    <glyph glyph-name="V" unicode="V" horiz-adv-x="675" 
d="M348 39q6 30 15 64.5t20 64.5l111 332q11 35 25.5 72.5t28.5 69.5q-24 1 -47.5 3t-39.5 5q-3 8 -5 19t-2 17h216q0 -6 -2 -17.5t-5 -19.5q-14 -2 -31 -3.5t-34 -2.5l-229 -656h-62l-227 655q-16 1 -34 3.5t-29 4.5q-2 7 -4 18.5t-2 17.5h232q0 -8 -2.5 -18.5t-6.5 -18.5
q-20 -2 -45.5 -3.5t-50.5 -2.5q14 -31 28.5 -66t26.5 -70l117 -344q9 -26 18 -59.5t14 -64.5h6z" />
    <glyph glyph-name="W" unicode="W" horiz-adv-x="949" 
d="M292 40q5 29 11 61t12 58l130 536h73l122 -539q13 -58 21 -116h6q5 28 10.5 57.5t13.5 57.5l95 358q8 32 19 67.5t22 62.5q-23 1 -43 2.5t-39 4.5q-2 7 -4 18t-2 18h201q0 -8 -2 -18.5t-5 -18.5q-11 -2 -26.5 -3.5t-32.5 -2.5l-184 -656h-67l-117 508q-4 16 -7.5 35
t-7 39t-6.5 40t-5 38h-6q-2 -18 -5.5 -38.5t-7.5 -41t-8 -40t-8 -34.5l-124 -506h-69l-173 655q-15 1 -30.5 3t-26.5 5q-6 16 -8 36h220q0 -18 -7 -37q-19 -2 -44 -3.5t-51 -2.5q11 -27 22 -63.5t19 -66.5l91 -354q6 -24 12 -57t10 -62h6z" />
    <glyph glyph-name="X" unicode="X" horiz-adv-x="691" 
d="M470 575q10 16 22.5 33.5t26.5 33.5q-18 0 -41 2t-38 4q-3 9 -5 18t-3 20h202q-1 -9 -3 -19.5t-5 -18.5q-8 -2 -25 -3.5t-29 -1.5l-186 -286l204 -313q15 -1 33.5 -3t32.5 -4q3 -7 5.5 -18t3.5 -19h-228q1 8 3.5 18t6.5 18q15 2 37 4t43 3q-17 18 -32 37.5t-28 39.5
l-129 198l-127 -205q-10 -16 -24 -35t-28 -33q22 -1 49.5 -3.5t43.5 -5.5q2 -6 4.5 -17t3.5 -19h-233q1 8 4 18.5t6 16.5q10 2 28.5 4.5t33.5 3.5l211 315l-180 282q-16 1 -34 3.5t-28 4.5q-2 7 -4 18.5t-2 19.5h223q-2 -19 -8 -38q-16 -2 -40.5 -4t-44.5 -3q14 -15 29 -36
t27 -39l110 -171z" />
    <glyph glyph-name="Y" unicode="Y" horiz-adv-x="578" 
d="M296 321q5 17 13 36t16 35l89 169q11 20 23 41t26 41q-20 1 -40 2.5t-36 4.5q-3 7 -5 18t-2 18h191q0 -8 -2 -19.5t-4 -17.5q-11 -2 -25 -3.5t-27 -2.5l-199 -364v-235q27 -1 51 -2.5t47 -5.5q2 -6 3 -17t-1 -19h-258q2 19 8 35q16 4 42.5 6.5t46.5 3.5v235l-184 362
q-13 1 -28 3t-25 4q-3 8 -4.5 18.5t-1.5 18.5h213q0 -8 -2 -18.5t-4 -17.5q-20 -3 -42 -4.5t-45 -2.5q13 -18 25 -38.5t22 -40.5l86 -172q7 -14 14.5 -34t12.5 -37h6z" />
    <glyph glyph-name="Z" unicode="Z" horiz-adv-x="551" 
d="M51 49l383 587v5h-316q-1 -23 -4 -52t-6 -49q-10 -2 -22 -3t-23 -1v150h440v-48l-380 -587v-4h335q1 23 3.5 53t5.5 52q9 3 22 5t23 2v-159h-461v49z" />
    <glyph glyph-name="bracketleft" unicode="[" horiz-adv-x="315" 
d="M111 731h134q1 -6 0 -17t-3 -19q-15 -2 -34.5 -3.5t-40.5 -2.5v-829q22 -1 44 -3t40 -5q2 -4 2.5 -10.5t0.5 -11.5v-5q0 -4 -1 -8h-142v914z" />
    <glyph glyph-name="backslash" unicode="\" horiz-adv-x="394" 
d="M388 -154q-7 -5 -20.5 -9t-24.5 -6l-338 891q7 7 19 14t22 10z" />
    <glyph glyph-name="bracketright" unicode="]" horiz-adv-x="315" 
d="M204 -183h-146q1 18 8 34q15 4 39 6.5t43 3.5v827q-23 1 -42 3t-33 4q-2 8 -3 18t0 18h134v-914z" />
    <glyph glyph-name="asciicircum" unicode="^" 
d="M257 664l43 4l196 -308q-7 -6 -19 -12.5t-21 -8.5l-131 209q-11 17 -23 39t-20 39h-6q-8 -17 -19 -39t-22 -39l-130 -213q-8 4 -17 12.5t-14 15.5z" />
    <glyph glyph-name="underscore" unicode="_" horiz-adv-x="500" 
d="M501 -189q2 -4 2.5 -11t0.5 -13v-6q0 -5 -1 -9h-509q0 8 1.5 19.5t3.5 19.5h502z" />
    <glyph glyph-name="grave" unicode="`" horiz-adv-x="405" 
d="M95 692q11 6 30 10.5t35 4.5l111 -146q-7 -5 -20.5 -9.5t-24.5 -5.5z" />
    <glyph glyph-name="a" unicode="a" horiz-adv-x="488" 
d="M332 47q-23 -33 -60.5 -48.5t-78.5 -15.5q-28 0 -54 7.5t-46 23.5t-32 41t-12 60q0 38 14.5 66.5t40 47.5t59 28.5t71.5 9.5q26 0 51.5 -4t44.5 -12v49q0 72 -24 105t-80 33q-17 0 -36 -3.5t-38 -9.5t-36 -14t-30 -17q-4 9 -4 24q0 10 2.5 19.5t5.5 14.5q12 7 29.5 13
t38 10.5t41.5 7t40 2.5q38 0 66 -9.5t46 -30.5t27 -55t9 -84v-218q0 -17 3.5 -32t8.5 -23q15 1 35 4t37 7q1 -3 1 -9q0 -17 -7 -27q-7 -4 -19.5 -8t-26.5 -7.5t-28 -6t-24 -2.5q-11 11 -20 28t-11 35h-4zM331 217q-18 5 -40.5 8.5t-45.5 3.5q-66 0 -101.5 -29t-35.5 -77
q0 -49 31 -71.5t74 -22.5q33 0 67 14t51 43v131z" />
    <glyph glyph-name="b" unicode="b" horiz-adv-x="536" 
d="M146 39q19 -6 41.5 -10t48.5 -4q50 0 85.5 15.5t58 44t32.5 67.5t10 86q0 98 -39.5 149.5t-109.5 51.5q-48 0 -79 -20.5t-48 -44.5v-335zM89 683h-73q2 20 11 34q36 11 81 11q22 0 39 -4v-208q0 -26 -1.5 -51t-3.5 -51h8q15 28 50 49.5t90 21.5q36 0 70.5 -12t61.5 -39
t44 -71.5t17 -110.5q0 -65 -17 -115t-48.5 -84t-76 -52t-98.5 -18q-37 0 -76.5 6t-77.5 23v671z" />
    <glyph glyph-name="c" unicode="c" horiz-adv-x="461" 
d="M364 428q-21 11 -38.5 14.5t-37.5 3.5q-77 0 -124.5 -50t-47.5 -157t46 -158t124 -51q33 0 66.5 7.5t57.5 17.5q0 -8 -2.5 -19.5t-7.5 -19.5q-22 -12 -58.5 -22.5t-78.5 -10.5q-49 0 -88 17.5t-66 49.5t-41.5 77t-14.5 100q0 58 16.5 106t47.5 81.5t75 52t99 18.5
q75 0 122 -33q2 -8 2 -18v-17q0 -20 -2.5 -39t-7.5 -36q-8 0 -20.5 1.5t-20.5 6.5v78z" />
    <glyph glyph-name="d" unicode="d" horiz-adv-x="557" 
d="M388 683h-73q2 20 11 34q36 11 81 11q22 0 39 -4v-613q0 -18 1 -36.5t6 -34.5h78q1 -2 1 -6v-6q0 -8 -1.5 -14t-3.5 -9q-12 -3 -26.5 -5.5t-30.5 -4.5t-31 -3.5t-28 -1.5q-7 12 -11 28.5t-6 32.5h-4q-20 -26 -55.5 -47t-94.5 -21q-34 0 -67.5 12t-60 39.5t-43 71.5
t-16.5 109q0 64 17 114.5t48 85t74.5 52.5t96.5 18q29 0 55 -5.5t44 -16.5v220zM389 427q-20 7 -43.5 11.5t-50.5 4.5q-48 0 -82.5 -16t-56.5 -44.5t-32 -68t-10 -85.5q0 -97 38 -148t104 -51q51 0 82.5 19t50.5 42v336z" />
    <glyph glyph-name="e" unicode="e" horiz-adv-x="484" 
d="M113 233q1 -103 50.5 -153t127.5 -50q38 0 73.5 9t64.5 22q1 -9 -1.5 -20t-7.5 -19q-23 -14 -63 -26.5t-86 -12.5q-52 0 -93 18t-69 50.5t-42.5 77t-14.5 97.5q0 54 15 101.5t44 82.5t70 55t94 20q42 0 72.5 -15t50 -41.5t29 -63.5t9.5 -81q0 -14 -1 -27t-3 -24h-319z
M377 274q3 29 -0.5 59.5t-16 56t-36 41.5t-60.5 16q-33 0 -59 -13t-45.5 -36t-31 -55t-14.5 -69h263z" />
    <glyph glyph-name="f" unicode="f" horiz-adv-x="317" 
d="M311 468q2 -9 3 -19.5t1 -20.5h-134v-386q26 -2 52 -4.5t46 -6.5q2 -5 2.5 -14.5t-1.5 -16.5h-237q1 8 3.5 16t5.5 14q14 4 32 7.5t39 5.5v385h-76q1 8 3.5 18t5.5 17q12 4 29.5 7.5t37.5 5.5v71q0 52 12.5 87t34 56t50 29.5t59.5 8.5q20 0 41.5 -3t40.5 -10q2 -8 2 -17
v-16q0 -21 -2.5 -40.5t-7.5 -33.5q-8 0 -19.5 2.5t-19.5 7.5v69q-15 6 -37 6q-18 0 -35 -6t-30.5 -21.5t-22 -42.5t-8.5 -69v-86h130z" />
    <glyph glyph-name="g" unicode="g" horiz-adv-x="513" 
d="M126 22q-20 8 -31.5 25t-11.5 43q0 24 12 45t34 34v4q-59 42 -59 141q0 40 13 71.5t37 53.5t57 34t73 12q58 0 98 -23q16 6 38 10t51 4q26 0 43 -6q3 -7 5 -18.5t2 -20.5h-102q20 -20 31.5 -49.5t11.5 -67.5q0 -84 -48 -130t-130 -46q-25 0 -47.5 4t-40.5 12
q-10 -8 -16.5 -21t-6.5 -30q0 -36 41.5 -45t117.5 -9q40 0 75 -5.5t60.5 -19.5t40 -38.5t14.5 -63.5q0 -42 -18.5 -73.5t-50 -53t-74 -32t-89.5 -10.5q-41 0 -80 8.5t-69 26t-48 44.5t-18 65q0 50 26 80t59 41v4zM168 8q-37 -14 -54 -40.5t-17 -58.5q0 -31 14.5 -52.5
t38.5 -35.5t54 -20.5t61 -6.5q33 0 63 7t53.5 22t37 37t13.5 52q0 44 -32.5 65t-114.5 21q-35 0 -64.5 2t-52.5 8zM128 314q0 -64 31.5 -101t90.5 -37q60 0 90 37t30 101q0 60 -32.5 96.5t-87.5 36.5q-61 0 -91.5 -35.5t-30.5 -97.5z" />
    <glyph glyph-name="h" unicode="h" horiz-adv-x="585" 
d="M170 42q20 -2 40 -4.5t35 -6.5q2 -5 2.5 -14.5t-1.5 -16.5h-214q1 8 3.5 16t5.5 14q14 4 32 7.5t39 5.5v640h-73q2 20 11 34q36 11 81 11q22 0 39 -4v-206q0 -27 -1.5 -56.5t-3.5 -55.5h8q5 10 17 23.5t31.5 26t47.5 21t64 8.5q30 0 57 -6.5t47.5 -25.5t32.5 -54t12 -92
q0 -68 -1 -133.5t-3 -131.5q23 -2 45 -4.5t39 -6.5q2 -8 2 -17t-1 -14h-212q1 8 3.5 16t5.5 14q12 4 28 7.5t35 5.5v257q0 64 -24 101.5t-85 37.5q-24 0 -46.5 -6.5t-41.5 -17t-33.5 -22.5t-22.5 -24v-327z" />
    <glyph glyph-name="i" unicode="i" horiz-adv-x="291" 
d="M152 687q19 0 30.5 -11t11.5 -31q0 -22 -11 -33t-31 -11q-43 0 -43 43q0 20 11.5 31.5t31.5 11.5zM48 431q2 20 11 34q36 11 82 11q23 0 40 -4v-430q23 -2 44.5 -4.5t38.5 -6.5q2 -8 2 -17t-1 -14h-222q1 8 3.5 16t5.5 14q14 4 32 7.5t39 5.5v388h-75z" />
    <glyph glyph-name="j" unicode="j" horiz-adv-x="246" 
d="M163 53q0 -52 -12.5 -94t-32.5 -77t-45 -64t-51 -54q-21 8 -31 27q21 21 41.5 45.5t36.5 55t26 66.5t10 79v394h-75q2 20 11 34q36 11 82 11q23 0 40 -4v-419zM136 687q19 0 31 -11t12 -31q0 -22 -11.5 -33t-31.5 -11q-42 0 -42 43q0 20 11.5 31.5t30.5 11.5z" />
    <glyph glyph-name="k" unicode="k" horiz-adv-x="542" 
d="M170 42q20 -2 40 -4.5t35 -6.5q2 -5 2.5 -14.5t-1.5 -16.5h-214q1 8 3.5 16t5.5 14q14 4 32 7.5t39 5.5v640h-73q2 20 11 34q36 11 81 11q22 0 39 -4v-443h63l107 111q8 8 18.5 18t20.5 17q-17 1 -38.5 3.5t-36.5 6.5q-2 5 -4 14t-2 17h198q0 -7 -2.5 -17.5t-4.5 -15.5
q-10 -3 -25.5 -5t-28.5 -3l-163 -163q33 -42 66.5 -82.5t62 -73.5t48 -54t25.5 -23l66 9q0 -8 -2.5 -19.5t-6.5 -18.5q-16 -6 -36.5 -11.5t-40.5 -7.5q-12 3 -35.5 25t-54 58t-67 82.5t-75.5 96.5h-52v-203z" />
    <glyph glyph-name="l" unicode="l" horiz-adv-x="282" 
d="M170 42q23 -2 45 -4.5t39 -6.5q2 -8 2 -17t-1 -14h-223q1 8 3.5 16t5.5 14q14 4 32 7.5t39 5.5v640h-73q2 20 11 34q36 11 81 11q22 0 39 -4v-682z" />
    <glyph glyph-name="m" unicode="m" horiz-adv-x="889" 
d="M181 42q20 -2 40 -4.5t35 -6.5q2 -5 2.5 -14.5t-1.5 -16.5h-214q1 8 3.5 16t5.5 14q14 4 32 7.5t39 5.5v388h-75q2 20 11 34q33 11 77 11q21 0 37 -4v-64h8q5 9 16.5 22t31 25.5t46.5 21t64 8.5q22 0 43 -4t39 -13.5t31.5 -26.5t20.5 -43h4q5 10 17 25t32 29t49 23.5
t68 9.5q28 0 54 -7t46 -26.5t31.5 -54.5t11.5 -90q0 -68 -1 -132.5t-3 -132.5q23 -2 45 -4.5t39 -6.5q2 -8 2 -17t-1 -14h-212q1 8 3.5 16t5.5 14q12 4 28 7.5t35 5.5v257q0 64 -23.5 101.5t-82.5 37.5q-24 0 -45.5 -7t-39.5 -17.5t-32 -24t-23 -25.5q1 -9 1.5 -22.5
t0.5 -24.5v-276q20 -2 40 -4.5t35 -6.5q2 -5 2.5 -14.5t-1.5 -16.5h-205q1 8 3.5 16t5.5 14q12 4 28 7.5t35 5.5v264q0 63 -24 97.5t-82 34.5q-23 0 -44.5 -6.5t-40 -17t-32.5 -22.5t-22 -24v-327z" />
    <glyph glyph-name="n" unicode="n" horiz-adv-x="592" 
d="M181 42q20 -2 40 -4.5t35 -6.5q2 -5 2.5 -14.5t-1.5 -16.5h-214q1 8 3.5 16t5.5 14q14 4 32 7.5t39 5.5v388h-75q2 20 11 34q33 11 77 11q21 0 37 -4v-64h8q25 41 69 59t93 18q82 0 114 -45.5t32 -132.5q0 -68 -1 -132t-3 -133q23 -2 45 -4.5t39 -6.5q2 -8 2 -17t-1 -14
h-212q1 8 3.5 16t5.5 14q12 4 28 7.5t35 5.5v257q0 64 -24.5 101.5t-83.5 37.5q-24 0 -46 -6.5t-40.5 -16.5t-32.5 -22.5t-22 -24.5v-327z" />
    <glyph glyph-name="o" unicode="o" horiz-adv-x="535" 
d="M268 485q48 0 87.5 -16t68 -46.5t44 -76t15.5 -104.5q0 -125 -58.5 -192t-156.5 -67q-104 0 -160 65.5t-56 193.5q0 57 16 102t44.5 76.5t68 48t87.5 16.5zM112 242q0 -101 40.5 -159t115.5 -58q77 0 116 58.5t39 158.5q0 45 -11 82.5t-31 64t-48.5 41.5t-64.5 15
q-76 0 -116 -55.5t-40 -147.5z" />
    <glyph glyph-name="p" unicode="p" horiz-adv-x="549" 
d="M162 42q20 -8 42 -12.5t49 -4.5q49 0 83.5 16t56.5 44t32.5 67t10.5 86q0 97 -39.5 149t-108.5 52q-48 0 -78.5 -21t-47.5 -44v-332zM163 -186q26 -2 51 -4.5t44 -6.5q2 -5 2.5 -14.5t-1.5 -16.5h-234q1 8 3.5 16t5.5 14q14 4 32 7.5t39 5.5v616h-75q2 20 11 34
q33 11 77 11q21 0 37 -4v-58h8q19 29 52 50t87 21q36 0 70.5 -12t62 -39.5t44.5 -72t17 -110.5q0 -63 -17 -113t-48 -84.5t-74.5 -52.5t-96.5 -18q-29 0 -54.5 5t-42.5 16v-190z" />
    <glyph glyph-name="q" unicode="q" horiz-adv-x="526" 
d="M391 428q-20 8 -42 12.5t-50 4.5q-49 0 -84 -16.5t-57.5 -45.5t-33 -69t-10.5 -88q0 -97 39.5 -146.5t110.5 -49.5q47 0 78 18t49 38v342zM448 -186q46 -3 79 -11q2 -8 2 -17t-1 -14h-223q1 8 3.5 16t5.5 14q14 4 33.5 7.5t42.5 5.5v100q0 33 1 66.5t4 65.5h-8
q-17 -24 -51 -44t-89 -20q-36 0 -71 11.5t-62 38.5t-44 71.5t-17 110.5q0 65 17 115t49 84.5t76.5 52.5t100.5 18q38 0 78.5 -8.5t73.5 -26.5v-636z" />
    <glyph glyph-name="r" unicode="r" horiz-adv-x="382" 
d="M181 391q15 45 47.5 69.5t80.5 24.5q12 0 26 -1.5t23 -6.5q4 -5 6.5 -14.5t2.5 -23.5q0 -11 -3 -20q-15 8 -32 11t-32 3q-36 0 -67.5 -21.5t-51.5 -72.5v-297q26 -2 51.5 -4.5t45.5 -6.5q2 -5 2.5 -14.5t-1.5 -16.5h-236q1 8 3.5 16t5.5 14q14 4 32 7.5t39 5.5v388h-75
q2 20 11 34q33 11 77 11q21 0 37 -4v-81h8z" />
    <glyph glyph-name="s" unicode="s" horiz-adv-x="416" 
d="M303 429q-14 8 -33.5 13.5t-43.5 5.5q-47 0 -71.5 -19.5t-24.5 -53.5q0 -31 18 -50t44.5 -33t58 -27t58 -31t44.5 -45t18 -70q0 -37 -14 -62.5t-38 -42t-55.5 -24t-65.5 -7.5q-38 0 -74.5 9t-65.5 25q-3 19 -3 40q0 36 8 71q11 0 24 -1.5t24 -4.5v-75q19 -12 45 -18.5
t52 -6.5q47 0 76.5 24t29.5 66q0 34 -18 54.5t-45 35t-58.5 27t-58.5 29.5t-45 43t-18 67q0 54 40.5 85.5t113.5 31.5q35 0 68 -7.5t60 -22.5q2 -8 2 -16v-16q0 -20 -2.5 -38t-6.5 -32q-10 0 -22.5 2.5t-20.5 7.5v66z" />
    <glyph glyph-name="t" unicode="t" horiz-adv-x="337" 
d="M113 588q7 4 19.5 7t23.5 4v-131h151q2 -9 3 -19.5t1 -20.5h-155v-299q0 -27 2 -46t9.5 -31t22.5 -18t40 -6q23 0 45 3.5t46 11.5q0 -21 -7 -36q-51 -24 -109 -24q-56 0 -82 30t-26 107q0 66 0.5 146.5t2.5 161.5h-69q1 8 3.5 18t5.5 17q11 4 27.5 7.5t32.5 5.5z" />
    <glyph glyph-name="u" unicode="u" horiz-adv-x="579" 
d="M407 431h-74q2 20 11 34q36 11 81 11q23 0 40 -4v-361q0 -17 1.5 -35.5t5.5 -35.5h79q1 -2 1 -6v-6q0 -8 -1.5 -14t-3.5 -9q-12 -3 -27 -5.5t-31 -4.5t-31.5 -3.5t-28.5 -1.5q-6 14 -10 30t-6 35h-4q-6 -9 -18 -21.5t-31.5 -23.5t-48 -19t-66.5 -8q-29 0 -55 6.5
t-45.5 26t-31 54.5t-11.5 91q0 70 0.5 134t2.5 136h-77q2 20 11 34q36 11 82 11q23 0 40 -4v-303q0 -34 5 -60t17.5 -43.5t33 -26.5t51.5 -9q48 0 85 20t54 41v340z" />
    <glyph glyph-name="v" unicode="v" horiz-adv-x="494" 
d="M256 39q4 20 10.5 43.5t12.5 40.5l75 208q8 24 18 47.5t21 46.5l-38 4q-19 2 -33 6q-2 6 -4 15.5t-2 17.5h174q0 -8 -2.5 -18.5t-4.5 -16.5q-10 -3 -22.5 -5t-23.5 -3l-160 -428l-61 -7l-155 432q-14 2 -27.5 5.5t-23.5 7.5q-5 13 -7 33h197q0 -17 -5 -34
q-17 -3 -38.5 -5t-41.5 -3q22 -46 38 -92l75 -213q5 -15 11 -38.5t10 -43.5h7z" />
    <glyph glyph-name="w" unicode="w" horiz-adv-x="733" 
d="M229 38q3 20 7 40.5t9 37.5l96 350l72 7l87 -358q5 -20 8 -38t5 -38h7q3 20 6.5 38.5t9.5 38.5l64 214q8 25 16.5 50t16.5 45q-20 2 -37.5 4t-32.5 6q-3 7 -4.5 16t-1.5 17h168q0 -8 -2 -17.5t-5 -16.5q-9 -4 -21.5 -6t-22.5 -3l-130 -428l-66 -7l-85 337q-5 19 -10 47
t-7 53h-7q-4 -26 -9.5 -52.5t-11.5 -49.5l-92 -328l-67 -7l-125 432q-14 2 -27.5 5.5t-23.5 7.5q-5 13 -7 33h194q0 -7 -1.5 -16.5t-3.5 -16.5q-17 -3 -37 -5t-43 -4q9 -18 17 -41.5t14 -45.5l63 -225q5 -17 8 -37t5 -39h7z" />
    <glyph glyph-name="x" unicode="x" horiz-adv-x="526" 
d="M171 86q-16 -24 -36 -44q16 -1 35 -3.5t31 -6.5q3 -7 4.5 -16t1.5 -16h-186q1 7 3.5 16.5t5.5 14.5q10 5 25.5 8t28.5 5l149 202l-133 177q-30 5 -50 13q-5 12 -7 32h178q0 -16 -5 -33q-11 -3 -27 -5t-31 -3q21 -20 41 -47l76 -103l77 108q7 10 16.5 21.5t18.5 19.5
q-17 2 -32.5 4t-27.5 6q-5 15 -5 32h160q0 -19 -6 -34q-8 -3 -19.5 -5t-22.5 -3l-133 -181l152 -203q11 -1 26 -3.5t26 -6.5q3 -7 5 -15.5t3 -16.5h-188q1 8 3.5 17t5.5 15q12 4 29.5 6.5t32.5 3.5q-23 21 -45 51l-90 120z" />
    <glyph glyph-name="y" unicode="y" horiz-adv-x="492" 
d="M260 32q5 22 12 48t14 46l69 207q8 23 17.5 48t18.5 44l-38 4q-19 2 -33 6q-2 6 -4 15.5t-2 17.5h174q0 -8 -2.5 -18.5t-4.5 -16.5q-10 -3 -22.5 -5t-23.5 -3l-58 -171q-12 -35 -25 -73t-27 -76t-28 -73.5t-27 -65.5q-19 -40 -39.5 -71.5t-44.5 -55.5t-53 -42.5
t-65 -32.5q-18 18 -23 50q68 21 113.5 66.5t67.5 100.5l-164 441q-14 2 -28 5.5t-24 7.5q-5 13 -7 33h200q0 -16 -5 -33q-16 -3 -38.5 -5.5t-43.5 -3.5q10 -20 20 -45t18 -48l76 -210q7 -18 13 -43.5t10 -47.5h7z" />
    <glyph glyph-name="z" unicode="z" horiz-adv-x="447" 
d="M50 31l278 393v4h-210q-1 -16 -4 -37t-8 -38q-10 0 -22.5 2t-19.5 5v108h331l7 -31l-279 -393v-5q57 0 116.5 1.5t114.5 5.5q3 18 9 40.5t11 38.5q10 3 23 3h9q5 0 10 -1l-16 -127h-341z" />
    <glyph glyph-name="braceleft" unicode="{" horiz-adv-x="331" 
d="M265 -154q2 -6 1 -19.5t-3 -20.5q-37 2 -61.5 12.5t-39.5 29.5t-21 45t-6 59v181q0 31 -2.5 55t-11 40.5t-24 26t-41.5 12.5q0 10 2 21.5t5 18.5q24 3 38 12.5t21.5 25t10 37.5t2.5 50v153q0 34 5.5 62.5t20.5 49t40.5 32t64.5 13.5q0 -8 -2 -20.5t-6 -20.5
q-37 -5 -52 -30.5t-15 -79.5v-154q0 -61 -15 -98t-58 -50v-4q44 -13 58.5 -46.5t14.5 -93.5v-183q0 -58 17.5 -85.5t56.5 -30.5z" />
    <glyph glyph-name="bar" unicode="|" horiz-adv-x="276" 
d="M162 -180q-6 -2 -22 -2q-7 0 -14 0.5t-9 1.5v916q19 4 45 4v-920z" />
    <glyph glyph-name="braceright" unicode="}" horiz-adv-x="331" 
d="M67 -154q38 3 56.5 28.5t18.5 79.5v182q0 62 14 99t58 50v4q-41 12 -56.5 47t-15.5 95v154q0 60 -16.5 87t-59.5 32q0 8 3 20t7 18q36 -3 59.5 -15t37.5 -32t19.5 -46.5t5.5 -56.5v-155q0 -28 2.5 -51t10 -39.5t22.5 -26.5t39 -13q2 -8 3.5 -20t1.5 -20q-25 -3 -40.5 -12
t-24 -24t-11.5 -37t-3 -52v-184q0 -34 -6 -61t-20.5 -46.5t-39.5 -31t-62 -13.5q-2 5 -3.5 18.5t0.5 21.5z" />
    <glyph glyph-name="asciitilde" unicode="~" 
d="M87 220q-8 5 -14 14t-9 17q20 27 53.5 46t75.5 19q31 0 54.5 -8.5t45 -18t44 -18t50.5 -8.5q29 0 50.5 13.5t33.5 30.5q9 -2 19.5 -6.5t16.5 -9.5q-20 -33 -53.5 -52.5t-77.5 -19.5q-33 0 -56.5 8t-44 18t-41.5 18t-50 8q-32 0 -57.5 -16t-39.5 -35z" />
    <glyph glyph-name="uni00A0" unicode="&#xa0;" horiz-adv-x="195" 
 />
    <glyph glyph-name="exclamdown" unicode="&#xa1;" horiz-adv-x="297" 
d="M125 270q7 3 21 5t24 0l19 -482q-13 -5 -36 -5q-22 0 -37 5zM148 481q20 0 33 -11.5t13 -33.5q0 -24 -12.5 -36t-33.5 -12q-47 0 -47 47q0 21 13 33.5t34 12.5z" />
    <glyph glyph-name="cent" unicode="&#xa2;" 
d="M419 530q-19 9 -38.5 13t-38.5 4q-40 0 -73 -12t-57 -36.5t-37 -62t-13 -89.5q0 -103 47.5 -153t127.5 -50q31 0 66 7t64 18q0 -9 -3 -21t-8 -19q-20 -12 -49.5 -20t-63.5 -11v-97q-6 -2 -23 -2q-7 0 -14 0.5t-9 1.5v96q-46 3 -83 21.5t-62.5 49.5t-39 73.5t-13.5 93.5
q0 106 56 172.5t156 77.5v82q11 2 22.5 3t23.5 1v-84q34 -2 62.5 -10.5t49.5 -22.5q1 -5 1.5 -14t0.5 -17q0 -26 -2.5 -45t-7.5 -39q-9 0 -21.5 2t-20.5 6v83z" />
    <glyph glyph-name="sterling" unicode="&#xa3;" 
d="M130 45q20 35 34 79t14 89q0 24 -2.5 50t-7.5 47h-94q0 10 2 22t5 19h79q-8 34 -13 66.5t-5 67.5q0 196 202 196q32 0 67.5 -5.5t67.5 -18.5q0 -32 -2 -69t-7 -65q-9 0 -21.5 2t-20.5 6v94q-23 8 -45 11.5t-42 3.5q-67 0 -102 -36t-35 -111q0 -39 5 -72.5t13 -69.5h201
q2 -8 2.5 -20.5t-1.5 -20.5h-195q4 -20 6 -42.5t2 -44.5q0 -47 -14.5 -91.5t-45.5 -84.5v-4h293q1 26 3.5 54.5t5.5 49.5q8 2 20.5 3.5t21.5 1.5v-152h-477q1 18 8 34q14 4 37 7t41 4z" />
    <glyph glyph-name="currency" unicode="&#xa4;" 
d="M164 509q50 38 122 38q70 0 120 -36l61 74q9 -3 19.5 -11t14.5 -15l-64 -75q21 -25 32.5 -59.5t11.5 -76.5q0 -47 -12 -83.5t-33 -63.5l67 -79q-5 -8 -15 -15.5t-19 -10.5l-64 77q-48 -36 -119 -36q-73 0 -122 35l-63 -76q-9 3 -19 10.5t-15 15.5l66 79q-43 52 -43 147
q0 41 11.5 74t32.5 59l-66 78q4 7 15 15.5t19 10.5zM142 348q0 -78 38 -124.5t106 -46.5q69 0 106.5 46.5t37.5 124.5q0 34 -10.5 63.5t-29 50.5t-45 33t-59.5 12q-70 0 -107 -44t-37 -115z" />
    <glyph glyph-name="yen" unicode="&#xa5;" 
d="M314 188v-146q26 -1 50 -2.5t46 -5.5q2 -6 3 -16t-1 -18h-255q1 16 8 33q16 4 42 6.5t46 3.5v145h-168q0 9 2 20.5t4 17.5h162v46l-24 46h-144q0 9 2 20.5t4 17.5h118l-134 261q-13 1 -27.5 3t-24.5 4q-3 8 -4.5 18.5t-1.5 18.5h212q0 -8 -2 -18.5t-4 -17.5
q-21 -3 -42.5 -4.5t-45.5 -2.5q13 -17 26 -38t22 -39l80 -159q8 -14 14.5 -33t11.5 -36h6q5 17 12.5 34.5t16.5 34.5l83 156q22 42 48 80q-20 1 -40 2.5t-36 4.5q-3 7 -5 18t-2 18h191q0 -8 -2 -19.5t-4 -17.5q-11 -2 -25 -3.5t-27 -2.5l-144 -262h121q2 -8 2.5 -19.5
t-1.5 -18.5h-143l-26 -48v-44h168q2 -8 2.5 -19.5t-1.5 -18.5h-169z" />
    <glyph glyph-name="brokenbar" unicode="&#xa6;" horiz-adv-x="276" 
d="M162 -180q-6 -2 -22 -2q-7 0 -14.5 0.5t-9.5 1.5v336q11 2 22.5 3t23.5 1v-340zM162 408q-6 -2 -22 -2q-7 0 -14.5 0.5t-9.5 1.5v328q11 2 22.5 3t23.5 1v-332z" />
    <glyph glyph-name="section" unicode="&#xa7;" 
d="M155 487q-14 30 -14 69q0 73 46 111.5t127 38.5q45 0 85 -8.5t73 -26.5q0 -26 -2 -55.5t-6 -55.5q-10 0 -24 3t-21 7v75q-18 10 -45.5 16.5t-60.5 6.5q-58 0 -87.5 -28t-29.5 -76q0 -43 22 -70.5t54.5 -48t71 -39.5t71 -45.5t54.5 -64t22 -96.5q0 -49 -16.5 -86
t-39.5 -62q7 -16 11 -34.5t4 -40.5q0 -45 -17 -77t-45.5 -52.5t-66 -30t-78.5 -9.5q-48 0 -92 10t-80 28q0 12 0.5 28.5t2 33.5t3 33t3.5 29q12 0 25 -2t24 -5v-87q26 -15 58.5 -21.5t66.5 -6.5q65 0 102.5 33t37.5 90q0 47 -22.5 77t-56.5 52t-74 41t-74 43.5t-56.5 59
t-22.5 88.5q0 51 19 89.5t48 65.5zM176 452q-19 -18 -27.5 -47.5t-8.5 -61.5q0 -35 14.5 -60t38 -44t53.5 -35l60 -32q30 -16 57.5 -35.5t46.5 -46.5q14 19 21.5 45t7.5 56q0 40 -14.5 67.5t-37 48t-51.5 36.5t-58.5 32t-56 34t-45.5 43z" />
    <glyph glyph-name="dieresis" unicode="&#xa8;" horiz-adv-x="405" 
d="M102 644q17 0 28 -9.5t11 -28.5q0 -20 -10.5 -30t-28.5 -10q-39 0 -39 39q0 18 10.5 28.5t28.5 10.5zM303 644q17 0 28 -9.5t11 -28.5q0 -20 -10.5 -30t-28.5 -10q-39 0 -39 39q0 18 10.5 28.5t28.5 10.5z" />
    <glyph glyph-name="copyright" unicode="&#xa9;" horiz-adv-x="814" 
d="M760 332q0 -75 -27 -139t-75 -111.5t-113.5 -74.5t-141.5 -27q-75 0 -139 26.5t-110.5 73.5t-73 110.5t-26.5 137.5t27.5 138.5t75.5 112t112.5 75t139.5 27.5t139 -27t111 -74t74 -111t27 -137zM714 329q0 64 -23.5 121.5t-65 100t-97.5 67.5t-121 25t-121 -24
t-97.5 -66t-65 -99t-23.5 -123q0 -67 23.5 -124.5t65 -99.5t97.5 -66t122 -24q65 0 121 24t97 66t64.5 99t23.5 123zM486 476q-28 11 -61 11q-26 0 -49.5 -9t-40.5 -28t-27 -48t-10 -68q0 -75 35 -112.5t95 -37.5q26 0 54 6t48 14q0 -8 -2.5 -19t-5.5 -17q-20 -11 -52 -19
t-64 -8q-37 0 -68 13.5t-53 38.5t-34 59t-12 75q0 46 15 82.5t40.5 62t60 39t72.5 13.5q31 0 58 -5.5t47 -14.5q0 -23 -2 -52.5t-5 -47.5q-9 0 -21 2.5t-18 5.5v64z" />
    <glyph glyph-name="ordfeminine" unicode="&#xaa;" horiz-adv-x="404" 
d="M258 352q-32 -45 -97 -45q-42 0 -71.5 21t-29.5 67q0 25 10 44t27 31.5t39.5 18.5t47.5 6q20 0 40 -3t32 -9v28q0 77 -71 77q-12 0 -25.5 -2.5t-27.5 -6.5t-27 -9.5t-22 -11.5q-2 6 -2 17q0 18 6 30q9 5 22 9t28.5 7t31 4.5t28.5 1.5q56 0 82 -26t26 -89v-130
q0 -11 3 -20t6 -14q9 0 24 2.5t27 5.5q0 -19 -7 -32q-11 -6 -33.5 -11t-39.5 -5q-8 7 -14.5 19.5t-8.5 24.5h-4zM256 452q-14 4 -28 6t-31 2q-45 0 -65.5 -16t-20.5 -44q0 -29 19 -41.5t47 -12.5q25 0 46 9.5t33 27.5v69zM334 260q2 -6 3 -19.5t-1 -21.5h-266q0 8 2 21t4 20
h258z" />
    <glyph glyph-name="guillemotleft" unicode="&#xab;" horiz-adv-x="489" 
d="M318 246q20 -48 42 -93.5t47 -92.5q-7 -5 -21 -9t-24 -5q-29 45 -57.5 98.5t-51.5 101.5q22 49 46.5 94t51.5 90q11 4 28 6.5t30 2.5q-26 -48 -49 -96.5t-42 -96.5zM144 246q20 -48 42 -93.5t47 -92.5q-7 -5 -21 -9t-24 -5q-29 45 -57.5 98.5t-51.5 101.5q22 49 46.5 94
t51.5 90q11 4 28 6.5t30 2.5q-26 -48 -49 -96.5t-42 -96.5z" />
    <glyph glyph-name="logicalnot" unicode="&#xac;" 
d="M499 288v-165q-2 -1 -9 -2t-17 -1q-9 0 -16.5 1t-9.5 2v121h-387q0 9 2 22.5t4 21.5h433z" />
    <glyph glyph-name="uni00AD" unicode="&#xad;" horiz-adv-x="333" 
d="M273 293q2 -5 2.5 -14t0.5 -17v-8q0 -5 -1 -10h-224q0 10 2 25.5t5 23.5h215z" />
    <glyph glyph-name="registered" unicode="&#xae;" horiz-adv-x="537" 
d="M479 549q0 -45 -15.5 -84t-44 -67t-67.5 -44t-85 -16q-47 0 -85.5 15.5t-66 43.5t-42.5 66.5t-15 84.5t15.5 84.5t43.5 66.5t67 43.5t86 15.5t85.5 -15.5t66 -43.5t42.5 -66t15 -84zM440 547q0 38 -12.5 70.5t-35 56t-54 37t-70.5 13.5t-70.5 -13.5t-54 -37t-34.5 -55.5
t-12 -69q0 -38 12 -70.5t34.5 -56.5t54.5 -37.5t71 -13.5t70.5 13.5t54 37t34.5 55.5t12 70zM202 633q-7 0 -17 0.5t-15 1.5q-2 4 -2.5 12t1.5 13q23 2 49.5 2.5t46.5 0.5q42 0 69 -15t27 -47q0 -25 -15 -40.5t-36 -20.5q10 -19 21.5 -38t22.5 -34l29 3q0 -6 -2 -13.5
t-5 -12.5q-19 -5 -46 -7q-14 20 -28.5 46.5t-26.5 50.5q-10 0 -19.5 0.5t-17.5 1.5v-67q8 -1 18 -2.5t15 -3.5q1 -4 1.5 -10t-0.5 -11h-107q2 13 6 21q7 2 17.5 4t13.5 2v163zM238 561q8 -2 17 -2h18q23 0 37 10t14 30q0 21 -17.5 30t-46.5 9h-11q-5 0 -11 -1v-76z" />
    <glyph glyph-name="macron" unicode="&#xaf;" horiz-adv-x="405" 
d="M328 625q2 -5 2.5 -12.5t0.5 -14.5v-7q0 -4 -1 -9h-258q0 9 2 22.5t4 20.5h250z" />
    <glyph glyph-name="degree" unicode="&#xb0;" horiz-adv-x="350" 
d="M161 681q58 0 94 -32t36 -93q0 -64 -35.5 -99t-94.5 -35q-63 0 -97 34t-34 100q0 58 37 91.5t94 33.5zM78 556q0 -45 22 -71t61 -26q41 0 61.5 25.5t20.5 71.5q0 39 -22 63.5t-60 24.5q-41 0 -62 -23.5t-21 -64.5z" />
    <glyph glyph-name="plusminus" unicode="&#xb1;" 
d="M479 386q2 -5 2.5 -12.5t0.5 -14.5v-7q0 -4 -1 -9h-170v-179q-3 -1 -9 -2t-16 -1t-17.5 1t-9.5 2v179h-172q0 8 2 21.5t4 21.5h166v175q13 3 25.5 4t26.5 1v-180h168zM480 44q2 -5 2.5 -12.5t0.5 -14.5v-8q0 -4 -1 -9h-398q0 8 2 22t4 22h390z" />
    <glyph glyph-name="twosuperior" unicode="&#xb2;" horiz-adv-x="385" 
d="M60 422q22 22 57.5 50t68.5 59.5t57 65t24 65.5q0 34 -21 49t-58 15q-21 0 -41.5 -4.5t-36.5 -12.5v-62q-8 -3 -19.5 -4.5t-19.5 -1.5q-4 20 -5.5 46.5t-1.5 49.5q23 11 55.5 19.5t72.5 8.5q28 0 52 -5.5t41.5 -16.5t27.5 -28.5t10 -42.5q0 -40 -24 -77.5t-57 -70
t-67.5 -58.5t-55.5 -44v-4q48 1 105 2.5t112 4.5q0 -9 -1 -22.5t-3 -24.5h-272v44z" />
    <glyph glyph-name="threesuperior" unicode="&#xb3;" horiz-adv-x="385" 
d="M113 554q-2 8 -1 20t3 19q64 0 104 16t40 59q0 33 -22.5 45t-51.5 12q-26 0 -56.5 -7t-51.5 -18q-2 11 0 24t6 22q20 9 48 14t54 5q27 0 50.5 -5t41 -16t27.5 -28.5t10 -42.5q0 -37 -22.5 -62t-62.5 -32v-3q40 -5 67.5 -27.5t27.5 -67.5q0 -30 -12.5 -50.5t-34 -34
t-50 -19.5t-60.5 -6q-26 0 -53.5 4t-44.5 12q-6 15 -6 33v6q0 4 1 8q20 -9 50.5 -15.5t59.5 -6.5q39 0 66.5 15t27.5 55t-35.5 56t-119.5 16z" />
    <glyph glyph-name="acute" unicode="&#xb4;" horiz-adv-x="405" 
d="M156 539q-8 3 -19.5 11.5t-16.5 16.5l113 147q12 -1 29 -9t26 -16z" />
    <glyph glyph-name="mu" unicode="&#xb5;" horiz-adv-x="590" 
d="M131 72q11 -90 15 -175t4 -155q-16 0 -35 4t-30 9q4 96 7 186t5 177t3.5 173t1.5 174q8 2 26.5 4t30.5 2q-2 -67 -2.5 -129t-0.5 -135q0 -91 29 -133t95 -42q50 0 84.5 24.5t52.5 59.5q-2 17 -3 38t-1 43q0 71 1 142.5t4 125.5q8 2 25.5 4t28.5 2q-2 -28 -2.5 -61.5
t-1.5 -69t-1 -72.5v-69q0 -93 12.5 -131t44.5 -38q23 0 43 13q1 -4 1 -11q0 -8 -2 -17.5t-6 -14.5q-9 -7 -24 -12t-31 -5q-63 0 -81 86h-4q-7 -15 -19 -30t-30 -27.5t-42.5 -20.5t-57.5 -8q-50 0 -84.5 21.5t-49.5 67.5h-6z" />
    <glyph glyph-name="paragraph" unicode="&#xb6;" horiz-adv-x="555" 
d="M393 660q-15 2 -33.5 2.5t-37.5 0.5v-786q45 -1 98.5 -3.5t96.5 -6.5q3 -8 3 -21q0 -8 -1 -13h-328q1 8 3 17t5 16q14 3 36 6t39 4v501q-8 -1 -16.5 -1.5t-18.5 -0.5q-36 0 -69.5 8.5t-60 27t-42 49.5t-15.5 76q0 81 62.5 124t190.5 43q22 0 50.5 -0.5t58 -2t57 -3
t45.5 -2.5q2 -8 1.5 -19.5t-2.5 -18.5q-16 -1 -38 -1h-36v-718q-8 -2 -23 -2q-17 0 -25 2v722z" />
    <glyph glyph-name="periodcentered" unicode="&#xb7;" horiz-adv-x="336" 
d="M168 293q22 0 36 -12.5t14 -36.5q0 -26 -13.5 -39t-36.5 -13q-51 0 -51 51q0 23 14 36.5t37 13.5z" />
    <glyph glyph-name="cedilla" unicode="&#xb8;" horiz-adv-x="405" 
d="M177 5q8 2 18.5 3t19.5 1l-14 -70q24 -6 42 -23.5t18 -46.5q0 -19 -9 -35t-24 -28t-35 -20t-42 -11q-17 13 -23 26q34 6 55 23t21 43q0 22 -16 37t-39 20z" />
    <glyph glyph-name="onesuperior" unicode="&#xb9;" horiz-adv-x="385" 
d="M95 378q0 6 3 16.5t6 15.5q14 3 36 5t38 3v301l-94 -13q1 9 3 19t6 18q20 5 58.5 11.5t79.5 10.5v-347q17 -1 39.5 -3t39.5 -4q2 -4 2.5 -9.5t0.5 -10.5q0 -8 -1 -13h-217z" />
    <glyph glyph-name="ordmasculine" unicode="&#xba;" horiz-adv-x="413" 
d="M207 627q68 0 109.5 -39.5t41.5 -114.5q0 -79 -41 -122.5t-110 -43.5q-73 0 -113 42.5t-40 123.5q0 72 42.5 113t110.5 41zM105 473q0 -60 27 -94.5t75 -34.5t73.5 34.5t25.5 94.5q0 52 -27 85t-72 33q-49 0 -75.5 -32.5t-26.5 -85.5zM342 260q2 -6 3 -19.5t-1 -21.5
h-276q0 8 2 21t4 20h268z" />
    <glyph glyph-name="guillemotright" unicode="&#xbb;" horiz-adv-x="489" 
d="M178 246q-20 48 -41 91t-46 91q8 5 22 8t25 3q26 -44 53.5 -94t50.5 -99q-23 -48 -52.5 -102t-57.5 -99q-10 1 -23.5 6t-20.5 10q24 45 46.5 90.5t43.5 94.5zM354 246q-20 48 -41 91t-46 91q8 5 22 8t25 3q26 -44 53.5 -94t50.5 -99q-23 -48 -52.5 -102t-57.5 -99
q-10 1 -23.5 6t-20.5 10q24 45 46.5 90.5t43.5 94.5z" />
    <glyph glyph-name="onequarter" unicode="&#xbc;" horiz-adv-x="926" 
d="M779 1q-6 -2 -25 -2q-17 0 -25 2v104h-194v37l176 239h68v-237h53q2 -5 3 -17.5t1 -21.5h-57v-104zM729 269q0 14 0.5 34t2.5 35h-4l-142 -192v-4q13 1 33 1.5t36 0.5h74v125zM251 -22q-11 2 -22.5 8.5t-16.5 13.5l478 689q24 -3 42 -13zM88 281q0 6 3 16.5t6 15.5
q14 3 36 5t38 3v301l-94 -13q1 9 3 19t6 18q20 5 58.5 11.5t79.5 10.5v-347q17 -1 39.5 -3t39.5 -4q2 -4 2.5 -9.5t0.5 -10.5q0 -8 -1 -13h-217z" />
    <glyph glyph-name="onehalf" unicode="&#xbd;" horiz-adv-x="926" 
d="M225 -22q-11 2 -22.5 8.5t-16.5 13.5l478 689q24 -3 42 -13zM78 281q0 6 3 16.5t6 15.5q14 3 36 5t38 3v301l-94 -13q1 9 3 19t6 18q20 5 58.5 11.5t79.5 10.5v-347q17 -1 39.5 -3t39.5 -4q2 -4 2.5 -9.5t0.5 -10.5q0 -8 -1 -13h-217zM563 44q22 22 57.5 50t68.5 59.5
t57 65t24 65.5q0 34 -21 49t-58 15q-21 0 -41.5 -4.5t-36.5 -12.5v-62q-8 -3 -19.5 -4.5t-19.5 -1.5q-4 20 -5.5 46.5t-1.5 49.5q23 11 55.5 19.5t72.5 8.5q28 0 52 -5.5t41.5 -16.5t27.5 -28.5t10 -42.5q0 -40 -24 -77.5t-57 -70t-67.5 -58.5t-55.5 -44v-4q48 1 105 2.5
t112 4.5q0 -9 -1 -22.5t-3 -24.5h-272v44z" />
    <glyph glyph-name="threequarters" unicode="&#xbe;" horiz-adv-x="926" 
d="M789 1q-6 -2 -25 -2q-17 0 -25 2v104h-194v37l176 239h68v-237h53q2 -5 3 -17.5t1 -21.5h-57v-104zM739 269q0 14 0.5 34t2.5 35h-4l-142 -192v-4q13 1 33 1.5t36 0.5h74v125zM268 -22q-11 2 -22.5 8.5t-16.5 13.5l478 689q24 -3 42 -13zM134 457q-2 8 -1 20t3 19
q64 0 104 16t40 59q0 33 -22.5 45t-51.5 12q-26 0 -56.5 -7t-51.5 -18q-2 11 0 24t6 22q20 9 48 14t54 5q27 0 50.5 -5t41 -16t27.5 -28.5t10 -42.5q0 -37 -22.5 -62t-62.5 -32v-3q40 -5 67.5 -27.5t27.5 -67.5q0 -30 -12.5 -50.5t-34 -34t-50 -19.5t-60.5 -6q-26 0 -53.5 4
t-44.5 12q-6 15 -6 33v6q0 4 1 8q20 -9 50.5 -15.5t59.5 -6.5q39 0 66.5 15t27.5 55t-35.5 56t-119.5 16z" />
    <glyph glyph-name="questiondown" unicode="&#xbf;" horiz-adv-x="442" 
d="M335 -43q8 5 21 7t23 2q6 -34 8.5 -73.5t2.5 -81.5q-15 -8 -36.5 -14.5t-46.5 -11t-51.5 -7.5t-49.5 -3q-84 0 -128.5 36.5t-44.5 97.5q0 32 14.5 59t36 50.5t46.5 44.5t46.5 41t36 40.5t14.5 42.5q0 25 -7.5 43.5t-21.5 35.5q8 7 21.5 12.5t27.5 7.5q17 -19 27.5 -43
t10.5 -53q0 -26 -14 -48.5t-34.5 -44t-44.5 -42.5t-44.5 -43t-34.5 -46t-14 -51q0 -19 7 -37t21.5 -31.5t38 -21.5t56.5 -8q30 0 61.5 7t51.5 16v117zM223 481q20 0 33 -11.5t13 -33.5q0 -24 -12.5 -36t-33.5 -12q-47 0 -47 47q0 21 13 33.5t34 12.5z" />
    <glyph glyph-name="Agrave" unicode="&#xc0;" horiz-adv-x="708" 
d="M469 0q1 8 4 19t5 16q17 4 41 6.5t43 3.5q-12 22 -22.5 45.5t-18.5 46.5l-36 99h-275l-36 -101q-8 -23 -17.5 -46.5t-20.5 -44.5q22 -1 46 -3t45 -6q2 -6 4 -16.5t2 -18.5h-221q1 8 4 18.5t6 16.5q12 3 28 5t34 4l244 656h51l242 -655q32 -2 63 -8q2 -6 4.5 -17.5
t2.5 -19.5h-222zM345 636q-5 -26 -14.5 -58t-19.5 -58l-87 -244h246l-89 247q-9 25 -17 54.5t-13 58.5h-6zM173 835q8 11 22.5 24.5t26.5 18.5l185 -94q-1 -10 -6 -22.5t-11 -20.5z" />
    <glyph glyph-name="Aacute" unicode="&#xc1;" horiz-adv-x="708" 
d="M469 0q1 8 4 19t5 16q17 4 41 6.5t43 3.5q-12 22 -22.5 45.5t-18.5 46.5l-36 99h-275l-36 -101q-8 -23 -17.5 -46.5t-20.5 -44.5q22 -1 46 -3t45 -6q2 -6 4 -16.5t2 -18.5h-221q1 8 4 18.5t6 16.5q12 3 28 5t34 4l244 656h51l242 -655q32 -2 63 -8q2 -6 4.5 -17.5
t2.5 -19.5h-222zM345 636q-5 -26 -14.5 -58t-19.5 -58l-87 -244h246l-89 247q-9 25 -17 54.5t-13 58.5h-6zM296 740q-3 8 -5 22t-2 24l198 96q9 -10 16.5 -23.5t12.5 -27.5z" />
    <glyph glyph-name="Acircumflex" unicode="&#xc2;" horiz-adv-x="708" 
d="M469 0q1 8 4 19t5 16q17 4 41 6.5t43 3.5q-12 22 -22.5 45.5t-18.5 46.5l-36 99h-275l-36 -101q-8 -23 -17.5 -46.5t-20.5 -44.5q22 -1 46 -3t45 -6q2 -6 4 -16.5t2 -18.5h-221q1 8 4 18.5t6 16.5q12 3 28 5t34 4l244 656h51l242 -655q32 -2 63 -8q2 -6 4.5 -17.5
t2.5 -19.5h-222zM345 636q-5 -26 -14.5 -58t-19.5 -58l-87 -244h246l-89 247q-9 25 -17 54.5t-13 58.5h-6zM386 878l126 -97q-5 -9 -12 -18.5t-15 -14.5l-137 83l-142 -86q-5 8 -9.5 19.5t-6.5 19.5l126 94h70z" />
    <glyph glyph-name="Atilde" unicode="&#xc3;" horiz-adv-x="708" 
d="M469 0q1 8 4 19t5 16q17 4 41 6.5t43 3.5q-12 22 -22.5 45.5t-18.5 46.5l-36 99h-275l-36 -101q-8 -23 -17.5 -46.5t-20.5 -44.5q22 -1 46 -3t45 -6q2 -6 4 -16.5t2 -18.5h-221q1 8 4 18.5t6 16.5q12 3 28 5t34 4l244 656h51l242 -655q32 -2 63 -8q2 -6 4.5 -17.5
t2.5 -19.5h-222zM345 636q-5 -26 -14.5 -58t-19.5 -58l-87 -244h246l-89 247q-9 25 -17 54.5t-13 58.5h-6zM488 845q21 0 37 -8q-8 -34 -33.5 -58.5t-73.5 -24.5q-23 0 -41 7t-34.5 15.5t-33.5 15.5t-37 7q-26 0 -43.5 -12.5t-24.5 -31.5q-8 2 -17.5 8t-14.5 14q11 31 38 52
t72 21q25 0 43 -7t34.5 -15.5t32.5 -15.5t36 -7q24 0 39 11.5t21 28.5z" />
    <glyph glyph-name="Adieresis" unicode="&#xc4;" horiz-adv-x="708" 
d="M469 0q1 8 4 19t5 16q17 4 41 6.5t43 3.5q-12 22 -22.5 45.5t-18.5 46.5l-36 99h-275l-36 -101q-8 -23 -17.5 -46.5t-20.5 -44.5q22 -1 46 -3t45 -6q2 -6 4 -16.5t2 -18.5h-221q1 8 4 18.5t6 16.5q12 3 28 5t34 4l244 656h51l242 -655q32 -2 63 -8q2 -6 4.5 -17.5
t2.5 -19.5h-222zM345 636q-5 -26 -14.5 -58t-19.5 -58l-87 -244h246l-89 247q-9 25 -17 54.5t-13 58.5h-6zM232 843q20 0 32 -10.5t12 -30.5q0 -21 -12 -32t-32 -11q-44 0 -44 42q0 20 12 31t32 11zM464 843q20 0 32 -10.5t12 -30.5q0 -21 -12 -32t-32 -11q-44 0 -44 42
q0 20 12 31t32 11z" />
    <glyph glyph-name="Aring" unicode="&#xc5;" horiz-adv-x="708" 
d="M355 885q53 0 83.5 -24t30.5 -69q0 -42 -24 -65.5t-66 -28.5l242 -653q32 -2 63 -8q2 -6 4.5 -17.5t2.5 -19.5h-222q1 8 4 19t5 16q17 4 41 6.5t43 3.5q-12 22 -22.5 45.5t-18.5 46.5l-36 99h-275l-36 -101q-8 -23 -17.5 -46.5t-20.5 -44.5q22 -1 46 -3t45 -6
q2 -6 4 -16.5t2 -18.5h-221q1 8 4 18.5t6 16.5q12 3 28 5t34 4l243 654q-42 6 -65 30.5t-23 62.5q0 45 31 69.5t85 24.5zM345 636q-5 -26 -14.5 -58t-19.5 -58l-87 -244h246l-89 247q-9 25 -17 54.5t-13 58.5h-6zM355 850q-32 0 -50 -15t-18 -44t19 -43.5t49 -14.5t48 15
t18 44t-18 43.5t-48 14.5z" />
    <glyph glyph-name="AE" unicode="&#xc6;" horiz-adv-x="896" 
d="M382 0q1 8 3.5 17.5t5.5 17.5q16 3 37 6t40 4v199h-221l-60 -108q-13 -23 -27.5 -47.5t-28.5 -44.5q49 -2 89 -9q2 -6 4 -17t2 -18h-220q2 19 10 34q23 7 60 10l339 600q-25 1 -48 2.5t-39 3.5q-2 8 -3 18.5t0 17.5h513v-131q-9 0 -20.5 1t-18.5 3q-3 17 -5.5 41.5
t-3.5 44.5h-262v-285h214q1 14 3 31.5t5 30.5q7 2 18.5 3.5t19.5 1.5v-176q-8 -1 -19.5 0t-19.5 3q-2 13 -4 31t-3 34h-214v-276h269q1 23 3.5 48t5.5 44q8 2 20.5 3.5t21.5 1.5v-140h-466zM468 645h-6q-10 -23 -22.5 -49.5t-25.5 -49.5l-145 -262h199v361z" />
    <glyph glyph-name="Ccedilla" unicode="&#xc7;" horiz-adv-x="597" 
d="M335 -20q-66 1 -118.5 27.5t-90 73t-57.5 111.5t-20 143q0 90 26.5 159.5t71.5 116.5t105.5 71t129.5 24q50 0 92.5 -9t77.5 -26q0 -38 -2 -77.5t-7 -73.5q-10 0 -23.5 2t-22.5 7v111q-55 23 -120 23q-55 0 -103 -19.5t-83.5 -59t-56 -99.5t-20.5 -142q0 -78 18.5 -136.5
t51 -97.5t77.5 -58.5t98 -19.5q54 0 102.5 11t86.5 25q0 -8 -3 -22t-7 -21q-32 -16 -71.5 -27t-87.5 -15l-8 -50q29 -6 49.5 -24.5t20.5 -48.5q0 -20 -10 -37.5t-26.5 -31t-38.5 -22.5t-45 -12q-15 12 -25 29q37 8 60.5 25t23.5 45q0 25 -18.5 41t-46.5 21z" />
    <glyph glyph-name="Egrave" unicode="&#xc8;" horiz-adv-x="560" 
d="M38 0q2 19 8 35q15 4 39 6.5t43 3.5v597q-23 1 -42.5 3t-33.5 4q-2 8 -3 18.5t0 18.5h453v-131q-9 0 -20.5 1t-18.5 3q-3 17 -5.5 41.5t-3.5 44.5h-265v-277h216q1 14 3 31.5t5 30.5q7 2 18.5 3.5t19.5 1.5v-176q-8 -1 -19.5 0t-19.5 3q-2 13 -4 31t-3 34h-216v-284h272
q1 23 3.5 48t5.5 44q8 2 20.5 3.5t21.5 1.5v-140h-474zM127 835q8 11 22.5 24.5t26.5 18.5l185 -94q-1 -10 -6 -22.5t-11 -20.5z" />
    <glyph glyph-name="Eacute" unicode="&#xc9;" horiz-adv-x="560" 
d="M38 0q2 19 8 35q15 4 39 6.5t43 3.5v597q-23 1 -42.5 3t-33.5 4q-2 8 -3 18.5t0 18.5h453v-131q-9 0 -20.5 1t-18.5 3q-3 17 -5.5 41.5t-3.5 44.5h-265v-277h216q1 14 3 31.5t5 30.5q7 2 18.5 3.5t19.5 1.5v-176q-8 -1 -19.5 0t-19.5 3q-2 13 -4 31t-3 34h-216v-284h272
q1 23 3.5 48t5.5 44q8 2 20.5 3.5t21.5 1.5v-140h-474zM248 740q-3 8 -5 22t-2 24l198 96q9 -10 16.5 -23.5t12.5 -27.5z" />
    <glyph glyph-name="Ecircumflex" unicode="&#xca;" horiz-adv-x="560" 
d="M38 0q2 19 8 35q15 4 39 6.5t43 3.5v597q-23 1 -42.5 3t-33.5 4q-2 8 -3 18.5t0 18.5h453v-131q-9 0 -20.5 1t-18.5 3q-3 17 -5.5 41.5t-3.5 44.5h-265v-277h216q1 14 3 31.5t5 30.5q7 2 18.5 3.5t19.5 1.5v-176q-8 -1 -19.5 0t-19.5 3q-2 13 -4 31t-3 34h-216v-284h272
q1 23 3.5 48t5.5 44q8 2 20.5 3.5t21.5 1.5v-140h-474zM335 878l126 -97q-5 -9 -12 -18.5t-15 -14.5l-137 83l-142 -86q-5 8 -9.5 19.5t-6.5 19.5l126 94h70z" />
    <glyph glyph-name="Edieresis" unicode="&#xcb;" horiz-adv-x="560" 
d="M38 0q2 19 8 35q15 4 39 6.5t43 3.5v597q-23 1 -42.5 3t-33.5 4q-2 8 -3 18.5t0 18.5h453v-131q-9 0 -20.5 1t-18.5 3q-3 17 -5.5 41.5t-3.5 44.5h-265v-277h216q1 14 3 31.5t5 30.5q7 2 18.5 3.5t19.5 1.5v-176q-8 -1 -19.5 0t-19.5 3q-2 13 -4 31t-3 34h-216v-284h272
q1 23 3.5 48t5.5 44q8 2 20.5 3.5t21.5 1.5v-140h-474zM183 843q20 0 32 -10.5t12 -30.5q0 -21 -12 -32t-32 -11q-44 0 -44 42q0 20 12 31t32 11zM415 843q20 0 32 -10.5t12 -30.5q0 -21 -12 -32t-32 -11q-44 0 -44 42q0 20 12 31t32 11z" />
    <glyph glyph-name="Igrave" unicode="&#xcc;" horiz-adv-x="317" 
d="M38 0q2 19 8 35q15 4 39 6.5t43 3.5v597q-23 1 -42.5 3t-33.5 4q-2 8 -3 18.5t0 18.5h227q2 -7 1 -17.5t-3 -18.5q-17 -3 -40 -5t-45 -3v-598q26 -1 47.5 -2.5t43.5 -5.5q2 -4 2.5 -11t0.5 -12v-6q0 -3 -1 -7h-244zM-11 835q8 11 22.5 24.5t26.5 18.5l185 -94
q-1 -10 -6 -22.5t-11 -20.5z" />
    <glyph glyph-name="Iacute" unicode="&#xcd;" horiz-adv-x="317" 
d="M38 0q2 19 8 35q15 4 39 6.5t43 3.5v597q-23 1 -42.5 3t-33.5 4q-2 8 -3 18.5t0 18.5h227q2 -7 1 -17.5t-3 -18.5q-17 -3 -40 -5t-45 -3v-598q26 -1 47.5 -2.5t43.5 -5.5q2 -4 2.5 -11t0.5 -12v-6q0 -3 -1 -7h-244zM112 740q-3 8 -5 22t-2 24l198 96q9 -10 16.5 -23.5
t12.5 -27.5z" />
    <glyph glyph-name="Icircumflex" unicode="&#xce;" horiz-adv-x="317" 
d="M38 0q2 19 8 35q15 4 39 6.5t43 3.5v597q-23 1 -42.5 3t-33.5 4q-2 8 -3 18.5t0 18.5h227q2 -7 1 -17.5t-3 -18.5q-17 -3 -40 -5t-45 -3v-598q26 -1 47.5 -2.5t43.5 -5.5q2 -4 2.5 -11t0.5 -12v-6q0 -3 -1 -7h-244zM194 878l126 -97q-5 -9 -12 -18.5t-15 -14.5l-137 83
l-142 -86q-5 8 -9.5 19.5t-6.5 19.5l126 94h70z" />
    <glyph glyph-name="Idieresis" unicode="&#xcf;" horiz-adv-x="317" 
d="M38 0q2 19 8 35q15 4 39 6.5t43 3.5v597q-23 1 -42.5 3t-33.5 4q-2 8 -3 18.5t0 18.5h227q2 -7 1 -17.5t-3 -18.5q-17 -3 -40 -5t-45 -3v-598q26 -1 47.5 -2.5t43.5 -5.5q2 -4 2.5 -11t0.5 -12v-6q0 -3 -1 -7h-244zM260 843q20 0 32 -10.5t12 -30.5q0 -21 -12 -32
t-32 -11q-44 0 -44 42q0 20 12 31t32 11zM58 843q20 0 32 -10.5t12 -30.5q0 -21 -12 -32t-32 -11q-44 0 -44 42q0 20 12 31t32 11z" />
    <glyph glyph-name="Eth" unicode="&#xd0;" horiz-adv-x="679" 
d="M140 367v272q-19 0 -39.5 0.5t-37.5 2.5q-2 7 -3 19t0 20q57 5 120.5 8.5t115.5 3.5q74 0 137.5 -21.5t110 -65.5t72.5 -110t26 -154q0 -89 -25.5 -154t-69 -107.5t-100.5 -63t-121 -20.5t-136.5 1t-141.5 4q1 8 3.5 18.5t4.5 16.5q15 4 39.5 6.5t44.5 3.5v278h-87
q0 10 2 22.5t5 19.5h80zM201 367h202q2 -9 2.5 -21.5t-1.5 -20.5h-203v-283q26 -2 53 -2h52q62 0 112.5 18t86 55t54.5 92t19 130q0 81 -21.5 140.5t-60.5 98.5t-93 58t-118 19q-19 0 -43 -0.5t-41 -2.5v-281z" />
    <glyph glyph-name="Ntilde" unicode="&#xd1;" horiz-adv-x="712" 
d="M482 212q9 -17 19.5 -37t21 -41t19.5 -42t16 -39h6v589q-24 1 -44 3t-35 4q-2 8 -3 18.5t0 18.5h206q1 -3 1 -7v-6q0 -14 -3 -23q-15 -3 -34.5 -5t-38.5 -3v-647h-80l-308 552q-11 19 -22 42.5t-19 46.5h-7v-592q26 -1 48.5 -2.5t44.5 -5.5q2 -6 3 -17t-1 -19h-235
q2 19 8 35q15 4 38.5 6.5t41.5 3.5v597q-23 1 -42.5 3t-33.5 4q-2 8 -3 18.5t0 18.5h170zM512 845q21 0 37 -8q-8 -34 -33.5 -58.5t-73.5 -24.5q-23 0 -41 7t-34.5 15.5t-33.5 15.5t-37 7q-26 0 -43.5 -12.5t-24.5 -31.5q-8 2 -17.5 8t-14.5 14q11 31 38 52t72 21
q25 0 43 -7t34.5 -15.5t32.5 -15.5t36 -7q24 0 39 11.5t21 28.5z" />
    <glyph glyph-name="Ograve" unicode="&#xd2;" horiz-adv-x="699" 
d="M351 706q66 0 121 -23t94.5 -68t61 -111t21.5 -152q0 -89 -21.5 -158t-60.5 -116.5t-94 -72.5t-122 -25q-145 0 -223 94t-78 278q0 82 22.5 148t62 111.5t95 70t121.5 24.5zM115 352q0 -75 15.5 -135.5t45.5 -103t74 -65t101 -22.5t101 23t73.5 65t44.5 102.5t15 135.5
q0 69 -16.5 126t-47 97.5t-74 63t-96.5 22.5q-58 0 -102 -22t-74 -62.5t-45 -97.5t-15 -127zM192 835q8 11 22.5 24.5t26.5 18.5l185 -94q-1 -10 -6 -22.5t-11 -20.5z" />
    <glyph glyph-name="Oacute" unicode="&#xd3;" horiz-adv-x="699" 
d="M351 706q66 0 121 -23t94.5 -68t61 -111t21.5 -152q0 -89 -21.5 -158t-60.5 -116.5t-94 -72.5t-122 -25q-145 0 -223 94t-78 278q0 82 22.5 148t62 111.5t95 70t121.5 24.5zM115 352q0 -75 15.5 -135.5t45.5 -103t74 -65t101 -22.5t101 23t73.5 65t44.5 102.5t15 135.5
q0 69 -16.5 126t-47 97.5t-74 63t-96.5 22.5q-58 0 -102 -22t-74 -62.5t-45 -97.5t-15 -127zM293 740q-3 8 -5 22t-2 24l198 96q9 -10 16.5 -23.5t12.5 -27.5z" />
    <glyph glyph-name="Ocircumflex" unicode="&#xd4;" horiz-adv-x="699" 
d="M351 706q66 0 121 -23t94.5 -68t61 -111t21.5 -152q0 -89 -21.5 -158t-60.5 -116.5t-94 -72.5t-122 -25q-145 0 -223 94t-78 278q0 82 22.5 148t62 111.5t95 70t121.5 24.5zM115 352q0 -75 15.5 -135.5t45.5 -103t74 -65t101 -22.5t101 23t73.5 65t44.5 102.5t15 135.5
q0 69 -16.5 126t-47 97.5t-74 63t-96.5 22.5q-58 0 -102 -22t-74 -62.5t-45 -97.5t-15 -127zM388 878l126 -97q-5 -9 -12 -18.5t-15 -14.5l-137 83l-142 -86q-5 8 -9.5 19.5t-6.5 19.5l126 94h70z" />
    <glyph glyph-name="Otilde" unicode="&#xd5;" horiz-adv-x="699" 
d="M351 706q66 0 121 -23t94.5 -68t61 -111t21.5 -152q0 -89 -21.5 -158t-60.5 -116.5t-94 -72.5t-122 -25q-145 0 -223 94t-78 278q0 82 22.5 148t62 111.5t95 70t121.5 24.5zM115 352q0 -75 15.5 -135.5t45.5 -103t74 -65t101 -22.5t101 23t73.5 65t44.5 102.5t15 135.5
q0 69 -16.5 126t-47 97.5t-74 63t-96.5 22.5q-58 0 -102 -22t-74 -62.5t-45 -97.5t-15 -127zM490 845q21 0 37 -8q-8 -34 -33.5 -58.5t-73.5 -24.5q-23 0 -41 7t-34.5 15.5t-33.5 15.5t-37 7q-26 0 -43.5 -12.5t-24.5 -31.5q-8 2 -17.5 8t-14.5 14q11 31 38 52t72 21
q25 0 43 -7t34.5 -15.5t32.5 -15.5t36 -7q24 0 39 11.5t21 28.5z" />
    <glyph glyph-name="Odieresis" unicode="&#xd6;" horiz-adv-x="699" 
d="M351 706q66 0 121 -23t94.5 -68t61 -111t21.5 -152q0 -89 -21.5 -158t-60.5 -116.5t-94 -72.5t-122 -25q-145 0 -223 94t-78 278q0 82 22.5 148t62 111.5t95 70t121.5 24.5zM115 352q0 -75 15.5 -135.5t45.5 -103t74 -65t101 -22.5t101 23t73.5 65t44.5 102.5t15 135.5
q0 69 -16.5 126t-47 97.5t-74 63t-96.5 22.5q-58 0 -102 -22t-74 -62.5t-45 -97.5t-15 -127zM210 843q20 0 32 -10.5t12 -30.5q0 -21 -12 -32t-32 -11q-44 0 -44 42q0 20 12 31t32 11zM492 843q20 0 32 -10.5t12 -30.5q0 -21 -12 -32t-32 -11q-44 0 -44 42q0 20 12 31t32 11
z" />
    <glyph glyph-name="multiply" unicode="&#xd7;" 
d="M493 89q-5 -8 -14.5 -17.5t-17.5 -14.5l-177 177l-175 -177q-9 5 -18.5 15t-13.5 18l176 175l-177 177q7 6 18.5 13t21.5 11l169 -169l167 169q9 -3 21 -10.5t19 -14.5l-176 -176z" />
    <glyph glyph-name="Oslash" unicode="&#xd8;" horiz-adv-x="723" 
d="M363 706q62 0 114 -20t91 -59l88 104q10 -4 21 -13t17 -17l-95 -112q31 -44 47.5 -103t16.5 -134q0 -89 -21.5 -158t-60.5 -116.5t-94.5 -72.5t-123.5 -25q-133 0 -209 78l-95 -114q-8 8 -15 20.5t-10 23.5l89 108q-31 46 -47 110t-16 146t22.5 148t62.5 111.5t96 70
t122 24.5zM125 352q0 -126 42 -207l363 436q-31 38 -73 59t-94 21q-59 0 -103.5 -22t-74.5 -62.5t-45 -97.5t-15 -127zM599 352q0 56 -11 103t-31 85l-364 -435q30 -38 73 -58.5t97 -20.5q58 0 102 23t74 65t45 102.5t15 135.5z" />
    <glyph glyph-name="Ugrave" unicode="&#xd9;" horiz-adv-x="686" 
d="M164 248q0 -109 46 -166t139 -57q51 0 88 16.5t61 46.5t35.5 71.5t11.5 90.5v392q-23 1 -43 3t-34 4q-2 8 -3 18.5t1 18.5h205q1 -3 1 -7v-6q0 -14 -3 -23q-15 -3 -34.5 -5t-38.5 -3v-387q0 -62 -15 -112.5t-46.5 -86.5t-79.5 -56t-115 -20q-121 0 -179 66t-58 195v401
q-23 1 -42.5 3t-33.5 4q-2 8 -3.5 18.5t-1.5 18.5h230q2 -7 1 -17.5t-3 -18.5q-17 -3 -40.5 -5t-45.5 -3v-394zM195 835q8 11 22.5 24.5t26.5 18.5l185 -94q-1 -10 -6 -22.5t-11 -20.5z" />
    <glyph glyph-name="Uacute" unicode="&#xda;" horiz-adv-x="686" 
d="M164 248q0 -109 46 -166t139 -57q51 0 88 16.5t61 46.5t35.5 71.5t11.5 90.5v392q-23 1 -43 3t-34 4q-2 8 -3 18.5t1 18.5h205q1 -3 1 -7v-6q0 -14 -3 -23q-15 -3 -34.5 -5t-38.5 -3v-387q0 -62 -15 -112.5t-46.5 -86.5t-79.5 -56t-115 -20q-121 0 -179 66t-58 195v401
q-23 1 -42.5 3t-33.5 4q-2 8 -3.5 18.5t-1.5 18.5h230q2 -7 1 -17.5t-3 -18.5q-17 -3 -40.5 -5t-45.5 -3v-394zM301 740q-3 8 -5 22t-2 24l198 96q9 -10 16.5 -23.5t12.5 -27.5z" />
    <glyph glyph-name="Ucircumflex" unicode="&#xdb;" horiz-adv-x="686" 
d="M164 248q0 -109 46 -166t139 -57q51 0 88 16.5t61 46.5t35.5 71.5t11.5 90.5v392q-23 1 -43 3t-34 4q-2 8 -3 18.5t1 18.5h205q1 -3 1 -7v-6q0 -14 -3 -23q-15 -3 -34.5 -5t-38.5 -3v-387q0 -62 -15 -112.5t-46.5 -86.5t-79.5 -56t-115 -20q-121 0 -179 66t-58 195v401
q-23 1 -42.5 3t-33.5 4q-2 8 -3.5 18.5t-1.5 18.5h230q2 -7 1 -17.5t-3 -18.5q-17 -3 -40.5 -5t-45.5 -3v-394zM396 878l126 -97q-5 -9 -12 -18.5t-15 -14.5l-137 83l-142 -86q-5 8 -9.5 19.5t-6.5 19.5l126 94h70z" />
    <glyph glyph-name="Udieresis" unicode="&#xdc;" horiz-adv-x="686" 
d="M164 248q0 -109 46 -166t139 -57q51 0 88 16.5t61 46.5t35.5 71.5t11.5 90.5v392q-23 1 -43 3t-34 4q-2 8 -3 18.5t1 18.5h205q1 -3 1 -7v-6q0 -14 -3 -23q-15 -3 -34.5 -5t-38.5 -3v-387q0 -62 -15 -112.5t-46.5 -86.5t-79.5 -56t-115 -20q-121 0 -179 66t-58 195v401
q-23 1 -42.5 3t-33.5 4q-2 8 -3.5 18.5t-1.5 18.5h230q2 -7 1 -17.5t-3 -18.5q-17 -3 -40.5 -5t-45.5 -3v-394zM241 843q20 0 32 -10.5t12 -30.5q0 -21 -12 -32t-32 -11q-44 0 -44 42q0 20 12 31t32 11zM473 843q20 0 32 -10.5t12 -30.5q0 -21 -12 -32t-32 -11q-44 0 -44 42
q0 20 12 31t32 11z" />
    <glyph glyph-name="Yacute" unicode="&#xdd;" horiz-adv-x="578" 
d="M296 321q5 17 13 36t16 35l89 169q11 20 23 41t26 41q-20 1 -40 2.5t-36 4.5q-3 7 -5 18t-2 18h191q0 -8 -2 -19.5t-4 -17.5q-11 -2 -25 -3.5t-27 -2.5l-199 -364v-235q27 -1 51 -2.5t47 -5.5q2 -6 3 -17t-1 -19h-258q2 19 8 35q16 4 42.5 6.5t46.5 3.5v235l-184 362
q-13 1 -28 3t-25 4q-3 8 -4.5 18.5t-1.5 18.5h213q0 -8 -2 -18.5t-4 -17.5q-20 -3 -42 -4.5t-45 -2.5q13 -18 25 -38.5t22 -40.5l86 -172q7 -14 14.5 -34t12.5 -37h6zM232 740q-3 8 -5 22t-2 24l198 96q9 -10 16.5 -23.5t12.5 -27.5z" />
    <glyph glyph-name="Thorn" unicode="&#xde;" horiz-adv-x="541" 
d="M283 546q55 0 100.5 -12t77.5 -36t50 -61t18 -87q0 -52 -18 -90t-49 -63t-72 -37.5t-86 -12.5q-28 0 -58 2t-57 6v-111q28 -1 51.5 -2.5t47.5 -5.5q2 -6 3 -17t-1 -19h-252q2 19 8 35q15 4 39 6.5t43 3.5v597q-23 1 -42.5 3t-33.5 4q-2 8 -3 18.5t0 18.5h235
q2 -7 1 -17.5t-3 -18.5q-19 -3 -44 -5t-49 -3v-100q22 2 46 3t48 1zM189 197q26 -4 53.5 -5.5t58.5 -1.5q75 0 120 36t45 115q0 43 -14 73.5t-39.5 50t-61 29t-78.5 9.5q-17 0 -40 -1.5t-44 -3.5v-301z" />
    <glyph glyph-name="germandbls" unicode="&#xdf;" horiz-adv-x="611" 
d="M125 423q-40 2 -70 8q-2 7 -2.5 18.5t0.5 18.5h73q0 72 16 123t45 83.5t69.5 47.5t89.5 15q27 0 56.5 -5.5t54.5 -19t41 -36.5t16 -59q0 -41 -20 -67t-47 -47t-42 -42t-15 -53q0 -23 7 -39.5t19 -29.5t27 -23t32 -19q22 -12 42 -26t36 -33t25.5 -44t9.5 -61
q0 -40 -14.5 -68.5t-39 -46.5t-56 -26.5t-64.5 -8.5q-38 0 -73 9t-63 24q-2 7 -3 17t-1 20q0 41 8 70q11 0 23 -2t22 -5v-70q17 -11 43 -17.5t49 -6.5q51 0 81.5 27.5t30.5 77.5q0 27 -8 46t-21.5 33.5t-31 25.5t-35.5 22q-19 11 -37.5 24t-32.5 30t-23 39t-9 52q0 25 6 44
t16.5 35t24 28.5t28.5 23.5q25 20 37.5 37.5t12.5 43.5q0 24 -10.5 40.5t-27 26.5t-37 14t-40.5 4q-74 0 -117 -53.5t-43 -177.5v-465h-138q1 8 3.5 16t5.5 14q14 4 32 7.5t39 5.5v380z" />
    <glyph glyph-name="agrave" unicode="&#xe0;" horiz-adv-x="488" 
d="M332 47q-23 -33 -60.5 -48.5t-78.5 -15.5q-28 0 -54 7.5t-46 23.5t-32 41t-12 60q0 38 14.5 66.5t40 47.5t59 28.5t71.5 9.5q26 0 51.5 -4t44.5 -12v49q0 72 -24 105t-80 33q-17 0 -36 -3.5t-38 -9.5t-36 -14t-30 -17q-4 9 -4 24q0 10 2.5 19.5t5.5 14.5q12 7 29.5 13
t38 10.5t41.5 7t40 2.5q38 0 66 -9.5t46 -30.5t27 -55t9 -84v-218q0 -17 3.5 -32t8.5 -23q15 1 35 4t37 7q1 -3 1 -9q0 -17 -7 -27q-7 -4 -19.5 -8t-26.5 -7.5t-28 -6t-24 -2.5q-11 11 -20 28t-11 35h-4zM331 217q-18 5 -40.5 8.5t-45.5 3.5q-66 0 -101.5 -29t-35.5 -77
q0 -49 31 -71.5t74 -22.5q33 0 67 14t51 43v131zM126 692q11 6 30 10.5t35 4.5l111 -146q-7 -5 -20.5 -9.5t-24.5 -5.5z" />
    <glyph glyph-name="aacute" unicode="&#xe1;" horiz-adv-x="488" 
d="M332 47q-23 -33 -60.5 -48.5t-78.5 -15.5q-28 0 -54 7.5t-46 23.5t-32 41t-12 60q0 38 14.5 66.5t40 47.5t59 28.5t71.5 9.5q26 0 51.5 -4t44.5 -12v49q0 72 -24 105t-80 33q-17 0 -36 -3.5t-38 -9.5t-36 -14t-30 -17q-4 9 -4 24q0 10 2.5 19.5t5.5 14.5q12 7 29.5 13
t38 10.5t41.5 7t40 2.5q38 0 66 -9.5t46 -30.5t27 -55t9 -84v-218q0 -17 3.5 -32t8.5 -23q15 1 35 4t37 7q1 -3 1 -9q0 -17 -7 -27q-7 -4 -19.5 -8t-26.5 -7.5t-28 -6t-24 -2.5q-11 11 -20 28t-11 35h-4zM331 217q-18 5 -40.5 8.5t-45.5 3.5q-66 0 -101.5 -29t-35.5 -77
q0 -49 31 -71.5t74 -22.5q33 0 67 14t51 43v131zM206 539q-8 3 -19.5 11.5t-16.5 16.5l113 147q12 -1 29 -9t26 -16z" />
    <glyph glyph-name="acircumflex" unicode="&#xe2;" horiz-adv-x="488" 
d="M332 47q-23 -33 -60.5 -48.5t-78.5 -15.5q-28 0 -54 7.5t-46 23.5t-32 41t-12 60q0 38 14.5 66.5t40 47.5t59 28.5t71.5 9.5q26 0 51.5 -4t44.5 -12v49q0 72 -24 105t-80 33q-17 0 -36 -3.5t-38 -9.5t-36 -14t-30 -17q-4 9 -4 24q0 10 2.5 19.5t5.5 14.5q12 7 29.5 13
t38 10.5t41.5 7t40 2.5q38 0 66 -9.5t46 -30.5t27 -55t9 -84v-218q0 -17 3.5 -32t8.5 -23q15 1 35 4t37 7q1 -3 1 -9q0 -17 -7 -27q-7 -4 -19.5 -8t-26.5 -7.5t-28 -6t-24 -2.5q-11 11 -20 28t-11 35h-4zM331 217q-18 5 -40.5 8.5t-45.5 3.5q-66 0 -101.5 -29t-35.5 -77
q0 -49 31 -71.5t74 -22.5q33 0 67 14t51 43v131zM259 701l114 -132q-5 -8 -15 -16t-21 -12l-108 111l-113 -115q-8 5 -15 15.5t-10 19.5l110 126z" />
    <glyph glyph-name="atilde" unicode="&#xe3;" horiz-adv-x="488" 
d="M332 47q-23 -33 -60.5 -48.5t-78.5 -15.5q-28 0 -54 7.5t-46 23.5t-32 41t-12 60q0 38 14.5 66.5t40 47.5t59 28.5t71.5 9.5q26 0 51.5 -4t44.5 -12v49q0 72 -24 105t-80 33q-17 0 -36 -3.5t-38 -9.5t-36 -14t-30 -17q-4 9 -4 24q0 10 2.5 19.5t5.5 14.5q12 7 29.5 13
t38 10.5t41.5 7t40 2.5q38 0 66 -9.5t46 -30.5t27 -55t9 -84v-218q0 -17 3.5 -32t8.5 -23q15 1 35 4t37 7q1 -3 1 -9q0 -17 -7 -27q-7 -4 -19.5 -8t-26.5 -7.5t-28 -6t-24 -2.5q-11 11 -20 28t-11 35h-4zM331 217q-18 5 -40.5 8.5t-45.5 3.5q-66 0 -101.5 -29t-35.5 -77
q0 -49 31 -71.5t74 -22.5q33 0 67 14t51 43v131zM349 651q8 -1 17.5 -3t15.5 -6q-6 -33 -29.5 -57t-63.5 -24q-20 0 -35.5 7t-29.5 15.5t-28 15.5t-31 7q-21 0 -36.5 -12.5t-21.5 -31.5q-20 3 -30 19q9 32 33.5 53t62.5 21q22 0 38 -7t29.5 -15t26.5 -15t30 -7q20 0 33.5 11
t18.5 29z" />
    <glyph glyph-name="adieresis" unicode="&#xe4;" horiz-adv-x="488" 
d="M332 47q-23 -33 -60.5 -48.5t-78.5 -15.5q-28 0 -54 7.5t-46 23.5t-32 41t-12 60q0 38 14.5 66.5t40 47.5t59 28.5t71.5 9.5q26 0 51.5 -4t44.5 -12v49q0 72 -24 105t-80 33q-17 0 -36 -3.5t-38 -9.5t-36 -14t-30 -17q-4 9 -4 24q0 10 2.5 19.5t5.5 14.5q12 7 29.5 13
t38 10.5t41.5 7t40 2.5q38 0 66 -9.5t46 -30.5t27 -55t9 -84v-218q0 -17 3.5 -32t8.5 -23q15 1 35 4t37 7q1 -3 1 -9q0 -17 -7 -27q-7 -4 -19.5 -8t-26.5 -7.5t-28 -6t-24 -2.5q-11 11 -20 28t-11 35h-4zM331 217q-18 5 -40.5 8.5t-45.5 3.5q-66 0 -101.5 -29t-35.5 -77
q0 -49 31 -71.5t74 -22.5q33 0 67 14t51 43v131zM129 644q17 0 28 -9.5t11 -28.5q0 -20 -10.5 -30t-28.5 -10q-39 0 -39 39q0 18 10.5 28.5t28.5 10.5zM330 644q17 0 28 -9.5t11 -28.5q0 -20 -10.5 -30t-28.5 -10q-39 0 -39 39q0 18 10.5 28.5t28.5 10.5z" />
    <glyph glyph-name="aring" unicode="&#xe5;" horiz-adv-x="488" 
d="M332 47q-23 -33 -60.5 -48.5t-78.5 -15.5q-28 0 -54 7.5t-46 23.5t-32 41t-12 60q0 38 14.5 66.5t40 47.5t59 28.5t71.5 9.5q26 0 51.5 -4t44.5 -12v49q0 72 -24 105t-80 33q-17 0 -36 -3.5t-38 -9.5t-36 -14t-30 -17q-4 9 -4 24q0 10 2.5 19.5t5.5 14.5q12 7 29.5 13
t38 10.5t41.5 7t40 2.5q38 0 66 -9.5t46 -30.5t27 -55t9 -84v-218q0 -17 3.5 -32t8.5 -23q15 1 35 4t37 7q1 -3 1 -9q0 -17 -7 -27q-7 -4 -19.5 -8t-26.5 -7.5t-28 -6t-24 -2.5q-11 11 -20 28t-11 35h-4zM331 217q-18 5 -40.5 8.5t-45.5 3.5q-66 0 -101.5 -29t-35.5 -77
q0 -49 31 -71.5t74 -22.5q33 0 67 14t51 43v131zM231 720q44 0 70.5 -23.5t26.5 -66.5q0 -45 -27 -68.5t-70 -23.5q-48 0 -74 23.5t-26 68.5q0 41 27 65.5t73 24.5zM231 688q-26 0 -42.5 -15t-16.5 -43q0 -30 16 -45t43 -15q25 0 40.5 15.5t15.5 44.5t-15 43.5t-41 14.5z
" />
    <glyph glyph-name="ae" unicode="&#xe6;" horiz-adv-x="758" 
d="M387 228q2 -97 51 -147.5t128 -50.5q35 0 72.5 9.5t64.5 21.5q1 -9 -1.5 -20t-7.5 -19q-23 -14 -64 -26.5t-86 -12.5q-62 0 -104.5 25t-66.5 67h-4q-25 -46 -69 -69t-98 -23q-32 0 -60 8t-48.5 24.5t-32.5 42t-12 59.5q0 39 14.5 68t40 48.5t58.5 29t71 9.5q25 0 51.5 -4
t45.5 -12v46q0 71 -24 103.5t-80 32.5q-16 0 -35 -3.5t-38 -9.5t-36.5 -14t-30.5 -17q-3 9 -3 22q0 20 7 36q12 7 30 13t38.5 10.5t41.5 7t39 2.5q66 0 96.5 -26t36.5 -76h4q16 44 62.5 73t108.5 29q43 0 73.5 -15t50.5 -42t29.5 -65t9.5 -84q0 -14 -1 -28t-3 -23h-319z
M354 105q-11 25 -17.5 55t-7.5 62q-18 5 -40.5 8.5t-43.5 3.5q-67 0 -102 -29.5t-35 -79.5t32 -72.5t81 -22.5q43 0 76 18t57 57zM650 269q3 30 0 62t-16 57.5t-36.5 42t-60.5 16.5q-33 0 -59 -13.5t-45.5 -37t-30.5 -56t-14 -71.5h262z" />
    <glyph glyph-name="ccedilla" unicode="&#xe7;" horiz-adv-x="461" 
d="M251 -17q-47 2 -83.5 20.5t-62 50.5t-39 76t-13.5 97q0 58 16.5 106t47.5 81.5t75 52t99 18.5q75 0 122 -33q2 -8 2 -18v-17q0 -20 -2.5 -39t-7.5 -36q-8 0 -20.5 1.5t-20.5 6.5v78q-21 11 -38.5 14.5t-37.5 3.5q-77 0 -124.5 -50t-47.5 -157t46 -158t124 -51
q33 0 66.5 7.5t57.5 17.5q0 -8 -2.5 -19.5t-7.5 -19.5q-18 -10 -46.5 -19t-61.5 -12l-9 -46q24 -6 42 -23.5t18 -46.5q0 -19 -9 -35t-24 -28t-35 -20t-42 -11q-17 13 -23 26q34 6 55 23t21 43q0 22 -16 37t-39 20z" />
    <glyph glyph-name="egrave" unicode="&#xe8;" horiz-adv-x="484" 
d="M113 233q1 -103 50.5 -153t127.5 -50q38 0 73.5 9t64.5 22q1 -9 -1.5 -20t-7.5 -19q-23 -14 -63 -26.5t-86 -12.5q-52 0 -93 18t-69 50.5t-42.5 77t-14.5 97.5q0 54 15 101.5t44 82.5t70 55t94 20q42 0 72.5 -15t50 -41.5t29 -63.5t9.5 -81q0 -14 -1 -27t-3 -24h-319z
M377 274q3 29 -0.5 59.5t-16 56t-36 41.5t-60.5 16q-33 0 -59 -13t-45.5 -36t-31 -55t-14.5 -69h263zM159 692q11 6 30 10.5t35 4.5l111 -146q-7 -5 -20.5 -9.5t-24.5 -5.5z" />
    <glyph glyph-name="eacute" unicode="&#xe9;" horiz-adv-x="484" 
d="M113 233q1 -103 50.5 -153t127.5 -50q38 0 73.5 9t64.5 22q1 -9 -1.5 -20t-7.5 -19q-23 -14 -63 -26.5t-86 -12.5q-52 0 -93 18t-69 50.5t-42.5 77t-14.5 97.5q0 54 15 101.5t44 82.5t70 55t94 20q42 0 72.5 -15t50 -41.5t29 -63.5t9.5 -81q0 -14 -1 -27t-3 -24h-319z
M377 274q3 29 -0.5 59.5t-16 56t-36 41.5t-60.5 16q-33 0 -59 -13t-45.5 -36t-31 -55t-14.5 -69h263zM239 539q-8 3 -19.5 11.5t-16.5 16.5l113 147q12 -1 29 -9t26 -16z" />
    <glyph glyph-name="ecircumflex" unicode="&#xea;" horiz-adv-x="484" 
d="M113 233q1 -103 50.5 -153t127.5 -50q38 0 73.5 9t64.5 22q1 -9 -1.5 -20t-7.5 -19q-23 -14 -63 -26.5t-86 -12.5q-52 0 -93 18t-69 50.5t-42.5 77t-14.5 97.5q0 54 15 101.5t44 82.5t70 55t94 20q42 0 72.5 -15t50 -41.5t29 -63.5t9.5 -81q0 -14 -1 -27t-3 -24h-319z
M377 274q3 29 -0.5 59.5t-16 56t-36 41.5t-60.5 16q-33 0 -59 -13t-45.5 -36t-31 -55t-14.5 -69h263zM293 701l114 -132q-5 -8 -15 -16t-21 -12l-108 111l-113 -115q-8 5 -15 15.5t-10 19.5l110 126z" />
    <glyph glyph-name="edieresis" unicode="&#xeb;" horiz-adv-x="484" 
d="M113 233q1 -103 50.5 -153t127.5 -50q38 0 73.5 9t64.5 22q1 -9 -1.5 -20t-7.5 -19q-23 -14 -63 -26.5t-86 -12.5q-52 0 -93 18t-69 50.5t-42.5 77t-14.5 97.5q0 54 15 101.5t44 82.5t70 55t94 20q42 0 72.5 -15t50 -41.5t29 -63.5t9.5 -81q0 -14 -1 -27t-3 -24h-319z
M377 274q3 29 -0.5 59.5t-16 56t-36 41.5t-60.5 16q-33 0 -59 -13t-45.5 -36t-31 -55t-14.5 -69h263zM162 644q17 0 28 -9.5t11 -28.5q0 -20 -10.5 -30t-28.5 -10q-39 0 -39 39q0 18 10.5 28.5t28.5 10.5zM363 644q17 0 28 -9.5t11 -28.5q0 -20 -10.5 -30t-28.5 -10
q-39 0 -39 39q0 18 10.5 28.5t28.5 10.5z" />
    <glyph glyph-name="igrave" unicode="&#xec;" horiz-adv-x="291" 
d="M48 431q2 20 11 34q36 11 82 11q23 0 40 -4v-430q23 -2 44.5 -4.5t38.5 -6.5q2 -8 2 -17t-1 -14h-222q1 8 3.5 16t5.5 14q14 4 32 7.5t39 5.5v388h-75zM41 692q11 6 30 10.5t35 4.5l111 -146q-7 -5 -20.5 -9.5t-24.5 -5.5z" />
    <glyph glyph-name="iacute" unicode="&#xed;" horiz-adv-x="291" 
d="M48 431q2 20 11 34q36 11 82 11q23 0 40 -4v-430q23 -2 44.5 -4.5t38.5 -6.5q2 -8 2 -17t-1 -14h-222q1 8 3.5 16t5.5 14q14 4 32 7.5t39 5.5v388h-75zM130 539q-8 3 -19.5 11.5t-16.5 16.5l113 147q12 -1 29 -9t26 -16z" />
    <glyph glyph-name="icircumflex" unicode="&#xee;" horiz-adv-x="291" 
d="M179 701l114 -132q-5 -8 -15 -16t-21 -12l-108 111l-113 -115q-8 5 -15 15.5t-10 19.5l110 126zM48 431q2 20 11 34q36 11 82 11q23 0 40 -4v-430q23 -2 44.5 -4.5t38.5 -6.5q2 -8 2 -17t-1 -14h-222q1 8 3.5 16t5.5 14q14 4 32 7.5t39 5.5v388h-75z" />
    <glyph glyph-name="idieresis" unicode="&#xef;" horiz-adv-x="291" 
d="M48 431q2 20 11 34q36 11 82 11q23 0 40 -4v-430q23 -2 44.5 -4.5t38.5 -6.5q2 -8 2 -17t-1 -14h-222q1 8 3.5 16t5.5 14q14 4 32 7.5t39 5.5v388h-75zM64 644q17 0 28 -9.5t11 -28.5q0 -20 -10.5 -30t-28.5 -10q-39 0 -39 39q0 18 10.5 28.5t28.5 10.5zM234 644
q17 0 28 -9.5t11 -28.5q0 -20 -10.5 -30t-28.5 -10q-39 0 -39 39q0 18 10.5 28.5t28.5 10.5z" />
    <glyph glyph-name="eth" unicode="&#xf0;" horiz-adv-x="544" 
d="M195 521q-4 8 -6 21t-2 21l97 57q-39 28 -81.5 42.5t-83.5 23.5q3 11 9.5 21.5t14.5 16.5q53 -11 100.5 -29t89.5 -50l100 58q6 -5 13 -15.5t9 -18.5l-89 -51q53 -51 83.5 -129t30.5 -191q0 -65 -11.5 -122.5t-37.5 -100.5t-67.5 -67.5t-101.5 -24.5q-45 0 -82.5 15
t-64 44t-41.5 71t-15 96q0 52 14 97.5t41 79t66 52.5t89 19q51 0 86.5 -17.5t54.5 -37.5h5q-13 66 -38.5 113t-58.5 78zM283 412q-80 0 -123 -52.5t-43 -144.5q0 -88 39 -139t108 -51q44 0 74.5 21.5t49 57t27 82t8.5 96.5q0 16 -1 37t-3 37q-27 26 -59.5 41t-76.5 15z" />
    <glyph glyph-name="ntilde" unicode="&#xf1;" horiz-adv-x="592" 
d="M181 42q20 -2 40 -4.5t35 -6.5q2 -5 2.5 -14.5t-1.5 -16.5h-214q1 8 3.5 16t5.5 14q14 4 32 7.5t39 5.5v388h-75q2 20 11 34q33 11 77 11q21 0 37 -4v-64h8q25 41 69 59t93 18q82 0 114 -45.5t32 -132.5q0 -68 -1 -132t-3 -133q23 -2 45 -4.5t39 -6.5q2 -8 2 -17t-1 -14
h-212q1 8 3.5 16t5.5 14q12 4 28 7.5t35 5.5v257q0 64 -24.5 101.5t-83.5 37.5q-24 0 -46 -6.5t-40.5 -16.5t-32.5 -22.5t-22 -24.5v-327zM424 651q8 -1 17.5 -3t15.5 -6q-6 -33 -29.5 -57t-63.5 -24q-20 0 -35.5 7t-29.5 15.5t-28 15.5t-31 7q-21 0 -36.5 -12.5
t-21.5 -31.5q-20 3 -30 19q9 32 33.5 53t62.5 21q22 0 38 -7t29.5 -15t26.5 -15t30 -7q20 0 33.5 11t18.5 29z" />
    <glyph glyph-name="ograve" unicode="&#xf2;" horiz-adv-x="535" 
d="M268 485q48 0 87.5 -16t68 -46.5t44 -76t15.5 -104.5q0 -125 -58.5 -192t-156.5 -67q-104 0 -160 65.5t-56 193.5q0 57 16 102t44.5 76.5t68 48t87.5 16.5zM112 242q0 -101 40.5 -159t115.5 -58q77 0 116 58.5t39 158.5q0 45 -11 82.5t-31 64t-48.5 41.5t-64.5 15
q-76 0 -116 -55.5t-40 -147.5zM164 692q11 6 30 10.5t35 4.5l111 -146q-7 -5 -20.5 -9.5t-24.5 -5.5z" />
    <glyph glyph-name="oacute" unicode="&#xf3;" horiz-adv-x="535" 
d="M268 485q48 0 87.5 -16t68 -46.5t44 -76t15.5 -104.5q0 -125 -58.5 -192t-156.5 -67q-104 0 -160 65.5t-56 193.5q0 57 16 102t44.5 76.5t68 48t87.5 16.5zM112 242q0 -101 40.5 -159t115.5 -58q77 0 116 58.5t39 158.5q0 45 -11 82.5t-31 64t-48.5 41.5t-64.5 15
q-76 0 -116 -55.5t-40 -147.5zM237 539q-8 3 -19.5 11.5t-16.5 16.5l113 147q12 -1 29 -9t26 -16z" />
    <glyph glyph-name="ocircumflex" unicode="&#xf4;" horiz-adv-x="535" 
d="M268 485q48 0 87.5 -16t68 -46.5t44 -76t15.5 -104.5q0 -125 -58.5 -192t-156.5 -67q-104 0 -160 65.5t-56 193.5q0 57 16 102t44.5 76.5t68 48t87.5 16.5zM112 242q0 -101 40.5 -159t115.5 -58q77 0 116 58.5t39 158.5q0 45 -11 82.5t-31 64t-48.5 41.5t-64.5 15
q-76 0 -116 -55.5t-40 -147.5zM296 701l114 -132q-5 -8 -15 -16t-21 -12l-108 111l-113 -115q-8 5 -15 15.5t-10 19.5l110 126z" />
    <glyph glyph-name="otilde" unicode="&#xf5;" horiz-adv-x="535" 
d="M268 485q48 0 87.5 -16t68 -46.5t44 -76t15.5 -104.5q0 -125 -58.5 -192t-156.5 -67q-104 0 -160 65.5t-56 193.5q0 57 16 102t44.5 76.5t68 48t87.5 16.5zM112 242q0 -101 40.5 -159t115.5 -58q77 0 116 58.5t39 158.5q0 45 -11 82.5t-31 64t-48.5 41.5t-64.5 15
q-76 0 -116 -55.5t-40 -147.5zM388 651q8 -1 17.5 -3t15.5 -6q-6 -33 -29.5 -57t-63.5 -24q-20 0 -35.5 7t-29.5 15.5t-28 15.5t-31 7q-21 0 -36.5 -12.5t-21.5 -31.5q-20 3 -30 19q9 32 33.5 53t62.5 21q22 0 38 -7t29.5 -15t26.5 -15t30 -7q20 0 33.5 11t18.5 29z" />
    <glyph glyph-name="odieresis" unicode="&#xf6;" horiz-adv-x="535" 
d="M268 485q48 0 87.5 -16t68 -46.5t44 -76t15.5 -104.5q0 -125 -58.5 -192t-156.5 -67q-104 0 -160 65.5t-56 193.5q0 57 16 102t44.5 76.5t68 48t87.5 16.5zM112 242q0 -101 40.5 -159t115.5 -58q77 0 116 58.5t39 158.5q0 45 -11 82.5t-31 64t-48.5 41.5t-64.5 15
q-76 0 -116 -55.5t-40 -147.5zM147 644q17 0 28 -9.5t11 -28.5q0 -20 -10.5 -30t-28.5 -10q-39 0 -39 39q0 18 10.5 28.5t28.5 10.5zM390 644q17 0 28 -9.5t11 -28.5q0 -20 -10.5 -30t-28.5 -10q-39 0 -39 39q0 18 10.5 28.5t28.5 10.5z" />
    <glyph glyph-name="divide" unicode="&#xf7;" 
d="M510 286q2 -5 2.5 -13t0.5 -15v-8q0 -4 -1 -9h-457q0 9 2 23t4 22h449zM284 507q18 0 29.5 -11t11.5 -31q0 -21 -11 -32t-30 -11q-43 0 -43 42q0 20 11.5 31.5t31.5 11.5zM284 106q18 0 29.5 -11t11.5 -31q0 -21 -11 -32t-30 -11q-43 0 -43 42q0 20 11.5 31.5t31.5 11.5z
" />
    <glyph glyph-name="oslash" unicode="&#xf8;" horiz-adv-x="547" 
d="M274 485q80 0 133 -42l53 67q9 -3 19 -10t15 -15l-56 -71q26 -31 39.5 -74t13.5 -98q0 -62 -15.5 -110.5t-44 -81.5t-68.5 -50t-89 -17q-89 0 -141 45l-60 -77q-8 7 -15 17.5t-11 19.5l57 72q-23 32 -35.5 77.5t-12.5 104.5q0 57 16 102t45 76.5t69 48t88 16.5zM431 242
q0 38 -8 69.5t-22 57.5l-235 -297q41 -47 108 -47q78 0 117.5 58.5t39.5 158.5zM116 242q0 -83 27 -135l233 295q-20 20 -45.5 31.5t-56.5 11.5q-77 0 -117.5 -55.5t-40.5 -147.5z" />
    <glyph glyph-name="ugrave" unicode="&#xf9;" horiz-adv-x="579" 
d="M407 431h-74q2 20 11 34q36 11 81 11q23 0 40 -4v-361q0 -17 1.5 -35.5t5.5 -35.5h79q1 -2 1 -6v-6q0 -8 -1.5 -14t-3.5 -9q-12 -3 -27 -5.5t-31 -4.5t-31.5 -3.5t-28.5 -1.5q-6 14 -10 30t-6 35h-4q-6 -9 -18 -21.5t-31.5 -23.5t-48 -19t-66.5 -8q-29 0 -55 6.5
t-45.5 26t-31 54.5t-11.5 91q0 70 0.5 134t2.5 136h-77q2 20 11 34q36 11 82 11q23 0 40 -4v-303q0 -34 5 -60t17.5 -43.5t33 -26.5t51.5 -9q48 0 85 20t54 41v340zM179 692q11 6 30 10.5t35 4.5l111 -146q-7 -5 -20.5 -9.5t-24.5 -5.5z" />
    <glyph glyph-name="uacute" unicode="&#xfa;" horiz-adv-x="579" 
d="M407 431h-74q2 20 11 34q36 11 81 11q23 0 40 -4v-361q0 -17 1.5 -35.5t5.5 -35.5h79q1 -2 1 -6v-6q0 -8 -1.5 -14t-3.5 -9q-12 -3 -27 -5.5t-31 -4.5t-31.5 -3.5t-28.5 -1.5q-6 14 -10 30t-6 35h-4q-6 -9 -18 -21.5t-31.5 -23.5t-48 -19t-66.5 -8q-29 0 -55 6.5
t-45.5 26t-31 54.5t-11.5 91q0 70 0.5 134t2.5 136h-77q2 20 11 34q36 11 82 11q23 0 40 -4v-303q0 -34 5 -60t17.5 -43.5t33 -26.5t51.5 -9q48 0 85 20t54 41v340zM253 539q-8 3 -19.5 11.5t-16.5 16.5l113 147q12 -1 29 -9t26 -16z" />
    <glyph glyph-name="ucircumflex" unicode="&#xfb;" horiz-adv-x="579" 
d="M407 431h-74q2 20 11 34q36 11 81 11q23 0 40 -4v-361q0 -17 1.5 -35.5t5.5 -35.5h79q1 -2 1 -6v-6q0 -8 -1.5 -14t-3.5 -9q-12 -3 -27 -5.5t-31 -4.5t-31.5 -3.5t-28.5 -1.5q-6 14 -10 30t-6 35h-4q-6 -9 -18 -21.5t-31.5 -23.5t-48 -19t-66.5 -8q-29 0 -55 6.5
t-45.5 26t-31 54.5t-11.5 91q0 70 0.5 134t2.5 136h-77q2 20 11 34q36 11 82 11q23 0 40 -4v-303q0 -34 5 -60t17.5 -43.5t33 -26.5t51.5 -9q48 0 85 20t54 41v340zM311 701l114 -132q-5 -8 -15 -16t-21 -12l-108 111l-113 -115q-8 5 -15 15.5t-10 19.5l110 126z" />
    <glyph glyph-name="udieresis" unicode="&#xfc;" horiz-adv-x="579" 
d="M407 431h-74q2 20 11 34q36 11 81 11q23 0 40 -4v-361q0 -17 1.5 -35.5t5.5 -35.5h79q1 -2 1 -6v-6q0 -8 -1.5 -14t-3.5 -9q-12 -3 -27 -5.5t-31 -4.5t-31.5 -3.5t-28.5 -1.5q-6 14 -10 30t-6 35h-4q-6 -9 -18 -21.5t-31.5 -23.5t-48 -19t-66.5 -8q-29 0 -55 6.5
t-45.5 26t-31 54.5t-11.5 91q0 70 0.5 134t2.5 136h-77q2 20 11 34q36 11 82 11q23 0 40 -4v-303q0 -34 5 -60t17.5 -43.5t33 -26.5t51.5 -9q48 0 85 20t54 41v340zM180 644q17 0 28 -9.5t11 -28.5q0 -20 -10.5 -30t-28.5 -10q-39 0 -39 39q0 18 10.5 28.5t28.5 10.5z
M381 644q17 0 28 -9.5t11 -28.5q0 -20 -10.5 -30t-28.5 -10q-39 0 -39 39q0 18 10.5 28.5t28.5 10.5z" />
    <glyph glyph-name="yacute" unicode="&#xfd;" horiz-adv-x="492" 
d="M260 32q5 22 12 48t14 46l69 207q8 23 17.5 48t18.5 44l-38 4q-19 2 -33 6q-2 6 -4 15.5t-2 17.5h174q0 -8 -2.5 -18.5t-4.5 -16.5q-10 -3 -22.5 -5t-23.5 -3l-58 -171q-12 -35 -25 -73t-27 -76t-28 -73.5t-27 -65.5q-19 -40 -39.5 -71.5t-44.5 -55.5t-53 -42.5
t-65 -32.5q-18 18 -23 50q68 21 113.5 66.5t67.5 100.5l-164 441q-14 2 -28 5.5t-24 7.5q-5 13 -7 33h200q0 -16 -5 -33q-16 -3 -38.5 -5.5t-43.5 -3.5q10 -20 20 -45t18 -48l76 -210q7 -18 13 -43.5t10 -47.5h7zM230 539q-8 3 -19.5 11.5t-16.5 16.5l113 147q12 -1 29 -9
t26 -16z" />
    <glyph glyph-name="thorn" unicode="&#xfe;" horiz-adv-x="540" 
d="M151 417q20 29 54.5 48.5t92.5 19.5q34 0 68 -12t61 -39.5t43.5 -72t16.5 -108.5t-17 -114.5t-48.5 -85t-76 -52.5t-99.5 -18q-27 0 -54 5.5t-44 16.5v-191q26 -2 51 -4.5t44 -6.5q2 -5 2.5 -14.5t-1.5 -16.5h-234q1 8 3.5 16t5.5 14q14 4 32 7.5t39 5.5v868h-73
q2 20 11 34q36 11 81 11q22 0 39 -4v-208q0 -26 -1 -49.5t-3 -49.5h7zM147 42q20 -8 43.5 -12.5t49.5 -4.5q50 0 85.5 16t58 44.5t33 68t10.5 86.5q0 97 -39 148.5t-108 51.5q-50 0 -82.5 -21t-50.5 -45v-332z" />
    <glyph glyph-name="ydieresis" unicode="&#xff;" horiz-adv-x="492" 
d="M260 32q5 22 12 48t14 46l69 207q8 23 17.5 48t18.5 44l-38 4q-19 2 -33 6q-2 6 -4 15.5t-2 17.5h174q0 -8 -2.5 -18.5t-4.5 -16.5q-10 -3 -22.5 -5t-23.5 -3l-58 -171q-12 -35 -25 -73t-27 -76t-28 -73.5t-27 -65.5q-19 -40 -39.5 -71.5t-44.5 -55.5t-53 -42.5
t-65 -32.5q-18 18 -23 50q68 21 113.5 66.5t67.5 100.5l-164 441q-14 2 -28 5.5t-24 7.5q-5 13 -7 33h200q0 -16 -5 -33q-16 -3 -38.5 -5.5t-43.5 -3.5q10 -20 20 -45t18 -48l76 -210q7 -18 13 -43.5t10 -47.5h7zM159 644q17 0 28 -9.5t11 -28.5q0 -20 -10.5 -30t-28.5 -10
q-39 0 -39 39q0 18 10.5 28.5t28.5 10.5zM360 644q17 0 28 -9.5t11 -28.5q0 -20 -10.5 -30t-28.5 -10q-39 0 -39 39q0 18 10.5 28.5t28.5 10.5z" />
    <glyph glyph-name="Amacron" unicode="&#x100;" horiz-adv-x="708" 
d="M469 0q1 8 4 19t5 16q17 4 41 6.5t43 3.5q-12 22 -22.5 45.5t-18.5 46.5l-36 99h-275l-36 -101q-8 -23 -17.5 -46.5t-20.5 -44.5q22 -1 46 -3t45 -6q2 -6 4 -16.5t2 -18.5h-221q1 8 4 18.5t6 16.5q12 3 28 5t34 4l244 656h51l242 -655q32 -2 63 -8q2 -6 4.5 -17.5
t2.5 -19.5h-222zM345 636q-5 -26 -14.5 -58t-19.5 -58l-87 -244h246l-89 247q-9 25 -17 54.5t-13 58.5h-6zM502 825q2 -5 2.5 -13.5t0.5 -16.5v-8q0 -4 -1 -9h-312q0 10 2 24.5t4 22.5h304z" />
    <glyph glyph-name="amacron" unicode="&#x101;" horiz-adv-x="488" 
d="M332 47q-23 -33 -60.5 -48.5t-78.5 -15.5q-28 0 -54 7.5t-46 23.5t-32 41t-12 60q0 38 14.5 66.5t40 47.5t59 28.5t71.5 9.5q26 0 51.5 -4t44.5 -12v49q0 72 -24 105t-80 33q-17 0 -36 -3.5t-38 -9.5t-36 -14t-30 -17q-4 9 -4 24q0 10 2.5 19.5t5.5 14.5q12 7 29.5 13
t38 10.5t41.5 7t40 2.5q38 0 66 -9.5t46 -30.5t27 -55t9 -84v-218q0 -17 3.5 -32t8.5 -23q15 1 35 4t37 7q1 -3 1 -9q0 -17 -7 -27q-7 -4 -19.5 -8t-26.5 -7.5t-28 -6t-24 -2.5q-11 11 -20 28t-11 35h-4zM331 217q-18 5 -40.5 8.5t-45.5 3.5q-66 0 -101.5 -29t-35.5 -77
q0 -49 31 -71.5t74 -22.5q33 0 67 14t51 43v131zM357 625q2 -5 2.5 -12.5t0.5 -14.5v-7q0 -4 -1 -9h-258q0 9 2 22.5t4 20.5h250z" />
    <glyph glyph-name="Abreve" unicode="&#x102;" horiz-adv-x="708" 
d="M469 0q1 8 4 19t5 16q17 4 41 6.5t43 3.5q-12 22 -22.5 45.5t-18.5 46.5l-36 99h-275l-36 -101q-8 -23 -17.5 -46.5t-20.5 -44.5q22 -1 46 -3t45 -6q2 -6 4 -16.5t2 -18.5h-221q1 8 4 18.5t6 16.5q12 3 28 5t34 4l244 656h51l242 -655q32 -2 63 -8q2 -6 4.5 -17.5
t2.5 -19.5h-222zM345 636q-5 -26 -14.5 -58t-19.5 -58l-87 -244h246l-89 247q-9 25 -17 54.5t-13 58.5h-6zM233 883q9 -41 38.5 -60.5t74.5 -19.5q94 0 117 77q12 0 25 -3t22 -8q-12 -52 -55 -83t-112 -31q-66 0 -106.5 29t-49.5 77q7 8 20 14t26 8z" />
    <glyph glyph-name="abreve" unicode="&#x103;" horiz-adv-x="488" 
d="M332 47q-23 -33 -60.5 -48.5t-78.5 -15.5q-28 0 -54 7.5t-46 23.5t-32 41t-12 60q0 38 14.5 66.5t40 47.5t59 28.5t71.5 9.5q26 0 51.5 -4t44.5 -12v49q0 72 -24 105t-80 33q-17 0 -36 -3.5t-38 -9.5t-36 -14t-30 -17q-4 9 -4 24q0 10 2.5 19.5t5.5 14.5q12 7 29.5 13
t38 10.5t41.5 7t40 2.5q38 0 66 -9.5t46 -30.5t27 -55t9 -84v-218q0 -17 3.5 -32t8.5 -23q15 1 35 4t37 7q1 -3 1 -9q0 -17 -7 -27q-7 -4 -19.5 -8t-26.5 -7.5t-28 -6t-24 -2.5q-11 11 -20 28t-11 35h-4zM331 217q-18 5 -40.5 8.5t-45.5 3.5q-66 0 -101.5 -29t-35.5 -77
q0 -49 31 -71.5t74 -22.5q33 0 67 14t51 43v131zM127 691q8 -54 34 -78.5t67 -24.5q80 0 103 101q11 -1 21 -3t18 -6q-8 -61 -44.5 -99t-99.5 -38q-62 0 -96 34t-42 95q7 7 17.5 12t21.5 7z" />
    <glyph glyph-name="Aogonek" unicode="&#x104;" horiz-adv-x="708" 
d="M608 0q-51 -26 -74.5 -54.5t-23.5 -63.5q0 -38 23.5 -56.5t55.5 -18.5q7 0 15.5 0.5t14.5 2.5q3 -6 5.5 -16.5t3.5 -18.5q-10 -4 -25 -5.5t-26 -1.5q-23 0 -45 6.5t-38.5 20t-26.5 34t-10 47.5q0 35 23 68.5t78 51.5v4h-89q1 8 4 19t5 16q17 4 41 6.5t43 3.5
q-12 22 -22.5 45.5t-18.5 46.5l-36 99h-275l-36 -101q-8 -23 -17.5 -46.5t-20.5 -44.5q22 -1 46 -3t45 -6q2 -6 4 -16.5t2 -18.5h-221q1 8 4 18.5t6 16.5q12 3 28 5t34 4l244 656h51l242 -655q32 -2 63 -8q2 -6 4.5 -17.5t2.5 -19.5h-83zM345 636q-5 -26 -14.5 -58
t-19.5 -58l-87 -244h246l-89 247q-9 25 -17 54.5t-13 58.5h-6z" />
    <glyph glyph-name="aogonek" unicode="&#x105;" horiz-adv-x="488" 
d="M332 47q-23 -33 -60.5 -48.5t-78.5 -15.5q-28 0 -54 7.5t-46 23.5t-32 41t-12 60q0 38 14.5 66.5t40 47.5t59 28.5t71.5 9.5q26 0 51.5 -4t44.5 -12v49q0 72 -24 105t-80 33q-17 0 -36 -3.5t-38 -9.5t-36 -14t-30 -17q-4 9 -4 24q0 10 2.5 19.5t5.5 14.5q12 7 29.5 13
t38 10.5t41.5 7t40 2.5q38 0 66 -9.5t46 -30.5t27 -55t9 -84v-218q0 -17 3.5 -32t8.5 -23q15 1 35 4t37 7q1 -3 1 -9q0 -16 -7 -26q-3 -2 -9 -5t-11 -5q-15 -6 -32 -15t-30.5 -21t-22.5 -28t-9 -37q0 -35 20 -51t46 -16q8 0 15.5 1t14.5 3q4 -6 6 -17t2 -19q-10 -4 -24 -5.5
t-26 -1.5q-21 0 -40 6t-33.5 18.5t-23.5 31t-9 42.5q0 28 16.5 53t48.5 42v4q-23 22 -28 58h-4zM331 217q-18 5 -40.5 8.5t-45.5 3.5q-66 0 -101.5 -29t-35.5 -77q0 -49 31 -71.5t74 -22.5q33 0 67 14t51 43v131z" />
    <glyph glyph-name="Cacute" unicode="&#x106;" horiz-adv-x="597" 
d="M497 640q-55 23 -120 23q-55 0 -103 -19.5t-83.5 -59t-56 -99.5t-20.5 -142q0 -78 18.5 -136.5t51 -97.5t77.5 -58.5t98 -19.5q54 0 102.5 11t86.5 25q0 -8 -3 -22t-7 -21q-38 -19 -87.5 -31.5t-110.5 -12.5q-67 0 -120.5 26t-91.5 72.5t-58.5 112t-20.5 144.5
q0 90 26.5 159.5t71.5 116.5t105.5 71t129.5 24q50 0 92.5 -9t77.5 -26q0 -38 -2 -77.5t-7 -73.5q-10 0 -23.5 2t-22.5 7v111zM308 740q-3 8 -5 22t-2 24l198 96q9 -10 16.5 -23.5t12.5 -27.5z" />
    <glyph glyph-name="cacute" unicode="&#x107;" horiz-adv-x="461" 
d="M364 428q-21 11 -38.5 14.5t-37.5 3.5q-77 0 -124.5 -50t-47.5 -157t46 -158t124 -51q33 0 66.5 7.5t57.5 17.5q0 -8 -2.5 -19.5t-7.5 -19.5q-22 -12 -58.5 -22.5t-78.5 -10.5q-49 0 -88 17.5t-66 49.5t-41.5 77t-14.5 100q0 58 16.5 106t47.5 81.5t75 52t99 18.5
q75 0 122 -33q2 -8 2 -18v-17q0 -20 -2.5 -39t-7.5 -36q-8 0 -20.5 1.5t-20.5 6.5v78zM251 539q-8 3 -19.5 11.5t-16.5 16.5l113 147q12 -1 29 -9t26 -16z" />
    <glyph glyph-name="Ccircumflex" unicode="&#x108;" horiz-adv-x="597" 
d="M497 640q-55 23 -120 23q-55 0 -103 -19.5t-83.5 -59t-56 -99.5t-20.5 -142q0 -78 18.5 -136.5t51 -97.5t77.5 -58.5t98 -19.5q54 0 102.5 11t86.5 25q0 -8 -3 -22t-7 -21q-38 -19 -87.5 -31.5t-110.5 -12.5q-67 0 -120.5 26t-91.5 72.5t-58.5 112t-20.5 144.5
q0 90 26.5 159.5t71.5 116.5t105.5 71t129.5 24q50 0 92.5 -9t77.5 -26q0 -38 -2 -77.5t-7 -73.5q-10 0 -23.5 2t-22.5 7v111zM406 878l126 -97q-5 -9 -12 -18.5t-15 -14.5l-137 83l-142 -86q-5 8 -9.5 19.5t-6.5 19.5l126 94h70z" />
    <glyph glyph-name="ccircumflex" unicode="&#x109;" horiz-adv-x="461" 
d="M364 428q-21 11 -38.5 14.5t-37.5 3.5q-77 0 -124.5 -50t-47.5 -157t46 -158t124 -51q33 0 66.5 7.5t57.5 17.5q0 -8 -2.5 -19.5t-7.5 -19.5q-22 -12 -58.5 -22.5t-78.5 -10.5q-49 0 -88 17.5t-66 49.5t-41.5 77t-14.5 100q0 58 16.5 106t47.5 81.5t75 52t99 18.5
q75 0 122 -33q2 -8 2 -18v-17q0 -20 -2.5 -39t-7.5 -36q-8 0 -20.5 1.5t-20.5 6.5v78zM306 701l114 -132q-5 -8 -15 -16t-21 -12l-108 111l-113 -115q-8 5 -15 15.5t-10 19.5l110 126z" />
    <glyph glyph-name="Cdotaccent" unicode="&#x10a;" horiz-adv-x="597" 
d="M497 640q-55 23 -120 23q-55 0 -103 -19.5t-83.5 -59t-56 -99.5t-20.5 -142q0 -78 18.5 -136.5t51 -97.5t77.5 -58.5t98 -19.5q54 0 102.5 11t86.5 25q0 -8 -3 -22t-7 -21q-38 -19 -87.5 -31.5t-110.5 -12.5q-67 0 -120.5 26t-91.5 72.5t-58.5 112t-20.5 144.5
q0 90 26.5 159.5t71.5 116.5t105.5 71t129.5 24q50 0 92.5 -9t77.5 -26q0 -38 -2 -77.5t-7 -73.5q-10 0 -23.5 2t-22.5 7v111zM369 848q20 0 31.5 -10.5t11.5 -31.5q0 -44 -43 -44t-43 43t43 43z" />
    <glyph glyph-name="cdotaccent" unicode="&#x10b;" horiz-adv-x="461" 
d="M364 428q-21 11 -38.5 14.5t-37.5 3.5q-77 0 -124.5 -50t-47.5 -157t46 -158t124 -51q33 0 66.5 7.5t57.5 17.5q0 -8 -2.5 -19.5t-7.5 -19.5q-22 -12 -58.5 -22.5t-78.5 -10.5q-49 0 -88 17.5t-66 49.5t-41.5 77t-14.5 100q0 58 16.5 106t47.5 81.5t75 52t99 18.5
q75 0 122 -33q2 -8 2 -18v-17q0 -20 -2.5 -39t-7.5 -36q-8 0 -20.5 1.5t-20.5 6.5v78zM279 646q18 0 29.5 -10t11.5 -30t-11 -31t-30 -11q-41 0 -41 41q0 19 11 30t30 11z" />
    <glyph glyph-name="Ccaron" unicode="&#x10c;" horiz-adv-x="597" 
d="M497 640q-55 23 -120 23q-55 0 -103 -19.5t-83.5 -59t-56 -99.5t-20.5 -142q0 -78 18.5 -136.5t51 -97.5t77.5 -58.5t98 -19.5q54 0 102.5 11t86.5 25q0 -8 -3 -22t-7 -21q-38 -19 -87.5 -31.5t-110.5 -12.5q-67 0 -120.5 26t-91.5 72.5t-58.5 112t-20.5 144.5
q0 90 26.5 159.5t71.5 116.5t105.5 71t129.5 24q50 0 92.5 -9t77.5 -26q0 -38 -2 -77.5t-7 -73.5q-10 0 -23.5 2t-22.5 7v111zM326 753l-128 104q7 8 19 14.5t23 8.5l129 -80l129 81q9 -4 17.5 -11.5t14.5 -15.5l-131 -101h-73z" />
    <glyph glyph-name="ccaron" unicode="&#x10d;" horiz-adv-x="461" 
d="M364 428q-21 11 -38.5 14.5t-37.5 3.5q-77 0 -124.5 -50t-47.5 -157t46 -158t124 -51q33 0 66.5 7.5t57.5 17.5q0 -8 -2.5 -19.5t-7.5 -19.5q-22 -12 -58.5 -22.5t-78.5 -10.5q-49 0 -88 17.5t-66 49.5t-41.5 77t-14.5 100q0 58 16.5 106t47.5 81.5t75 52t99 18.5
q75 0 122 -33q2 -8 2 -18v-17q0 -20 -2.5 -39t-7.5 -36q-8 0 -20.5 1.5t-20.5 6.5v78zM245 538l-119 143q7 6 19 11t23 7l111 -113l109 115q9 -2 18.5 -8.5t14.5 -13.5l-119 -138z" />
    <glyph glyph-name="Dcaron" unicode="&#x10e;" horiz-adv-x="667" 
d="M128 639q-19 0 -39.5 0.5t-37.5 2.5q-2 7 -3 19t0 20q57 5 120.5 8.5t115.5 3.5q74 0 137.5 -21.5t110 -65.5t72.5 -110t26 -154q0 -89 -25.5 -154t-69 -107.5t-100.5 -63t-121 -20.5t-136.5 1t-141.5 4q1 8 3.5 18.5t4.5 16.5q15 4 39.5 6.5t44.5 3.5v592zM189 42
q26 -2 53 -2h52q62 0 112.5 18t86 55t54.5 92t19 130q0 81 -21.5 140.5t-60.5 98.5t-93 58t-118 19q-19 0 -43 -0.5t-41 -2.5v-606zM288 753l-128 104q7 8 19 14.5t23 8.5l129 -80l129 81q9 -4 17.5 -11.5t14.5 -15.5l-131 -101h-73z" />
    <glyph glyph-name="dcaron" unicode="&#x10f;" horiz-adv-x="557" 
d="M388 683h-73q2 20 11 34q36 11 81 11q22 0 39 -4v-613q0 -18 1 -36.5t6 -34.5h78q1 -2 1 -6v-6q0 -8 -1.5 -14t-3.5 -9q-12 -3 -26.5 -5.5t-30.5 -4.5t-31 -3.5t-28 -1.5q-7 12 -11 28.5t-6 32.5h-4q-20 -26 -55.5 -47t-94.5 -21q-34 0 -67.5 12t-60 39.5t-43 71.5
t-16.5 109q0 64 17 114.5t48 85t74.5 52.5t96.5 18q29 0 55 -5.5t44 -16.5v220zM389 427q-20 7 -43.5 11.5t-50.5 4.5q-48 0 -82.5 -16t-56.5 -44.5t-32 -68t-10 -85.5q0 -97 38 -148t104 -51q51 0 82.5 19t50.5 42v336zM500 678q2 9 7.5 19.5t10.5 16.5q15 3 33 3
q10 0 22 -2t20 -6q-4 -21 -12 -46t-17.5 -49t-19.5 -45.5t-18 -34.5q-10 2 -18.5 6.5t-13.5 9.5q5 13 10.5 29t11 32.5t9.5 32.5l7 28z" />
    <glyph glyph-name="Dcroat" unicode="&#x110;" horiz-adv-x="679" 
d="M140 367v272q-19 0 -39.5 0.5t-37.5 2.5q-2 7 -3 19t0 20q57 5 120.5 8.5t115.5 3.5q74 0 137.5 -21.5t110 -65.5t72.5 -110t26 -154q0 -89 -25.5 -154t-69 -107.5t-100.5 -63t-121 -20.5t-136.5 1t-141.5 4q1 8 3.5 18.5t4.5 16.5q15 4 39.5 6.5t44.5 3.5v278h-87
q0 10 2 22.5t5 19.5h80zM201 367h202q2 -9 2.5 -21.5t-1.5 -20.5h-203v-283q26 -2 53 -2h52q62 0 112.5 18t86 55t54.5 92t19 130q0 81 -21.5 140.5t-60.5 98.5t-93 58t-118 19q-19 0 -43 -0.5t-41 -2.5v-281z" />
    <glyph glyph-name="dcroat" unicode="&#x111;" horiz-adv-x="566" 
d="M391 605v78h-73q2 20 11 34q36 11 81 11q22 0 39 -4v-119h77q2 -8 2.5 -19.5t-1.5 -18.5h-78v-456q0 -18 1 -36.5t6 -34.5h78q1 -2 1 -6v-6q0 -8 -1.5 -14t-3.5 -9q-12 -3 -26.5 -5.5t-30.5 -4.5t-31 -3.5t-28 -1.5q-7 12 -11 28.5t-6 32.5h-4q-20 -26 -55.5 -47
t-94.5 -21q-34 0 -67.5 12t-60 39.5t-43 71.5t-16.5 109q0 64 17 114.5t48 85t74.5 52.5t96.5 18q29 0 55 -5.5t44 -16.5v104h-167q0 9 2 20.5t4 17.5h161zM392 427q-20 7 -43.5 11.5t-50.5 4.5q-48 0 -82.5 -16t-56.5 -44.5t-32 -68t-10 -85.5q0 -97 38 -148t104 -51
q51 0 82.5 19t50.5 42v336z" />
    <glyph glyph-name="Emacron" unicode="&#x112;" horiz-adv-x="560" 
d="M38 0q2 19 8 35q15 4 39 6.5t43 3.5v597q-23 1 -42.5 3t-33.5 4q-2 8 -3 18.5t0 18.5h453v-131q-9 0 -20.5 1t-18.5 3q-3 17 -5.5 41.5t-3.5 44.5h-265v-277h216q1 14 3 31.5t5 30.5q7 2 18.5 3.5t19.5 1.5v-176q-8 -1 -19.5 0t-19.5 3q-2 13 -4 31t-3 34h-216v-284h272
q1 23 3.5 48t5.5 44q8 2 20.5 3.5t21.5 1.5v-140h-474zM453 825q2 -5 2.5 -13.5t0.5 -16.5v-8q0 -4 -1 -9h-312q0 10 2 24.5t4 22.5h304z" />
    <glyph glyph-name="emacron" unicode="&#x113;" horiz-adv-x="484" 
d="M113 233q1 -103 50.5 -153t127.5 -50q38 0 73.5 9t64.5 22q1 -9 -1.5 -20t-7.5 -19q-23 -14 -63 -26.5t-86 -12.5q-52 0 -93 18t-69 50.5t-42.5 77t-14.5 97.5q0 54 15 101.5t44 82.5t70 55t94 20q42 0 72.5 -15t50 -41.5t29 -63.5t9.5 -81q0 -14 -1 -27t-3 -24h-319z
M377 274q3 29 -0.5 59.5t-16 56t-36 41.5t-60.5 16q-33 0 -59 -13t-45.5 -36t-31 -55t-14.5 -69h263zM389 625q2 -5 2.5 -12.5t0.5 -14.5v-7q0 -4 -1 -9h-258q0 9 2 22.5t4 20.5h250z" />
    <glyph glyph-name="Ebreve" unicode="&#x114;" horiz-adv-x="560" 
d="M38 0q2 19 8 35q15 4 39 6.5t43 3.5v597q-23 1 -42.5 3t-33.5 4q-2 8 -3 18.5t0 18.5h453v-131q-9 0 -20.5 1t-18.5 3q-3 17 -5.5 41.5t-3.5 44.5h-265v-277h216q1 14 3 31.5t5 30.5q7 2 18.5 3.5t19.5 1.5v-176q-8 -1 -19.5 0t-19.5 3q-2 13 -4 31t-3 34h-216v-284h272
q1 23 3.5 48t5.5 44q8 2 20.5 3.5t21.5 1.5v-140h-474zM184 883q9 -41 38.5 -60.5t74.5 -19.5q94 0 117 77q12 0 25 -3t22 -8q-12 -52 -55 -83t-112 -31q-66 0 -106.5 29t-49.5 77q7 8 20 14t26 8z" />
    <glyph glyph-name="ebreve" unicode="&#x115;" horiz-adv-x="484" 
d="M113 233q1 -103 50.5 -153t127.5 -50q38 0 73.5 9t64.5 22q1 -9 -1.5 -20t-7.5 -19q-23 -14 -63 -26.5t-86 -12.5q-52 0 -93 18t-69 50.5t-42.5 77t-14.5 97.5q0 54 15 101.5t44 82.5t70 55t94 20q42 0 72.5 -15t50 -41.5t29 -63.5t9.5 -81q0 -14 -1 -27t-3 -24h-319z
M377 274q3 29 -0.5 59.5t-16 56t-36 41.5t-60.5 16q-33 0 -59 -13t-45.5 -36t-31 -55t-14.5 -69h263zM161 691q8 -54 34 -78.5t67 -24.5q80 0 103 101q11 -1 21 -3t18 -6q-8 -61 -44.5 -99t-99.5 -38q-62 0 -96 34t-42 95q7 7 17.5 12t21.5 7z" />
    <glyph glyph-name="Edotaccent" unicode="&#x116;" horiz-adv-x="560" 
d="M38 0q2 19 8 35q15 4 39 6.5t43 3.5v597q-23 1 -42.5 3t-33.5 4q-2 8 -3 18.5t0 18.5h453v-131q-9 0 -20.5 1t-18.5 3q-3 17 -5.5 41.5t-3.5 44.5h-265v-277h216q1 14 3 31.5t5 30.5q7 2 18.5 3.5t19.5 1.5v-176q-8 -1 -19.5 0t-19.5 3q-2 13 -4 31t-3 34h-216v-284h272
q1 23 3.5 48t5.5 44q8 2 20.5 3.5t21.5 1.5v-140h-474zM299 848q20 0 31.5 -10.5t11.5 -31.5q0 -44 -43 -44t-43 43t43 43z" />
    <glyph glyph-name="edotaccent" unicode="&#x117;" horiz-adv-x="484" 
d="M113 233q1 -103 50.5 -153t127.5 -50q38 0 73.5 9t64.5 22q1 -9 -1.5 -20t-7.5 -19q-23 -14 -63 -26.5t-86 -12.5q-52 0 -93 18t-69 50.5t-42.5 77t-14.5 97.5q0 54 15 101.5t44 82.5t70 55t94 20q42 0 72.5 -15t50 -41.5t29 -63.5t9.5 -81q0 -14 -1 -27t-3 -24h-319z
M377 274q3 29 -0.5 59.5t-16 56t-36 41.5t-60.5 16q-33 0 -59 -13t-45.5 -36t-31 -55t-14.5 -69h263zM263 646q18 0 29.5 -10t11.5 -30t-11 -31t-30 -11q-41 0 -41 41q0 19 11 30t30 11z" />
    <glyph glyph-name="Eogonek" unicode="&#x118;" horiz-adv-x="560" 
d="M482 0q-51 -26 -74.5 -54.5t-23.5 -63.5q0 -38 23.5 -56.5t55.5 -18.5q7 0 15.5 0.5t14.5 2.5q3 -6 5.5 -16.5t3.5 -18.5q-10 -3 -25 -5t-26 -2q-23 0 -45 6.5t-38.5 20t-26.5 34t-10 47.5q0 35 23 68.5t78 51.5v4h-394q2 19 8 35q15 4 39 6.5t43 3.5v597q-23 1 -42.5 3
t-33.5 4q-2 8 -3 18.5t0 18.5h453v-131q-9 0 -20.5 1t-18.5 3q-3 17 -5.5 41.5t-3.5 44.5h-265v-277h216q1 14 3 31.5t5 30.5q7 2 18.5 3.5t19.5 1.5v-176q-8 -1 -19.5 0t-19.5 3q-2 13 -4 31t-3 34h-216v-284h272q1 23 3.5 48t5.5 44q8 2 20.5 3.5t21.5 1.5v-140h-30z" />
    <glyph glyph-name="eogonek" unicode="&#x119;" horiz-adv-x="484" 
d="M295 -15q-6 -1 -13 -1h-11q-52 0 -93 18t-69 50t-42.5 76.5t-14.5 97.5q0 54 15 101.5t44 82.5t70 55t94 20q42 0 72.5 -15t50 -41.5t29 -63.5t9.5 -81q0 -14 -1 -27t-3 -24h-319q1 -103 50.5 -153t127.5 -50q38 0 73.5 9t64.5 22q1 -9 -1.5 -20t-7.5 -19
q-15 -8 -37 -18.5t-42.5 -25t-35.5 -34t-15 -46.5q0 -35 20 -51t46 -16q8 0 15.5 1t14.5 3q4 -6 6 -17t2 -19q-10 -4 -24 -5.5t-26 -1.5q-21 0 -40 6t-33.5 18.5t-23.5 31t-9 42.5q0 26 14 50t43 41v4zM377 274q3 29 -0.5 59.5t-16 56t-36 41.5t-60.5 16q-33 0 -59 -13
t-45.5 -36t-31 -55t-14.5 -69h263z" />
    <glyph glyph-name="Ecaron" unicode="&#x11a;" horiz-adv-x="560" 
d="M38 0q2 19 8 35q15 4 39 6.5t43 3.5v597q-23 1 -42.5 3t-33.5 4q-2 8 -3 18.5t0 18.5h453v-131q-9 0 -20.5 1t-18.5 3q-3 17 -5.5 41.5t-3.5 44.5h-265v-277h216q1 14 3 31.5t5 30.5q7 2 18.5 3.5t19.5 1.5v-176q-8 -1 -19.5 0t-19.5 3q-2 13 -4 31t-3 34h-216v-284h272
q1 23 3.5 48t5.5 44q8 2 20.5 3.5t21.5 1.5v-140h-474zM257 753l-128 104q7 8 19 14.5t23 8.5l129 -80l129 81q9 -4 17.5 -11.5t14.5 -15.5l-131 -101h-73z" />
    <glyph glyph-name="ecaron" unicode="&#x11b;" horiz-adv-x="484" 
d="M113 233q1 -103 50.5 -153t127.5 -50q38 0 73.5 9t64.5 22q1 -9 -1.5 -20t-7.5 -19q-23 -14 -63 -26.5t-86 -12.5q-52 0 -93 18t-69 50.5t-42.5 77t-14.5 97.5q0 54 15 101.5t44 82.5t70 55t94 20q42 0 72.5 -15t50 -41.5t29 -63.5t9.5 -81q0 -14 -1 -27t-3 -24h-319z
M377 274q3 29 -0.5 59.5t-16 56t-36 41.5t-60.5 16q-33 0 -59 -13t-45.5 -36t-31 -55t-14.5 -69h263zM229 540l-119 143q7 6 19 11t23 7l111 -113l109 115q9 -2 18.5 -8.5t14.5 -13.5l-119 -138z" />
    <glyph glyph-name="Gcircumflex" unicode="&#x11c;" horiz-adv-x="681" 
d="M577 22q-18 -7 -43 -14.5t-54.5 -13.5t-61.5 -10t-64 -4q-72 0 -129 24.5t-96 69.5t-59.5 109t-20.5 144q0 91 25.5 161.5t72 119t110 73.5t140.5 25q54 0 100 -11t84 -35q0 -34 -2.5 -73t-7.5 -69q-9 0 -23 2.5t-22 6.5v104q-32 18 -66 25.5t-70 7.5q-57 0 -107 -20
t-88 -60.5t-60 -102t-22 -145.5q0 -78 19 -136t53.5 -96.5t82.5 -57t106 -18.5q39 0 76.5 6t67.5 14v237q-35 0 -77 2t-76 5q-3 9 -4 19.5t-1 20.5h304q-1 -10 -2.5 -20t-4.5 -20q-17 -3 -38.5 -4.5t-41.5 -2.5v-263zM417 878l126 -97q-5 -9 -12 -18.5t-15 -14.5l-137 83
l-142 -86q-5 8 -9.5 19.5t-6.5 19.5l126 94h70z" />
    <glyph glyph-name="gcircumflex" unicode="&#x11d;" horiz-adv-x="513" 
d="M126 22q-20 8 -31.5 25t-11.5 43q0 24 12 45t34 34v4q-59 42 -59 141q0 40 13 71.5t37 53.5t57 34t73 12q58 0 98 -23q16 6 38 10t51 4q26 0 43 -6q3 -7 5 -18.5t2 -20.5h-102q20 -20 31.5 -49.5t11.5 -67.5q0 -84 -48 -130t-130 -46q-25 0 -47.5 4t-40.5 12
q-10 -8 -16.5 -21t-6.5 -30q0 -36 41.5 -45t117.5 -9q40 0 75 -5.5t60.5 -19.5t40 -38.5t14.5 -63.5q0 -42 -18.5 -73.5t-50 -53t-74 -32t-89.5 -10.5q-41 0 -80 8.5t-69 26t-48 44.5t-18 65q0 50 26 80t59 41v4zM168 8q-37 -14 -54 -40.5t-17 -58.5q0 -31 14.5 -52.5
t38.5 -35.5t54 -20.5t61 -6.5q33 0 63 7t53.5 22t37 37t13.5 52q0 44 -32.5 65t-114.5 21q-35 0 -64.5 2t-52.5 8zM128 314q0 -64 31.5 -101t90.5 -37q60 0 90 37t30 101q0 60 -32.5 96.5t-87.5 36.5q-61 0 -91.5 -35.5t-30.5 -97.5zM282 701l114 -132q-5 -8 -15 -16
t-21 -12l-108 111l-113 -115q-8 5 -15 15.5t-10 19.5l110 126z" />
    <glyph glyph-name="Gbreve" unicode="&#x11e;" horiz-adv-x="681" 
d="M577 22q-18 -7 -43 -14.5t-54.5 -13.5t-61.5 -10t-64 -4q-72 0 -129 24.5t-96 69.5t-59.5 109t-20.5 144q0 91 25.5 161.5t72 119t110 73.5t140.5 25q54 0 100 -11t84 -35q0 -34 -2.5 -73t-7.5 -69q-9 0 -23 2.5t-22 6.5v104q-32 18 -66 25.5t-70 7.5q-57 0 -107 -20
t-88 -60.5t-60 -102t-22 -145.5q0 -78 19 -136t53.5 -96.5t82.5 -57t106 -18.5q39 0 76.5 6t67.5 14v237q-35 0 -77 2t-76 5q-3 9 -4 19.5t-1 20.5h304q-1 -10 -2.5 -20t-4.5 -20q-17 -3 -38.5 -4.5t-41.5 -2.5v-263zM264 883q9 -41 38.5 -60.5t74.5 -19.5q94 0 117 77
q12 0 25 -3t22 -8q-12 -52 -55 -83t-112 -31q-66 0 -106.5 29t-49.5 77q7 8 20 14t26 8z" />
    <glyph glyph-name="gbreve" unicode="&#x11f;" horiz-adv-x="513" 
d="M126 22q-20 8 -31.5 25t-11.5 43q0 24 12 45t34 34v4q-59 42 -59 141q0 40 13 71.5t37 53.5t57 34t73 12q58 0 98 -23q16 6 38 10t51 4q26 0 43 -6q3 -7 5 -18.5t2 -20.5h-102q20 -20 31.5 -49.5t11.5 -67.5q0 -84 -48 -130t-130 -46q-25 0 -47.5 4t-40.5 12
q-10 -8 -16.5 -21t-6.5 -30q0 -36 41.5 -45t117.5 -9q40 0 75 -5.5t60.5 -19.5t40 -38.5t14.5 -63.5q0 -42 -18.5 -73.5t-50 -53t-74 -32t-89.5 -10.5q-41 0 -80 8.5t-69 26t-48 44.5t-18 65q0 50 26 80t59 41v4zM168 8q-37 -14 -54 -40.5t-17 -58.5q0 -31 14.5 -52.5
t38.5 -35.5t54 -20.5t61 -6.5q33 0 63 7t53.5 22t37 37t13.5 52q0 44 -32.5 65t-114.5 21q-35 0 -64.5 2t-52.5 8zM128 314q0 -64 31.5 -101t90.5 -37q60 0 90 37t30 101q0 60 -32.5 96.5t-87.5 36.5q-61 0 -91.5 -35.5t-30.5 -97.5zM154 691q8 -54 34 -78.5t67 -24.5
q80 0 103 101q11 -1 21 -3t18 -6q-8 -61 -44.5 -99t-99.5 -38q-62 0 -96 34t-42 95q7 7 17.5 12t21.5 7z" />
    <glyph glyph-name="Gdotaccent" unicode="&#x120;" horiz-adv-x="681" 
d="M577 22q-18 -7 -43 -14.5t-54.5 -13.5t-61.5 -10t-64 -4q-72 0 -129 24.5t-96 69.5t-59.5 109t-20.5 144q0 91 25.5 161.5t72 119t110 73.5t140.5 25q54 0 100 -11t84 -35q0 -34 -2.5 -73t-7.5 -69q-9 0 -23 2.5t-22 6.5v104q-32 18 -66 25.5t-70 7.5q-57 0 -107 -20
t-88 -60.5t-60 -102t-22 -145.5q0 -78 19 -136t53.5 -96.5t82.5 -57t106 -18.5q39 0 76.5 6t67.5 14v237q-35 0 -77 2t-76 5q-3 9 -4 19.5t-1 20.5h304q-1 -10 -2.5 -20t-4.5 -20q-17 -3 -38.5 -4.5t-41.5 -2.5v-263zM379 848q20 0 31.5 -10.5t11.5 -31.5q0 -44 -43 -44
t-43 43t43 43z" />
    <glyph glyph-name="gdotaccent" unicode="&#x121;" horiz-adv-x="513" 
d="M126 22q-20 8 -31.5 25t-11.5 43q0 24 12 45t34 34v4q-59 42 -59 141q0 40 13 71.5t37 53.5t57 34t73 12q58 0 98 -23q16 6 38 10t51 4q26 0 43 -6q3 -7 5 -18.5t2 -20.5h-102q20 -20 31.5 -49.5t11.5 -67.5q0 -84 -48 -130t-130 -46q-25 0 -47.5 4t-40.5 12
q-10 -8 -16.5 -21t-6.5 -30q0 -36 41.5 -45t117.5 -9q40 0 75 -5.5t60.5 -19.5t40 -38.5t14.5 -63.5q0 -42 -18.5 -73.5t-50 -53t-74 -32t-89.5 -10.5q-41 0 -80 8.5t-69 26t-48 44.5t-18 65q0 50 26 80t59 41v4zM168 8q-37 -14 -54 -40.5t-17 -58.5q0 -31 14.5 -52.5
t38.5 -35.5t54 -20.5t61 -6.5q33 0 63 7t53.5 22t37 37t13.5 52q0 44 -32.5 65t-114.5 21q-35 0 -64.5 2t-52.5 8zM128 314q0 -64 31.5 -101t90.5 -37q60 0 90 37t30 101q0 60 -32.5 96.5t-87.5 36.5q-61 0 -91.5 -35.5t-30.5 -97.5zM257 646q18 0 29.5 -10t11.5 -30
t-11 -31t-30 -11q-41 0 -41 41q0 19 11 30t30 11z" />
    <glyph glyph-name="Gcommaaccent" unicode="&#x122;" horiz-adv-x="681" 
d="M577 22q-18 -7 -43 -14.5t-54.5 -13.5t-61.5 -10t-64 -4q-72 0 -129 24.5t-96 69.5t-59.5 109t-20.5 144q0 91 25.5 161.5t72 119t110 73.5t140.5 25q54 0 100 -11t84 -35q0 -34 -2.5 -73t-7.5 -69q-9 0 -23 2.5t-22 6.5v104q-32 18 -66 25.5t-70 7.5q-57 0 -107 -20
t-88 -60.5t-60 -102t-22 -145.5q0 -78 19 -136t53.5 -96.5t82.5 -57t106 -18.5q39 0 76.5 6t67.5 14v237q-35 0 -77 2t-76 5q-3 9 -4 19.5t-1 20.5h304q-1 -10 -2.5 -20t-4.5 -20q-17 -3 -38.5 -4.5t-41.5 -2.5v-263zM316 -83q2 10 8 20.5t11 17.5q16 3 35 3q11 0 23.5 -2
t20.5 -6q-5 -21 -13.5 -47t-18 -51t-19.5 -47t-19 -35q-23 5 -35 17q11 26 22.5 62t17.5 62z" />
    <glyph glyph-name="gcommaaccent" unicode="&#x123;" horiz-adv-x="513" 
d="M126 22q-20 8 -31.5 25t-11.5 43q0 24 12 45t34 34v4q-59 42 -59 141q0 40 13 71.5t37 53.5t57 34t73 12q58 0 98 -23q16 6 38 10t51 4q26 0 43 -6q3 -7 5 -18.5t2 -20.5h-102q20 -20 31.5 -49.5t11.5 -67.5q0 -84 -48 -130t-130 -46q-25 0 -47.5 4t-40.5 12
q-10 -8 -16.5 -21t-6.5 -30q0 -36 41.5 -45t117.5 -9q40 0 75 -5.5t60.5 -19.5t40 -38.5t14.5 -63.5q0 -42 -18.5 -73.5t-50 -53t-74 -32t-89.5 -10.5q-41 0 -80 8.5t-69 26t-48 44.5t-18 65q0 50 26 80t59 41v4zM168 8q-37 -14 -54 -40.5t-17 -58.5q0 -31 14.5 -52.5
t38.5 -35.5t54 -20.5t61 -6.5q33 0 63 7t53.5 22t37 37t13.5 52q0 44 -32.5 65t-114.5 21q-35 0 -64.5 2t-52.5 8zM128 314q0 -64 31.5 -101t90.5 -37q60 0 90 37t30 101q0 60 -32.5 96.5t-87.5 36.5q-61 0 -91.5 -35.5t-30.5 -97.5zM311 717q-6 -13 -12 -30t-11.5 -34
t-10 -33.5t-6.5 -27.5l35 -7q-2 -8 -8.5 -21t-12.5 -21q-21 2 -40.5 8t-32.5 13q4 19 11 39.5t15 40t16 37t16 30.5q7 2 19 4t22 2z" />
    <glyph glyph-name="Hcircumflex" unicode="&#x124;" horiz-adv-x="749" 
d="M477 0q2 19 8 35q14 4 36 6.5t39 3.5v292h-371v-293q24 -1 45 -2.5t41 -5.5q2 -6 3 -17t-1 -19h-239q2 19 8 35q15 4 39 6.5t43 3.5v597q-23 1 -42.5 3t-33.5 4q-2 8 -3 18.5t0 18.5h224q2 -7 1 -17.5t-3 -18.5q-17 -3 -39 -5t-43 -3v-261h371v261q-23 1 -42 3t-33 4
q-2 8 -3 18.5t0 18.5h226q2 -7 1 -17.5t-3 -18.5q-17 -3 -40 -5t-45 -3v-598q26 -1 47.5 -2.5t43.5 -5.5q2 -4 2.5 -11t0.5 -12v-6q0 -3 -1 -7h-237zM415 878l126 -97q-5 -9 -12 -18.5t-15 -14.5l-137 83l-142 -86q-5 8 -9.5 19.5t-6.5 19.5l126 94h70z" />
    <glyph glyph-name="hcircumflex" unicode="&#x125;" horiz-adv-x="585" 
d="M170 42q20 -2 40 -4.5t35 -6.5q2 -5 2.5 -14.5t-1.5 -16.5h-214q1 8 3.5 16t5.5 14q14 4 32 7.5t39 5.5v640h-73q2 20 11 34q36 11 81 11q22 0 39 -4v-206q0 -27 -1.5 -56.5t-3.5 -55.5h8q5 10 17 23.5t31.5 26t47.5 21t64 8.5q30 0 57 -6.5t47.5 -25.5t32.5 -54t12 -92
q0 -68 -1 -133.5t-3 -131.5q23 -2 45 -4.5t39 -6.5q2 -8 2 -17t-1 -14h-212q1 8 3.5 16t5.5 14q12 4 28 7.5t35 5.5v257q0 64 -24 101.5t-85 37.5q-24 0 -46.5 -6.5t-41.5 -17t-33.5 -22.5t-22.5 -24v-327zM173 905l126 -97q-5 -9 -12 -18.5t-15 -14.5l-137 83l-142 -86
q-5 8 -9.5 19.5t-6.5 19.5l126 94h70z" />
    <glyph glyph-name="Hbar" unicode="&#x126;" horiz-adv-x="761" 
d="M627 498v-454q26 -1 47.5 -2.5t43.5 -5.5q2 -4 2.5 -11t0.5 -12v-6q0 -3 -1 -7h-237q2 19 8 35q14 4 36 6.5t39 3.5v288h-371v-289q24 -1 45 -2.5t41 -5.5q2 -6 3 -17t-1 -19h-239q2 19 8 35q15 4 39 6.5t43 3.5v453h-76q0 9 2 21t5 18h69v105q-23 1 -42.5 3t-33.5 4
q-2 8 -3 18.5t0 18.5h224q2 -7 1 -17.5t-3 -18.5q-17 -3 -39 -5t-43 -3v-105h371v105q-23 1 -42 3t-33 4q-2 8 -3 18.5t0 18.5h226q2 -7 1 -17.5t-3 -18.5q-17 -3 -40 -5t-45 -3v-105h74q2 -8 2.5 -20t-1.5 -19h-75zM566 377v121h-371v-121h371z" />
    <glyph glyph-name="hbar" unicode="&#x127;" horiz-adv-x="589" 
d="M116 604v79h-73q2 20 11 34q36 11 81 11q22 0 39 -4v-120h171q2 -8 2.5 -19.5t-1.5 -18.5h-172v-48q0 -27 -1.5 -56.5t-3.5 -55.5h8q5 10 17 23.5t31.5 26t47.5 21t64 8.5q30 0 57 -6.5t47.5 -25.5t32.5 -54t12 -92q0 -68 -1 -133.5t-3 -131.5q23 -2 45 -4.5t39 -6.5
q2 -8 2 -17t-1 -14h-212q1 8 3.5 16t5.5 14q12 4 28 7.5t35 5.5v257q0 64 -24 101.5t-85 37.5q-24 0 -46.5 -6.5t-41.5 -17t-33.5 -22.5t-22.5 -24v-327q20 -2 40 -4.5t35 -6.5q2 -5 2.5 -14.5t-1.5 -16.5h-214q1 8 3.5 16t5.5 14q14 4 32 7.5t39 5.5v523h-73q0 9 2 20.5
t4 17.5h67z" />
    <glyph glyph-name="Itilde" unicode="&#x128;" horiz-adv-x="317" 
d="M38 0q2 19 8 35q15 4 39 6.5t43 3.5v597q-23 1 -42.5 3t-33.5 4q-2 8 -3 18.5t0 18.5h227q2 -7 1 -17.5t-3 -18.5q-17 -3 -40 -5t-45 -3v-598q26 -1 47.5 -2.5t43.5 -5.5q2 -4 2.5 -11t0.5 -12v-6q0 -3 -1 -7h-244zM299 845q21 0 37 -8q-8 -34 -33.5 -58.5t-73.5 -24.5
q-23 0 -41 7t-34.5 15.5t-33.5 15.5t-37 7q-26 0 -43.5 -12.5t-24.5 -31.5q-8 2 -17.5 8t-14.5 14q11 31 38 52t72 21q25 0 43 -7t34.5 -15.5t32.5 -15.5t36 -7q24 0 39 11.5t21 28.5z" />
    <glyph glyph-name="itilde" unicode="&#x129;" horiz-adv-x="291" 
d="M48 431q2 20 11 34q36 11 82 11q23 0 40 -4v-430q23 -2 44.5 -4.5t38.5 -6.5q2 -8 2 -17t-1 -14h-222q1 8 3.5 16t5.5 14q14 4 32 7.5t39 5.5v388h-75zM272 651q8 -1 17.5 -3t15.5 -6q-6 -33 -29.5 -57t-63.5 -24q-20 0 -35.5 7t-29.5 15.5t-28 15.5t-31 7
q-21 0 -36.5 -12.5t-21.5 -31.5q-20 3 -30 19q9 32 33.5 53t62.5 21q22 0 38 -7t29.5 -15t26.5 -15t30 -7q20 0 33.5 11t18.5 29z" />
    <glyph glyph-name="Imacron" unicode="&#x12a;" horiz-adv-x="317" 
d="M38 0q2 19 8 35q15 4 39 6.5t43 3.5v597q-23 1 -42.5 3t-33.5 4q-2 8 -3 18.5t0 18.5h227q2 -7 1 -17.5t-3 -18.5q-17 -3 -40 -5t-45 -3v-598q26 -1 47.5 -2.5t43.5 -5.5q2 -4 2.5 -11t0.5 -12v-6q0 -3 -1 -7h-244zM290 825q2 -5 2.5 -13.5t0.5 -16.5v-8q0 -4 -1 -9h-267
q0 10 2 24.5t4 22.5h259z" />
    <glyph glyph-name="imacron" unicode="&#x12b;" horiz-adv-x="291" 
d="M48 431q2 20 11 34q36 11 82 11q23 0 40 -4v-430q23 -2 44.5 -4.5t38.5 -6.5q2 -8 2 -17t-1 -14h-222q1 8 3.5 16t5.5 14q14 4 32 7.5t39 5.5v388h-75zM252 625q2 -5 2.5 -12.5t0.5 -14.5v-7q0 -4 -1 -9h-211q0 9 2 22.5t4 20.5h203z" />
    <glyph glyph-name="Ibreve" unicode="&#x12c;" horiz-adv-x="317" 
d="M38 0q2 19 8 35q15 4 39 6.5t43 3.5v597q-23 1 -42.5 3t-33.5 4q-2 8 -3 18.5t0 18.5h227q2 -7 1 -17.5t-3 -18.5q-17 -3 -40 -5t-45 -3v-598q26 -1 47.5 -2.5t43.5 -5.5q2 -4 2.5 -11t0.5 -12v-6q0 -3 -1 -7h-244zM44 883q9 -41 38.5 -60.5t74.5 -19.5q94 0 117 77
q12 0 25 -3t22 -8q-12 -52 -55 -83t-112 -31q-66 0 -106.5 29t-49.5 77q7 8 20 14t26 8z" />
    <glyph glyph-name="ibreve" unicode="&#x12d;" horiz-adv-x="291" 
d="M50 691q8 -54 34 -78.5t67 -24.5q80 0 103 101q11 -1 21 -3t18 -6q-8 -61 -44.5 -99t-99.5 -38q-62 0 -96 34t-42 95q7 7 17.5 12t21.5 7zM48 431q2 20 11 34q36 11 82 11q23 0 40 -4v-430q23 -2 44.5 -4.5t38.5 -6.5q2 -8 2 -17t-1 -14h-222q1 8 3.5 16t5.5 14
q14 4 32 7.5t39 5.5v388h-75z" />
    <glyph glyph-name="Iogonek" unicode="&#x12e;" horiz-adv-x="317" 
d="M227 0q-51 -26 -74 -54.5t-23 -63.5q0 -38 23.5 -56.5t55.5 -18.5q7 0 15.5 0.5t14.5 2.5q3 -6 5.5 -16.5t2.5 -18.5q-9 -3 -24 -5t-26 -2q-23 0 -45 6.5t-38.5 20t-26.5 34t-10 47.5q0 35 23.5 69t77.5 51v4h-140q2 19 8 35q15 4 39 6.5t43 3.5v597q-23 1 -42.5 3
t-33.5 4q-2 8 -3 18.5t0 18.5h227q2 -7 1 -17.5t-3 -18.5q-17 -3 -40 -5t-45 -3v-598q26 -1 47.5 -2.5t43.5 -5.5q2 -4 2.5 -11t0.5 -12v-6q0 -3 -1 -7h-55z" />
    <glyph glyph-name="iogonek" unicode="&#x12f;" horiz-adv-x="291" 
d="M212 -165q4 -6 6 -17t2 -19q-10 -4 -24 -5.5t-26 -1.5q-21 0 -40 6t-33.5 18.5t-23.5 31t-9 42.5q0 15 5 31t15.5 30t27.5 26t41 19v4h-110q1 8 3.5 16t5.5 14q14 4 32 7.5t39 5.5v388h-75q2 20 11 34q36 11 82 11q23 0 40 -4v-430q23 -2 44.5 -4.5t38.5 -6.5q2 -8 2 -17
t-1 -14h-63q-46 -22 -66 -47.5t-20 -54.5q0 -35 20 -51t46 -16q8 0 15.5 1t14.5 3zM152 687q19 0 30.5 -11t11.5 -31q0 -22 -11 -33t-31 -11q-43 0 -43 43q0 20 11.5 31.5t31.5 11.5z" />
    <glyph glyph-name="Idotaccent" unicode="&#x130;" horiz-adv-x="317" 
d="M38 0q2 19 8 35q15 4 39 6.5t43 3.5v597q-23 1 -42.5 3t-33.5 4q-2 8 -3 18.5t0 18.5h227q2 -7 1 -17.5t-3 -18.5q-17 -3 -40 -5t-45 -3v-598q26 -1 47.5 -2.5t43.5 -5.5q2 -4 2.5 -11t0.5 -12v-6q0 -3 -1 -7h-244zM159 848q20 0 31.5 -10.5t11.5 -31.5q0 -44 -43 -44
t-43 43t43 43z" />
    <glyph glyph-name="dotlessi" unicode="&#x131;" horiz-adv-x="291" 
d="M48 431q2 20 11 34q36 11 82 11q23 0 40 -4v-430q23 -2 44.5 -4.5t38.5 -6.5q2 -8 2 -17t-1 -14h-222q1 8 3.5 16t5.5 14q14 4 32 7.5t39 5.5v388h-75z" />
    <glyph glyph-name="IJ" unicode="&#x132;" horiz-adv-x="638" 
d="M38 0q2 19 8 35q15 4 39 6.5t43 3.5v597q-23 1 -42.5 3t-33.5 4q-2 8 -3 18.5t0 18.5h227q2 -7 1 -17.5t-3 -18.5q-17 -3 -40 -5t-45 -3v-598q26 -1 47.5 -2.5t43.5 -5.5q2 -4 2.5 -11t0.5 -12v-6q0 -3 -1 -7h-244zM523 217q0 -141 -55.5 -238.5t-160.5 -153.5
q-6 5 -11.5 15.5t-7.5 18.5q93 57 133.5 142.5t40.5 202.5v438q-29 1 -51.5 3t-40.5 4q-2 8 -3 18.5t0 18.5h243q1 -3 1 -7v-6q0 -14 -3 -23q-17 -3 -40 -5t-45 -3v-425z" />
    <glyph glyph-name="ij" unicode="&#x133;" horiz-adv-x="537" 
d="M152 687q19 0 30.5 -11t11.5 -31q0 -22 -11 -33t-31 -11q-43 0 -43 43q0 20 11.5 31.5t31.5 11.5zM48 431q2 20 11 34q36 11 82 11q23 0 40 -4v-430q23 -2 44.5 -4.5t38.5 -6.5q2 -8 2 -17t-1 -14h-222q1 8 3.5 16t5.5 14q14 4 32 7.5t39 5.5v388h-75zM454 53
q0 -52 -12.5 -94t-32.5 -77t-45 -64t-51 -54q-21 8 -31 27q21 21 41.5 45.5t36.5 55t26 66.5t10 79v394h-75q2 20 11 34q36 11 82 11q23 0 40 -4v-419zM427 687q19 0 31 -11t12 -31q0 -22 -11.5 -33t-31.5 -11q-42 0 -42 43q0 20 11.5 31.5t30.5 11.5z" />
    <glyph glyph-name="Jcircumflex" unicode="&#x134;" horiz-adv-x="321" 
d="M206 217q0 -141 -55.5 -238.5t-160.5 -153.5q-6 5 -11.5 15.5t-7.5 18.5q93 57 133.5 142.5t40.5 202.5v438q-29 1 -51.5 3t-40.5 4q-2 8 -3 18.5t0 18.5h243q1 -3 1 -7v-6q0 -14 -3 -23q-17 -3 -40 -5t-45 -3v-425zM211 878l126 -97q-5 -9 -12 -18.5t-15 -14.5l-137 83
l-142 -86q-5 8 -9.5 19.5t-6.5 19.5l126 94h70z" />
    <glyph glyph-name="jcircumflex" unicode="&#x135;" horiz-adv-x="246" 
d="M156 701l114 -132q-5 -8 -15 -16t-21 -12l-108 111l-113 -115q-8 5 -15 15.5t-10 19.5l110 126zM163 53q0 -52 -12.5 -94t-32.5 -77t-45 -64t-51 -54q-21 8 -31 27q21 21 41.5 45.5t36.5 55t26 66.5t10 79v394h-75q2 20 11 34q36 11 82 11q23 0 40 -4v-419z" />
    <glyph glyph-name="Kcommaaccent" unicode="&#x136;" horiz-adv-x="624" 
d="M251 372l149 206q11 15 27 34t28 30q-20 1 -41.5 3t-35.5 4q-3 8 -4.5 18.5t-1.5 18.5h204q0 -7 -2.5 -18.5t-6.5 -19.5q-11 -2 -27 -3.5t-34 -2.5l-212 -284l247 -321l73 5q0 -9 -2.5 -22t-5.5 -20q-21 -5 -50 -8.5t-53 -5.5l-262 347h-52v-289q23 -1 43 -2.5t40 -5.5
q2 -6 3 -17t-1 -19h-236q2 19 8 35q15 4 39 6.5t43 3.5v597q-23 1 -42.5 3t-33.5 4q-2 8 -3 18.5t0 18.5h219q2 -7 1 -17.5t-3 -18.5q-16 -3 -36.5 -5t-40.5 -3v-270h62zM294 -83q2 10 8 20.5t11 17.5q16 3 35 3q11 0 23.5 -2t20.5 -6q-5 -21 -13.5 -47t-18 -51t-19.5 -47
t-19 -35q-23 5 -35 17q11 26 22.5 62t17.5 62z" />
    <glyph glyph-name="kcommaaccent" unicode="&#x137;" horiz-adv-x="542" 
d="M170 42q20 -2 40 -4.5t35 -6.5q2 -5 2.5 -14.5t-1.5 -16.5h-214q1 8 3.5 16t5.5 14q14 4 32 7.5t39 5.5v640h-73q2 20 11 34q36 11 81 11q22 0 39 -4v-443h63l107 111q8 8 18.5 18t20.5 17q-17 1 -38.5 3.5t-36.5 6.5q-2 5 -4 14t-2 17h198q0 -7 -2.5 -17.5t-4.5 -15.5
q-10 -3 -25.5 -5t-28.5 -3l-163 -163q33 -42 66.5 -82.5t62 -73.5t48 -54t25.5 -23l66 9q0 -8 -2.5 -19.5t-6.5 -18.5q-16 -6 -36.5 -11.5t-40.5 -7.5q-12 3 -35.5 25t-54 58t-67 82.5t-75.5 96.5h-52v-203zM250 -87q2 9 7.5 19.5t10.5 16.5q15 3 33 3q10 0 22 -2t20 -6
q-4 -20 -12 -44t-17 -48t-18.5 -44.5t-17.5 -33.5q-10 2 -18.5 6.5t-13.5 9.5q5 12 10 27.5t10 31.5t9 31t7 27z" />
    <glyph glyph-name="kgreenlandic" unicode="&#x138;" horiz-adv-x="552" 
d="M263 257l82 107q11 15 26 31t30 30q-17 1 -39.5 4t-36.5 7q-2 5 -4 14.5t-2 17.5h194q0 -7 -2.5 -18t-4.5 -16q-10 -3 -26 -5t-29 -3l-148 -187q28 -36 58.5 -72.5t57 -66t45.5 -48.5t24 -20l62 8q0 -8 -2.5 -19.5t-6.5 -18.5q-16 -6 -35 -11t-38 -7q-12 3 -34 23t-51 52
t-63 73.5t-69 86.5h-70v-177q20 -2 41 -4.5t36 -6.5q2 -5 2.5 -14.5t-1.5 -16.5h-216q1 8 3.5 16t5.5 14q14 4 32 7.5t39 5.5v388h-75q2 20 11 34q36 11 82 11q23 0 40 -4v-215h82z" />
    <glyph glyph-name="Lacute" unicode="&#x139;" horiz-adv-x="538" 
d="M128 642q-23 1 -42.5 3t-33.5 4q-2 8 -3 18.5t0 18.5h237q2 -7 1 -17.5t-3 -18.5q-20 -3 -45.5 -5t-49.5 -3v-598h276q1 26 3 54.5t5 49.5q8 2 21 3.5t22 1.5v-153h-478q2 19 8 35q15 4 39 6.5t43 3.5v597zM118 740q-3 8 -5 22t-2 24l198 96q9 -10 16.5 -23.5t12.5 -27.5
z" />
    <glyph glyph-name="lacute" unicode="&#x13a;" horiz-adv-x="282" 
d="M89 760q-7 16 -7 41l182 84q8 -8 14.5 -21t10.5 -24zM170 42q23 -2 45 -4.5t39 -6.5q2 -8 2 -17t-1 -14h-223q1 8 3.5 16t5.5 14q14 4 32 7.5t39 5.5v640h-73q2 20 11 34q36 11 81 11q22 0 39 -4v-682z" />
    <glyph glyph-name="Lcommaaccent" unicode="&#x13b;" horiz-adv-x="538" 
d="M128 642q-23 1 -42.5 3t-33.5 4q-2 8 -3 18.5t0 18.5h237q2 -7 1 -17.5t-3 -18.5q-20 -3 -45.5 -5t-49.5 -3v-598h276q1 26 3 54.5t5 49.5q8 2 21 3.5t22 1.5v-153h-478q2 19 8 35q15 4 39 6.5t43 3.5v597zM265 -83q2 10 8 20.5t11 17.5q16 3 35 3q11 0 23.5 -2t20.5 -6
q-5 -21 -13.5 -47t-18 -51t-19.5 -47t-19 -35q-23 5 -35 17q11 26 22.5 62t17.5 62z" />
    <glyph glyph-name="lcommaaccent" unicode="&#x13c;" horiz-adv-x="282" 
d="M170 42q23 -2 45 -4.5t39 -6.5q2 -8 2 -17t-1 -14h-223q1 8 3.5 16t5.5 14q14 4 32 7.5t39 5.5v640h-73q2 20 11 34q36 11 81 11q22 0 39 -4v-682zM91 -87q2 9 7.5 19.5t10.5 16.5q15 3 33 3q10 0 22 -2t20 -6q-4 -20 -12 -44t-17 -48t-18.5 -44.5t-17.5 -33.5
q-10 2 -18.5 6.5t-13.5 9.5q5 12 10 27.5t10 31.5t9 31t7 27z" />
    <glyph glyph-name="Lcaron" unicode="&#x13d;" horiz-adv-x="538" 
d="M128 642q-23 1 -42.5 3t-33.5 4q-2 8 -3 18.5t0 18.5h237q2 -7 1 -17.5t-3 -18.5q-20 -3 -45.5 -5t-49.5 -3v-598h276q1 26 3 54.5t5 49.5q8 2 21 3.5t22 1.5v-153h-478q2 19 8 35q15 4 39 6.5t43 3.5v597zM358 651q2 10 8 20.5t11 17.5q16 3 35 3q11 0 23.5 -2t20.5 -6
q-5 -23 -14 -50.5t-19.5 -54t-21 -50t-19.5 -37.5q-23 5 -35 17q6 14 12.5 31.5t12.5 36.5t11 36.5t8 31.5z" />
    <glyph glyph-name="lcaron" unicode="&#x13e;" horiz-adv-x="282" 
d="M170 42q23 -2 45 -4.5t39 -6.5q2 -8 2 -17t-1 -14h-223q1 8 3.5 16t5.5 14q14 4 32 7.5t39 5.5v640h-73q2 20 11 34q36 11 81 11q22 0 39 -4v-682zM234 679q2 9 7.5 19.5t10.5 16.5q15 3 33 3q10 0 22 -2t20 -6q-4 -21 -12 -46t-17.5 -49t-19.5 -45.5t-18 -34.5
q-10 2 -18.5 6.5t-13.5 9.5q5 13 10.5 29t11 32.5t9.5 32.5l7 28z" />
    <glyph glyph-name="Ldot" unicode="&#x13f;" horiz-adv-x="543" 
d="M128 642q-23 1 -42.5 3t-33.5 4q-2 8 -3 18.5t0 18.5h237q2 -7 1 -17.5t-3 -18.5q-20 -3 -45.5 -5t-49.5 -3v-598h276q1 26 3 54.5t5 49.5q8 2 21 3.5t22 1.5v-153h-478q2 19 8 35q15 4 39 6.5t43 3.5v597zM426 394q20 0 31.5 -10.5t11.5 -31.5q0 -44 -43 -44t-43 43
t43 43z" />
    <glyph glyph-name="ldot" unicode="&#x140;" horiz-adv-x="317" 
d="M170 42q23 -2 45 -4.5t39 -6.5q2 -8 2 -17t-1 -14h-223q1 8 3.5 16t5.5 14q14 4 32 7.5t39 5.5v640h-73q2 20 11 34q36 11 81 11q22 0 39 -4v-682zM298 378q18 0 29.5 -10t11.5 -30t-11 -31t-30 -11q-41 0 -41 41q0 19 11 30t30 11z" />
    <glyph glyph-name="Lslash" unicode="&#x141;" horiz-adv-x="552" 
d="M142 286l-82 -51q-4 8 -7 21t-4 23l93 56v307q-23 1 -42.5 3t-33.5 4q-2 8 -3 18.5t0 18.5h237q2 -7 1 -17.5t-3 -18.5q-20 -3 -45.5 -5t-49.5 -3v-276l172 106q6 -5 13 -17t9 -20l-194 -120v-271h276q1 26 3 54.5t5 49.5q8 2 21 3.5t22 1.5v-153h-478q2 19 8 35
q15 4 39 6.5t43 3.5v241z" />
    <glyph glyph-name="lslash" unicode="&#x142;" horiz-adv-x="302" 
d="M181 368l73 48q6 -5 12 -15t8 -17l-93 -58v-284q23 -2 45 -4.5t39 -6.5q2 -8 2 -17t-1 -14h-223q1 8 3.5 16t5.5 14q14 4 32 7.5t39 5.5v253l-80 -50q-4 7 -6.5 18t-3.5 20l90 56v343h-73q2 20 11 34q36 11 81 11q22 0 39 -4v-356z" />
    <glyph glyph-name="Nacute" unicode="&#x143;" horiz-adv-x="712" 
d="M482 212q9 -17 19.5 -37t21 -41t19.5 -42t16 -39h6v589q-24 1 -44 3t-35 4q-2 8 -3 18.5t0 18.5h206q1 -3 1 -7v-6q0 -14 -3 -23q-15 -3 -34.5 -5t-38.5 -3v-647h-80l-308 552q-11 19 -22 42.5t-19 46.5h-7v-592q26 -1 48.5 -2.5t44.5 -5.5q2 -6 3 -17t-1 -19h-235
q2 19 8 35q15 4 38.5 6.5t41.5 3.5v597q-23 1 -42.5 3t-33.5 4q-2 8 -3 18.5t0 18.5h170zM312 740q-3 8 -5 22t-2 24l198 96q9 -10 16.5 -23.5t12.5 -27.5z" />
    <glyph glyph-name="nacute" unicode="&#x144;" horiz-adv-x="592" 
d="M181 42q20 -2 40 -4.5t35 -6.5q2 -5 2.5 -14.5t-1.5 -16.5h-214q1 8 3.5 16t5.5 14q14 4 32 7.5t39 5.5v388h-75q2 20 11 34q33 11 77 11q21 0 37 -4v-64h8q25 41 69 59t93 18q82 0 114 -45.5t32 -132.5q0 -68 -1 -132t-3 -133q23 -2 45 -4.5t39 -6.5q2 -8 2 -17t-1 -14
h-212q1 8 3.5 16t5.5 14q12 4 28 7.5t35 5.5v257q0 64 -24.5 101.5t-83.5 37.5q-24 0 -46 -6.5t-40.5 -16.5t-32.5 -22.5t-22 -24.5v-327zM284 539q-8 3 -19.5 11.5t-16.5 16.5l113 147q12 -1 29 -9t26 -16z" />
    <glyph glyph-name="Ncommaaccent" unicode="&#x145;" horiz-adv-x="712" 
d="M482 212q9 -17 19.5 -37t21 -41t19.5 -42t16 -39h6v589q-24 1 -44 3t-35 4q-2 8 -3 18.5t0 18.5h206q1 -3 1 -7v-6q0 -14 -3 -23q-15 -3 -34.5 -5t-38.5 -3v-647h-80l-308 552q-11 19 -22 42.5t-19 46.5h-7v-592q26 -1 48.5 -2.5t44.5 -5.5q2 -6 3 -17t-1 -19h-235
q2 19 8 35q15 4 38.5 6.5t41.5 3.5v597q-23 1 -42.5 3t-33.5 4q-2 8 -3 18.5t0 18.5h170zM321 -83q2 10 8 20.5t11 17.5q16 3 35 3q11 0 23.5 -2t20.5 -6q-5 -21 -13.5 -47t-18 -51t-19.5 -47t-19 -35q-23 5 -35 17q11 26 22.5 62t17.5 62z" />
    <glyph glyph-name="ncommaaccent" unicode="&#x146;" horiz-adv-x="592" 
d="M181 42q20 -2 40 -4.5t35 -6.5q2 -5 2.5 -14.5t-1.5 -16.5h-214q1 8 3.5 16t5.5 14q14 4 32 7.5t39 5.5v388h-75q2 20 11 34q33 11 77 11q21 0 37 -4v-64h8q25 41 69 59t93 18q82 0 114 -45.5t32 -132.5q0 -68 -1 -132t-3 -133q23 -2 45 -4.5t39 -6.5q2 -8 2 -17t-1 -14
h-212q1 8 3.5 16t5.5 14q12 4 28 7.5t35 5.5v257q0 64 -24.5 101.5t-83.5 37.5q-24 0 -46 -6.5t-40.5 -16.5t-32.5 -22.5t-22 -24.5v-327zM256 -87q2 9 7.5 19.5t10.5 16.5q15 3 33 3q10 0 22 -2t20 -6q-4 -20 -12 -44t-17 -48t-18.5 -44.5t-17.5 -33.5q-10 2 -18.5 6.5
t-13.5 9.5q5 12 10 27.5t10 31.5t9 31t7 27z" />
    <glyph glyph-name="Ncaron" unicode="&#x147;" horiz-adv-x="712" 
d="M482 212q9 -17 19.5 -37t21 -41t19.5 -42t16 -39h6v589q-24 1 -44 3t-35 4q-2 8 -3 18.5t0 18.5h206q1 -3 1 -7v-6q0 -14 -3 -23q-15 -3 -34.5 -5t-38.5 -3v-647h-80l-308 552q-11 19 -22 42.5t-19 46.5h-7v-592q26 -1 48.5 -2.5t44.5 -5.5q2 -6 3 -17t-1 -19h-235
q2 19 8 35q15 4 38.5 6.5t41.5 3.5v597q-23 1 -42.5 3t-33.5 4q-2 8 -3 18.5t0 18.5h170zM331 753l-128 104q7 8 19 14.5t23 8.5l129 -80l129 81q9 -4 17.5 -11.5t14.5 -15.5l-131 -101h-73z" />
    <glyph glyph-name="ncaron" unicode="&#x148;" horiz-adv-x="592" 
d="M181 42q20 -2 40 -4.5t35 -6.5q2 -5 2.5 -14.5t-1.5 -16.5h-214q1 8 3.5 16t5.5 14q14 4 32 7.5t39 5.5v388h-75q2 20 11 34q33 11 77 11q21 0 37 -4v-64h8q25 41 69 59t93 18q82 0 114 -45.5t32 -132.5q0 -68 -1 -132t-3 -133q23 -2 45 -4.5t39 -6.5q2 -8 2 -17t-1 -14
h-212q1 8 3.5 16t5.5 14q12 4 28 7.5t35 5.5v257q0 64 -24.5 101.5t-83.5 37.5q-24 0 -46 -6.5t-40.5 -16.5t-32.5 -22.5t-22 -24.5v-327zM272 540l-119 143q7 6 19 11t23 7l111 -113l109 115q9 -2 18.5 -8.5t14.5 -13.5l-119 -138z" />
    <glyph glyph-name="napostrophe" unicode="&#x149;" horiz-adv-x="611" 
d="M200 42q20 -2 40 -4.5t35 -6.5q2 -5 2.5 -14.5t-1.5 -16.5h-214q1 8 3.5 16t5.5 14q14 4 32 7.5t39 5.5v388h-75q2 20 11 34q33 11 77 11q21 0 37 -4v-64h8q25 41 69 59t93 18q82 0 114 -45.5t32 -132.5q0 -68 -1 -132t-3 -133q23 -2 45 -4.5t39 -6.5q2 -8 2 -17t-1 -14
h-212q1 8 3.5 16t5.5 14q12 4 28 7.5t35 5.5v257q0 64 -24.5 101.5t-83.5 37.5q-24 0 -46 -6.5t-40.5 -16.5t-32.5 -22.5t-22 -24.5v-327zM-20 653q2 11 8 22t13 19q8 2 14.5 2.5t16.5 0.5q16 0 27.5 -2t22.5 -6q-5 -24 -14 -51.5t-19.5 -54.5t-22 -50.5t-20.5 -38.5
q-9 3 -18 8t-14 10q6 15 12.5 32.5t12 35.5t10 35t6.5 30z" />
    <glyph glyph-name="Eng" unicode="&#x14a;" horiz-adv-x="712" 
d="M464 274q27 -45 50 -90t44 -93h6v551q-24 1 -44 3t-35 4q-2 8 -3 18.5t0 18.5h206q1 -3 1 -7v-6q0 -14 -3 -23q-15 -3 -34.5 -5t-38.5 -3v-594q0 -51 -11 -94.5t-29 -80.5t-42.5 -66t-51.5 -50q-7 3 -13.5 11t-9.5 16q42 35 71.5 91.5t34.5 121.5l-310 514
q-19 32 -36.5 65t-32.5 65h-6v-597q26 -1 48.5 -2.5t44.5 -5.5q2 -6 3 -17t-1 -19h-235q2 19 8 35q15 4 38.5 6.5t41.5 3.5v597q-23 1 -42.5 3t-33.5 4q-2 8 -3 18.5t0 18.5h170z" />
    <glyph glyph-name="eng" unicode="&#x14b;" horiz-adv-x="556" 
d="M181 408q5 9 17 22t31.5 25.5t46.5 21t62 8.5q30 0 57.5 -6.5t48 -25.5t32.5 -53.5t12 -90.5v-95q0 -47 -2 -87q-2 -54 -13.5 -98.5t-31 -82t-46.5 -69.5t-61 -61q-10 5 -18.5 12.5t-12.5 16.5q55 50 90 117t35 162v176q0 64 -24 101.5t-86 37.5q-23 0 -44 -6.5t-39 -17
t-32 -22.5t-22 -24v-327q20 -2 40 -4.5t35 -6.5q2 -5 2.5 -14.5t-1.5 -16.5h-214q1 8 3.5 16t5.5 14q14 4 32 7.5t39 5.5v388h-75q2 20 11 34q33 11 77 11q21 0 37 -4v-64h8z" />
    <glyph glyph-name="Omacron" unicode="&#x14c;" horiz-adv-x="699" 
d="M351 706q66 0 121 -23t94.5 -68t61 -111t21.5 -152q0 -89 -21.5 -158t-60.5 -116.5t-94 -72.5t-122 -25q-145 0 -223 94t-78 278q0 82 22.5 148t62 111.5t95 70t121.5 24.5zM115 352q0 -75 15.5 -135.5t45.5 -103t74 -65t101 -22.5t101 23t73.5 65t44.5 102.5t15 135.5
q0 69 -16.5 126t-47 97.5t-74 63t-96.5 22.5q-58 0 -102 -22t-74 -62.5t-45 -97.5t-15 -127zM528 825q2 -5 2.5 -13.5t0.5 -16.5v-8q0 -4 -1 -9h-358q0 10 2 24.5t4 22.5h350z" />
    <glyph glyph-name="omacron" unicode="&#x14d;" horiz-adv-x="535" 
d="M268 485q48 0 87.5 -16t68 -46.5t44 -76t15.5 -104.5q0 -125 -58.5 -192t-156.5 -67q-104 0 -160 65.5t-56 193.5q0 57 16 102t44.5 76.5t68 48t87.5 16.5zM112 242q0 -101 40.5 -159t115.5 -58q77 0 116 58.5t39 158.5q0 45 -11 82.5t-31 64t-48.5 41.5t-64.5 15
q-76 0 -116 -55.5t-40 -147.5zM416 625q2 -5 2.5 -12.5t0.5 -14.5v-7q0 -4 -1 -9h-300q0 9 2 22.5t4 20.5h292z" />
    <glyph glyph-name="Obreve" unicode="&#x14e;" horiz-adv-x="699" 
d="M351 706q66 0 121 -23t94.5 -68t61 -111t21.5 -152q0 -89 -21.5 -158t-60.5 -116.5t-94 -72.5t-122 -25q-145 0 -223 94t-78 278q0 82 22.5 148t62 111.5t95 70t121.5 24.5zM115 352q0 -75 15.5 -135.5t45.5 -103t74 -65t101 -22.5t101 23t73.5 65t44.5 102.5t15 135.5
q0 69 -16.5 126t-47 97.5t-74 63t-96.5 22.5q-58 0 -102 -22t-74 -62.5t-45 -97.5t-15 -127zM236 883q9 -41 38.5 -60.5t74.5 -19.5q94 0 117 77q12 0 25 -3t22 -8q-12 -52 -55 -83t-112 -31q-66 0 -106.5 29t-49.5 77q7 8 20 14t26 8z" />
    <glyph glyph-name="obreve" unicode="&#x14f;" horiz-adv-x="535" 
d="M268 485q48 0 87.5 -16t68 -46.5t44 -76t15.5 -104.5q0 -125 -58.5 -192t-156.5 -67q-104 0 -160 65.5t-56 193.5q0 57 16 102t44.5 76.5t68 48t87.5 16.5zM112 242q0 -101 40.5 -159t115.5 -58q77 0 116 58.5t39 158.5q0 45 -11 82.5t-31 64t-48.5 41.5t-64.5 15
q-76 0 -116 -55.5t-40 -147.5zM167 691q8 -54 34 -78.5t67 -24.5q80 0 103 101q11 -1 21 -3t18 -6q-8 -61 -44.5 -99t-99.5 -38q-62 0 -96 34t-42 95q7 7 17.5 12t21.5 7z" />
    <glyph glyph-name="Ohungarumlaut" unicode="&#x150;" horiz-adv-x="699" 
d="M351 706q66 0 121 -23t94.5 -68t61 -111t21.5 -152q0 -89 -21.5 -158t-60.5 -116.5t-94 -72.5t-122 -25q-145 0 -223 94t-78 278q0 82 22.5 148t62 111.5t95 70t121.5 24.5zM115 352q0 -75 15.5 -135.5t45.5 -103t74 -65t101 -22.5t101 23t73.5 65t44.5 102.5t15 135.5
q0 69 -16.5 126t-47 97.5t-74 63t-96.5 22.5q-58 0 -102 -22t-74 -62.5t-45 -97.5t-15 -127zM249 730q-8 6 -15 16t-11 19l122 123q14 -3 29.5 -11t25.5 -17zM451 730q-8 6 -15 16t-11 19l122 123q14 -3 29.5 -11t25.5 -17z" />
    <glyph glyph-name="ohungarumlaut" unicode="&#x151;" horiz-adv-x="535" 
d="M268 485q48 0 87.5 -16t68 -46.5t44 -76t15.5 -104.5q0 -125 -58.5 -192t-156.5 -67q-104 0 -160 65.5t-56 193.5q0 57 16 102t44.5 76.5t68 48t87.5 16.5zM112 242q0 -101 40.5 -159t115.5 -58q77 0 116 58.5t39 158.5q0 45 -11 82.5t-31 64t-48.5 41.5t-64.5 15
q-76 0 -116 -55.5t-40 -147.5zM185 540q-10 3 -21.5 9.5t-17.5 14.5l92 150q14 -1 30.5 -6.5t27.5 -12.5zM365 540q-10 3 -21.5 9.5t-17.5 14.5l92 150q14 -1 30.5 -6.5t27.5 -12.5z" />
    <glyph glyph-name="OE" unicode="&#x152;" horiz-adv-x="901" 
d="M843 555q-9 0 -20.5 1t-18.5 3q-3 17 -5.5 41.5t-3.5 44.5h-261v-277h213q1 14 3 31.5t5 30.5q7 2 18.5 3.5t19.5 1.5v-176q-8 -1 -19.5 0t-19.5 3q-2 13 -4 31t-3 34h-213v-284h268q1 23 3.5 48t5.5 44q8 2 20.5 3.5t21.5 1.5v-140h-380q-29 -9 -60 -13t-58 -4
q-144 0 -224.5 91t-80.5 264q0 89 22.5 157.5t63 114.5t98 69.5t128.5 23.5q26 0 56.5 -4t55.5 -13h369v-131zM365 28q26 0 55.5 4t52.5 14v588q-26 14 -55.5 20t-60.5 6q-60 0 -105.5 -22.5t-76 -63.5t-45.5 -100t-15 -132q0 -149 63 -231.5t187 -82.5z" />
    <glyph glyph-name="oe" unicode="&#x153;" horiz-adv-x="852" 
d="M481 233q2 -100 50.5 -151.5t127.5 -51.5q37 0 74 9.5t64 21.5q1 -9 -1.5 -20t-7.5 -19q-23 -14 -64 -26.5t-86 -12.5q-37 0 -68 10t-54 27t-39 39.5t-23 47.5h-4q-15 -54 -62 -89t-122 -35q-100 0 -157 65t-57 185q0 60 15.5 107t43.5 79.5t68 49t89 16.5
q73 0 120.5 -34t64.5 -87h4q9 24 25.5 46t40 38.5t54 26.5t66.5 10q42 0 72.5 -15t50 -41.5t29 -63.5t9.5 -81q0 -14 -1 -28t-3 -23h-319zM112 238q0 -98 41 -155.5t116 -57.5q76 0 115 59t39 158q0 92 -42 147.5t-116 55.5q-75 0 -114 -56.5t-39 -150.5zM745 274
q3 29 -0.5 59.5t-16 56t-36 41.5t-60.5 16q-33 0 -59 -13t-45.5 -36t-31 -55t-14.5 -69h263z" />
    <glyph glyph-name="Racute" unicode="&#x154;" horiz-adv-x="607" 
d="M128 645q-19 0 -39.5 0.5t-37.5 2.5q-2 8 -2.5 19.5t0.5 19.5q61 5 117.5 7.5t108.5 2.5q54 0 100.5 -11.5t80 -35t52.5 -60t19 -85.5q0 -41 -12.5 -73t-34.5 -55.5t-52 -38t-64 -20.5q24 -50 49 -98.5t47 -88t38 -65.5t21 -29l72 5q0 -10 -2.5 -21.5t-5.5 -19.5
q-24 -6 -51.5 -9.5t-51.5 -5.5q-8 6 -25 33t-40 70t-51 99.5t-59 122.5q-29 0 -59 1.5t-57 5.5v-274q25 -1 46 -2.5t43 -5.5q2 -6 3 -17t-1 -19h-242q2 19 8 35q15 4 39 6.5t43 3.5v600zM189 356q26 -2 53 -3t58 -1q73 0 119 36.5t46 110.5q0 42 -14.5 71t-41 48t-63.5 27.5
t-82 8.5q-17 0 -37 -0.5t-38 -2.5v-295zM232 740q-3 8 -5 22t-2 24l198 96q9 -10 16.5 -23.5t12.5 -27.5z" />
    <glyph glyph-name="racute" unicode="&#x155;" horiz-adv-x="382" 
d="M181 391q15 45 47.5 69.5t80.5 24.5q12 0 26 -1.5t23 -6.5q4 -5 6.5 -14.5t2.5 -23.5q0 -11 -3 -20q-15 8 -32 11t-32 3q-36 0 -67.5 -21.5t-51.5 -72.5v-297q26 -2 51.5 -4.5t45.5 -6.5q2 -5 2.5 -14.5t-1.5 -16.5h-236q1 8 3.5 16t5.5 14q14 4 32 7.5t39 5.5v388h-75
q2 20 11 34q33 11 77 11q21 0 37 -4v-81h8zM215 539q-8 3 -19.5 11.5t-16.5 16.5l113 147q12 -1 29 -9t26 -16z" />
    <glyph glyph-name="Rcommaaccent" unicode="&#x156;" horiz-adv-x="607" 
d="M128 645q-19 0 -39.5 0.5t-37.5 2.5q-2 8 -2.5 19.5t0.5 19.5q61 5 117.5 7.5t108.5 2.5q54 0 100.5 -11.5t80 -35t52.5 -60t19 -85.5q0 -41 -12.5 -73t-34.5 -55.5t-52 -38t-64 -20.5q24 -50 49 -98.5t47 -88t38 -65.5t21 -29l72 5q0 -10 -2.5 -21.5t-5.5 -19.5
q-24 -6 -51.5 -9.5t-51.5 -5.5q-8 6 -25 33t-40 70t-51 99.5t-59 122.5q-29 0 -59 1.5t-57 5.5v-274q25 -1 46 -2.5t43 -5.5q2 -6 3 -17t-1 -19h-242q2 19 8 35q15 4 39 6.5t43 3.5v600zM189 356q26 -2 53 -3t58 -1q73 0 119 36.5t46 110.5q0 42 -14.5 71t-41 48t-63.5 27.5
t-82 8.5q-17 0 -37 -0.5t-38 -2.5v-295zM277 -83q2 10 8 20.5t11 17.5q16 3 35 3q11 0 23.5 -2t20.5 -6q-5 -21 -13.5 -47t-18 -51t-19.5 -47t-19 -35q-23 5 -35 17q11 26 22.5 62t17.5 62z" />
    <glyph glyph-name="rcommaaccent" unicode="&#x157;" horiz-adv-x="382" 
d="M181 391q15 45 47.5 69.5t80.5 24.5q12 0 26 -1.5t23 -6.5q4 -5 6.5 -14.5t2.5 -23.5q0 -11 -3 -20q-15 8 -32 11t-32 3q-36 0 -67.5 -21.5t-51.5 -72.5v-297q26 -2 51.5 -4.5t45.5 -6.5q2 -5 2.5 -14.5t-1.5 -16.5h-236q1 8 3.5 16t5.5 14q14 4 32 7.5t39 5.5v388h-75
q2 20 11 34q33 11 77 11q21 0 37 -4v-81h8zM98 -87q2 9 7.5 19.5t10.5 16.5q15 3 33 3q10 0 22 -2t20 -6q-4 -20 -12 -44t-17 -48t-18.5 -44.5t-17.5 -33.5q-10 2 -18.5 6.5t-13.5 9.5q5 12 10 27.5t10 31.5t9 31t7 27z" />
    <glyph glyph-name="Rcaron" unicode="&#x158;" horiz-adv-x="607" 
d="M128 645q-19 0 -39.5 0.5t-37.5 2.5q-2 8 -2.5 19.5t0.5 19.5q61 5 117.5 7.5t108.5 2.5q54 0 100.5 -11.5t80 -35t52.5 -60t19 -85.5q0 -41 -12.5 -73t-34.5 -55.5t-52 -38t-64 -20.5q24 -50 49 -98.5t47 -88t38 -65.5t21 -29l72 5q0 -10 -2.5 -21.5t-5.5 -19.5
q-24 -6 -51.5 -9.5t-51.5 -5.5q-8 6 -25 33t-40 70t-51 99.5t-59 122.5q-29 0 -59 1.5t-57 5.5v-274q25 -1 46 -2.5t43 -5.5q2 -6 3 -17t-1 -19h-242q2 19 8 35q15 4 39 6.5t43 3.5v600zM189 356q26 -2 53 -3t58 -1q73 0 119 36.5t46 110.5q0 42 -14.5 71t-41 48t-63.5 27.5
t-82 8.5q-17 0 -37 -0.5t-38 -2.5v-295zM256 753l-128 104q7 8 19 14.5t23 8.5l129 -80l129 81q9 -4 17.5 -11.5t14.5 -15.5l-131 -101h-73z" />
    <glyph glyph-name="rcaron" unicode="&#x159;" horiz-adv-x="382" 
d="M181 391q15 45 47.5 69.5t80.5 24.5q12 0 26 -1.5t23 -6.5q4 -5 6.5 -14.5t2.5 -23.5q0 -11 -3 -20q-15 8 -32 11t-32 3q-36 0 -67.5 -21.5t-51.5 -72.5v-297q26 -2 51.5 -4.5t45.5 -6.5q2 -5 2.5 -14.5t-1.5 -16.5h-236q1 8 3.5 16t5.5 14q14 4 32 7.5t39 5.5v388h-75
q2 20 11 34q33 11 77 11q21 0 37 -4v-81h8zM206 540l-119 143q7 6 19 11t23 7l111 -113l109 115q9 -2 18.5 -8.5t14.5 -13.5l-119 -138z" />
    <glyph glyph-name="Sacute" unicode="&#x15a;" horiz-adv-x="516" 
d="M393 641q-20 11 -47 17t-56 6q-72 0 -111 -33.5t-39 -89.5q0 -47 24.5 -75.5t61.5 -49.5t80 -38.5t80 -42t61.5 -61.5t24.5 -96q0 -56 -19.5 -94t-51.5 -61t-74.5 -33t-87.5 -10q-52 0 -100 10.5t-82 24.5q0 37 1.5 78t6.5 76q11 0 24 -1.5t24 -5.5v-109q27 -14 63 -21.5
t71 -7.5q85 0 124.5 38t39.5 106q0 50 -24.5 80.5t-61.5 51t-80.5 37.5t-80.5 41t-61.5 60t-24.5 95q0 78 53.5 125.5t151.5 47.5q39 0 82.5 -8t81.5 -24q0 -31 -2.5 -67t-7.5 -66q-9 0 -22.5 2.5t-21.5 6.5v91zM219 740q-3 8 -5 22t-2 24l198 96q9 -10 16.5 -23.5
t12.5 -27.5z" />
    <glyph glyph-name="sacute" unicode="&#x15b;" horiz-adv-x="416" 
d="M303 429q-14 8 -33.5 13.5t-43.5 5.5q-47 0 -71.5 -19.5t-24.5 -53.5q0 -31 18 -50t44.5 -33t58 -27t58 -31t44.5 -45t18 -70q0 -37 -14 -62.5t-38 -42t-55.5 -24t-65.5 -7.5q-38 0 -74.5 9t-65.5 25q-3 19 -3 40q0 36 8 71q11 0 24 -1.5t24 -4.5v-75q19 -12 45 -18.5
t52 -6.5q47 0 76.5 24t29.5 66q0 34 -18 54.5t-45 35t-58.5 27t-58.5 29.5t-45 43t-18 67q0 54 40.5 85.5t113.5 31.5q35 0 68 -7.5t60 -22.5q2 -8 2 -16v-16q0 -20 -2.5 -38t-6.5 -32q-10 0 -22.5 2.5t-20.5 7.5v66zM198 539q-8 3 -19.5 11.5t-16.5 16.5l113 147
q12 -1 29 -9t26 -16z" />
    <glyph glyph-name="Scircumflex" unicode="&#x15c;" horiz-adv-x="516" 
d="M393 641q-20 11 -47 17t-56 6q-72 0 -111 -33.5t-39 -89.5q0 -47 24.5 -75.5t61.5 -49.5t80 -38.5t80 -42t61.5 -61.5t24.5 -96q0 -56 -19.5 -94t-51.5 -61t-74.5 -33t-87.5 -10q-52 0 -100 10.5t-82 24.5q0 37 1.5 78t6.5 76q11 0 24 -1.5t24 -5.5v-109q27 -14 63 -21.5
t71 -7.5q85 0 124.5 38t39.5 106q0 50 -24.5 80.5t-61.5 51t-80.5 37.5t-80.5 41t-61.5 60t-24.5 95q0 78 53.5 125.5t151.5 47.5q39 0 82.5 -8t81.5 -24q0 -31 -2.5 -67t-7.5 -66q-9 0 -22.5 2.5t-21.5 6.5v91zM309 878l126 -97q-5 -9 -12 -18.5t-15 -14.5l-137 83
l-142 -86q-5 8 -9.5 19.5t-6.5 19.5l126 94h70z" />
    <glyph glyph-name="scircumflex" unicode="&#x15d;" horiz-adv-x="416" 
d="M303 429q-14 8 -33.5 13.5t-43.5 5.5q-47 0 -71.5 -19.5t-24.5 -53.5q0 -31 18 -50t44.5 -33t58 -27t58 -31t44.5 -45t18 -70q0 -37 -14 -62.5t-38 -42t-55.5 -24t-65.5 -7.5q-38 0 -74.5 9t-65.5 25q-3 19 -3 40q0 36 8 71q11 0 24 -1.5t24 -4.5v-75q19 -12 45 -18.5
t52 -6.5q47 0 76.5 24t29.5 66q0 34 -18 54.5t-45 35t-58.5 27t-58.5 29.5t-45 43t-18 67q0 54 40.5 85.5t113.5 31.5q35 0 68 -7.5t60 -22.5q2 -8 2 -16v-16q0 -20 -2.5 -38t-6.5 -32q-10 0 -22.5 2.5t-20.5 7.5v66zM250 701l114 -132q-5 -8 -15 -16t-21 -12l-108 111
l-113 -115q-8 5 -15 15.5t-10 19.5l110 126z" />
    <glyph glyph-name="Scedilla" unicode="&#x15e;" horiz-adv-x="516" 
d="M393 641q-20 11 -47 17t-56 6q-72 0 -111 -33.5t-39 -89.5q0 -47 24.5 -75.5t61.5 -49.5t80 -38.5t80 -42t61.5 -61.5t24.5 -96q0 -51 -16 -86.5t-43 -59t-63 -35.5t-76 -15l-8 -50q29 -6 49.5 -24.5t20.5 -48.5q0 -20 -10 -37.5t-26.5 -31t-38.5 -22.5t-45 -12
q-15 12 -25 29q37 8 60.5 25t23.5 45q0 25 -18.5 41t-46.5 21l20 63q-51 1 -96 11t-77 24q0 37 1.5 78t6.5 76q11 0 24 -1.5t24 -5.5v-109q27 -14 63 -21.5t71 -7.5q85 0 124.5 38t39.5 106q0 50 -24.5 80.5t-61.5 51t-80.5 37.5t-80.5 41t-61.5 60t-24.5 95
q0 78 53.5 125.5t151.5 47.5q39 0 82.5 -8t81.5 -24q0 -31 -2.5 -67t-7.5 -66q-9 0 -22.5 2.5t-21.5 6.5v91z" />
    <glyph glyph-name="scedilla" unicode="&#x15f;" horiz-adv-x="416" 
d="M184 -17q-35 2 -67.5 11t-58.5 23q-3 19 -3 40q0 36 8 71q11 0 24 -1.5t24 -4.5v-75q19 -12 45 -18.5t52 -6.5q47 0 76.5 24t29.5 66q0 34 -18 54.5t-45 35t-58.5 27t-58.5 29.5t-45 43t-18 67q0 54 40.5 85.5t113.5 31.5q35 0 68 -7.5t60 -22.5q2 -8 2 -16v-16
q0 -20 -2.5 -38t-6.5 -32q-10 0 -22.5 2.5t-20.5 7.5v66q-14 8 -33.5 13.5t-43.5 5.5q-47 0 -71.5 -19.5t-24.5 -53.5q0 -31 18 -50t44.5 -33t58 -27t58 -31t44.5 -45t18 -70q0 -33 -11.5 -57t-31.5 -40.5t-46.5 -25.5t-56.5 -12l-9 -45q24 -6 42 -23.5t18 -46.5
q0 -19 -9 -35t-24 -28t-35 -20t-42 -11q-17 13 -23 26q34 6 55 23t21 43q0 22 -16 37t-39 20z" />
    <glyph glyph-name="Scaron" unicode="&#x160;" horiz-adv-x="516" 
d="M393 641q-20 11 -47 17t-56 6q-72 0 -111 -33.5t-39 -89.5q0 -47 24.5 -75.5t61.5 -49.5t80 -38.5t80 -42t61.5 -61.5t24.5 -96q0 -56 -19.5 -94t-51.5 -61t-74.5 -33t-87.5 -10q-52 0 -100 10.5t-82 24.5q0 37 1.5 78t6.5 76q11 0 24 -1.5t24 -5.5v-109q27 -14 63 -21.5
t71 -7.5q85 0 124.5 38t39.5 106q0 50 -24.5 80.5t-61.5 51t-80.5 37.5t-80.5 41t-61.5 60t-24.5 95q0 78 53.5 125.5t151.5 47.5q39 0 82.5 -8t81.5 -24q0 -31 -2.5 -67t-7.5 -66q-9 0 -22.5 2.5t-21.5 6.5v91zM230 753l-128 104q7 8 19 14.5t23 8.5l129 -80l129 81
q9 -4 17.5 -11.5t14.5 -15.5l-131 -101h-73z" />
    <glyph glyph-name="scaron" unicode="&#x161;" horiz-adv-x="416" 
d="M303 429q-14 8 -33.5 13.5t-43.5 5.5q-47 0 -71.5 -19.5t-24.5 -53.5q0 -31 18 -50t44.5 -33t58 -27t58 -31t44.5 -45t18 -70q0 -37 -14 -62.5t-38 -42t-55.5 -24t-65.5 -7.5q-38 0 -74.5 9t-65.5 25q-3 19 -3 40q0 36 8 71q11 0 24 -1.5t24 -4.5v-75q19 -12 45 -18.5
t52 -6.5q47 0 76.5 24t29.5 66q0 34 -18 54.5t-45 35t-58.5 27t-58.5 29.5t-45 43t-18 67q0 54 40.5 85.5t113.5 31.5q35 0 68 -7.5t60 -22.5q2 -8 2 -16v-16q0 -20 -2.5 -38t-6.5 -32q-10 0 -22.5 2.5t-20.5 7.5v66zM191 540l-119 143q7 6 19 11t23 7l111 -113l109 115
q9 -2 18.5 -8.5t14.5 -13.5l-119 -138z" />
    <glyph glyph-name="Tcommaaccent" unicode="&#x162;" horiz-adv-x="562" 
d="M311 44q27 -1 50.5 -2.5t46.5 -5.5q2 -6 3 -17t-1 -19h-112l-12 -65q26 -5 45.5 -23.5t19.5 -47.5q0 -19 -9.5 -35.5t-25 -29t-36.5 -21t-44 -11.5q-15 12 -23 26q36 6 58.5 24t22.5 44q0 23 -17 38.5t-43 20.5l26 80h-106q2 19 8 35q16 4 42 6.5t46 3.5v600h-184
q-2 -24 -4 -49t-5 -45q-9 -2 -20.5 -3t-20.5 -1v139h530v-141q-10 0 -21.5 1.5t-19.5 3.5q-3 18 -5.5 44.5t-3.5 50.5h-185v-601z" />
    <glyph glyph-name="tcommaaccent" unicode="&#x163;" horiz-adv-x="337" 
d="M180 -15q-43 5 -63 35.5t-20 99.5q0 66 0.5 146.5t2.5 161.5h-69q1 8 3.5 18t5.5 17q11 4 27.5 7.5t32.5 5.5l13 112q7 4 19.5 7t23.5 4v-131h151q2 -9 3 -19.5t1 -20.5h-155v-299q0 -27 2 -46t9.5 -31t22.5 -18t40 -6q23 0 45 3.5t46 11.5q0 -21 -7 -36q-45 -21 -94 -24
l-9 -44q24 -6 42 -23.5t18 -46.5q0 -19 -9 -35t-24 -28t-35 -20t-42 -11q-17 13 -23 26q34 6 55 23t21 43q0 22 -16 37t-39 20z" />
    <glyph glyph-name="Tcaron" unicode="&#x164;" horiz-adv-x="562" 
d="M311 44q27 -1 50.5 -2.5t46.5 -5.5q2 -6 3 -17t-1 -19h-256q2 19 8 35q16 4 42 6.5t46 3.5v600h-184q-2 -24 -4 -49t-5 -45q-9 -2 -20.5 -3t-20.5 -1v139h530v-141q-10 0 -21.5 1.5t-19.5 3.5q-3 18 -5.5 44.5t-3.5 50.5h-185v-601zM241 753l-128 104q7 8 19 14.5t23 8.5
l129 -80l129 81q9 -4 17.5 -11.5t14.5 -15.5l-131 -101h-73z" />
    <glyph glyph-name="tcaron" unicode="&#x165;" horiz-adv-x="350" 
d="M113 588q7 4 19.5 7t23.5 4v-131h151q2 -9 3 -19.5t1 -20.5h-155v-299q0 -27 2 -46t9.5 -31t22.5 -18t40 -6q23 0 45 3.5t46 11.5q0 -21 -7 -36q-51 -24 -109 -24q-56 0 -82 30t-26 107q0 66 0.5 146.5t2.5 161.5h-69q1 8 3.5 18t5.5 17q11 4 27.5 7.5t32.5 5.5zM278 669
q2 9 7.5 19.5t10.5 16.5q15 3 33 3q10 0 22 -2t20 -6q-4 -21 -12 -46t-17.5 -49t-19.5 -45.5t-18 -34.5q-10 2 -18.5 6.5t-13.5 9.5q5 13 10.5 29t11 32.5t9.5 32.5l7 28z" />
    <glyph glyph-name="Tbar" unicode="&#x166;" horiz-adv-x="562" 
d="M250 373v272h-184q-2 -24 -4 -49t-5 -45q-9 -2 -20.5 -3t-20.5 -1v139h530v-141q-10 0 -21.5 1.5t-19.5 3.5q-3 18 -5.5 44.5t-3.5 50.5h-185v-272h140q3 -9 3.5 -21.5t-1.5 -20.5h-142v-287q27 -1 50.5 -2.5t46.5 -5.5q2 -6 3 -17t-1 -19h-256q2 19 8 35q16 4 42 6.5
t46 3.5v286h-139q0 10 2 22.5t5 19.5h132z" />
    <glyph glyph-name="tbar" unicode="&#x167;" horiz-adv-x="337" 
d="M97 266q0 81 3 162h-69q1 8 3.5 18t5.5 17q11 4 27.5 7.5t32.5 5.5l13 112q7 4 19.5 7t23.5 4v-131h151q2 -9 3 -19.5t1 -20.5h-155v-162h136q2 -8 2.5 -19.5t-1.5 -18.5h-137v-99q0 -27 2 -46t9.5 -31t22.5 -18t40 -6q23 0 45 3.5t46 11.5q0 -21 -7 -36
q-51 -24 -109 -24q-56 0 -82 30t-26 107v108h-63q0 9 2 20.5t4 17.5h57z" />
    <glyph glyph-name="Utilde" unicode="&#x168;" horiz-adv-x="686" 
d="M164 248q0 -109 46 -166t139 -57q51 0 88 16.5t61 46.5t35.5 71.5t11.5 90.5v392q-23 1 -43 3t-34 4q-2 8 -3 18.5t1 18.5h205q1 -3 1 -7v-6q0 -14 -3 -23q-15 -3 -34.5 -5t-38.5 -3v-387q0 -62 -15 -112.5t-46.5 -86.5t-79.5 -56t-115 -20q-121 0 -179 66t-58 195v401
q-23 1 -42.5 3t-33.5 4q-2 8 -3.5 18.5t-1.5 18.5h230q2 -7 1 -17.5t-3 -18.5q-17 -3 -40.5 -5t-45.5 -3v-394zM497 845q21 0 37 -8q-8 -34 -33.5 -58.5t-73.5 -24.5q-23 0 -41 7t-34.5 15.5t-33.5 15.5t-37 7q-26 0 -43.5 -12.5t-24.5 -31.5q-8 2 -17.5 8t-14.5 14
q11 31 38 52t72 21q25 0 43 -7t34.5 -15.5t32.5 -15.5t36 -7q24 0 39 11.5t21 28.5z" />
    <glyph glyph-name="utilde" unicode="&#x169;" horiz-adv-x="579" 
d="M407 431h-74q2 20 11 34q36 11 81 11q23 0 40 -4v-361q0 -17 1.5 -35.5t5.5 -35.5h79q1 -2 1 -6v-6q0 -8 -1.5 -14t-3.5 -9q-12 -3 -27 -5.5t-31 -4.5t-31.5 -3.5t-28.5 -1.5q-6 14 -10 30t-6 35h-4q-6 -9 -18 -21.5t-31.5 -23.5t-48 -19t-66.5 -8q-29 0 -55 6.5
t-45.5 26t-31 54.5t-11.5 91q0 70 0.5 134t2.5 136h-77q2 20 11 34q36 11 82 11q23 0 40 -4v-303q0 -34 5 -60t17.5 -43.5t33 -26.5t51.5 -9q48 0 85 20t54 41v340zM401 651q8 -1 17.5 -3t15.5 -6q-6 -33 -29.5 -57t-63.5 -24q-20 0 -35.5 7t-29.5 15.5t-28 15.5t-31 7
q-21 0 -36.5 -12.5t-21.5 -31.5q-20 3 -30 19q9 32 33.5 53t62.5 21q22 0 38 -7t29.5 -15t26.5 -15t30 -7q20 0 33.5 11t18.5 29z" />
    <glyph glyph-name="Umacron" unicode="&#x16a;" horiz-adv-x="686" 
d="M164 248q0 -109 46 -166t139 -57q51 0 88 16.5t61 46.5t35.5 71.5t11.5 90.5v392q-23 1 -43 3t-34 4q-2 8 -3 18.5t1 18.5h205q1 -3 1 -7v-6q0 -14 -3 -23q-15 -3 -34.5 -5t-38.5 -3v-387q0 -62 -15 -112.5t-46.5 -86.5t-79.5 -56t-115 -20q-121 0 -179 66t-58 195v401
q-23 1 -42.5 3t-33.5 4q-2 8 -3.5 18.5t-1.5 18.5h230q2 -7 1 -17.5t-3 -18.5q-17 -3 -40.5 -5t-45.5 -3v-394zM511 825q2 -5 2.5 -13.5t0.5 -16.5v-8q0 -4 -1 -9h-312q0 10 2 24.5t4 22.5h304z" />
    <glyph glyph-name="umacron" unicode="&#x16b;" horiz-adv-x="579" 
d="M407 431h-74q2 20 11 34q36 11 81 11q23 0 40 -4v-361q0 -17 1.5 -35.5t5.5 -35.5h79q1 -2 1 -6v-6q0 -8 -1.5 -14t-3.5 -9q-12 -3 -27 -5.5t-31 -4.5t-31.5 -3.5t-28.5 -1.5q-6 14 -10 30t-6 35h-4q-6 -9 -18 -21.5t-31.5 -23.5t-48 -19t-66.5 -8q-29 0 -55 6.5
t-45.5 26t-31 54.5t-11.5 91q0 70 0.5 134t2.5 136h-77q2 20 11 34q36 11 82 11q23 0 40 -4v-303q0 -34 5 -60t17.5 -43.5t33 -26.5t51.5 -9q48 0 85 20t54 41v340zM408 625q2 -5 2.5 -12.5t0.5 -14.5v-7q0 -4 -1 -9h-258q0 9 2 22.5t4 20.5h250z" />
    <glyph glyph-name="Ubreve" unicode="&#x16c;" horiz-adv-x="686" 
d="M164 248q0 -109 46 -166t139 -57q51 0 88 16.5t61 46.5t35.5 71.5t11.5 90.5v392q-23 1 -43 3t-34 4q-2 8 -3 18.5t1 18.5h205q1 -3 1 -7v-6q0 -14 -3 -23q-15 -3 -34.5 -5t-38.5 -3v-387q0 -62 -15 -112.5t-46.5 -86.5t-79.5 -56t-115 -20q-121 0 -179 66t-58 195v401
q-23 1 -42.5 3t-33.5 4q-2 8 -3.5 18.5t-1.5 18.5h230q2 -7 1 -17.5t-3 -18.5q-17 -3 -40.5 -5t-45.5 -3v-394zM242 883q9 -41 38.5 -60.5t74.5 -19.5q94 0 117 77q12 0 25 -3t22 -8q-12 -52 -55 -83t-112 -31q-66 0 -106.5 29t-49.5 77q7 8 20 14t26 8z" />
    <glyph glyph-name="ubreve" unicode="&#x16d;" horiz-adv-x="579" 
d="M407 431h-74q2 20 11 34q36 11 81 11q23 0 40 -4v-361q0 -17 1.5 -35.5t5.5 -35.5h79q1 -2 1 -6v-6q0 -8 -1.5 -14t-3.5 -9q-12 -3 -27 -5.5t-31 -4.5t-31.5 -3.5t-28.5 -1.5q-6 14 -10 30t-6 35h-4q-6 -9 -18 -21.5t-31.5 -23.5t-48 -19t-66.5 -8q-29 0 -55 6.5
t-45.5 26t-31 54.5t-11.5 91q0 70 0.5 134t2.5 136h-77q2 20 11 34q36 11 82 11q23 0 40 -4v-303q0 -34 5 -60t17.5 -43.5t33 -26.5t51.5 -9q48 0 85 20t54 41v340zM179 691q8 -54 34 -78.5t67 -24.5q80 0 103 101q11 -1 21 -3t18 -6q-8 -61 -44.5 -99t-99.5 -38
q-62 0 -96 34t-42 95q7 7 17.5 12t21.5 7z" />
    <glyph glyph-name="Uring" unicode="&#x16e;" horiz-adv-x="686" 
d="M164 248q0 -109 46 -166t139 -57q51 0 88 16.5t61 46.5t35.5 71.5t11.5 90.5v392q-23 1 -43 3t-34 4q-2 8 -3 18.5t1 18.5h205q1 -3 1 -7v-6q0 -14 -3 -23q-15 -3 -34.5 -5t-38.5 -3v-387q0 -62 -15 -112.5t-46.5 -86.5t-79.5 -56t-115 -20q-121 0 -179 66t-58 195v401
q-23 1 -42.5 3t-33.5 4q-2 8 -3.5 18.5t-1.5 18.5h230q2 -7 1 -17.5t-3 -18.5q-17 -3 -40.5 -5t-45.5 -3v-394zM358 913q53 0 83.5 -24t30.5 -69q0 -47 -30.5 -71t-83.5 -24q-55 0 -85.5 25t-30.5 69q0 45 31 69.5t85 24.5zM358 878q-32 0 -50 -15t-18 -44t19 -43.5
t49 -14.5t48 15t18 44t-18 43.5t-48 14.5z" />
    <glyph glyph-name="uring" unicode="&#x16f;" horiz-adv-x="579" 
d="M407 431h-74q2 20 11 34q36 11 81 11q23 0 40 -4v-361q0 -17 1.5 -35.5t5.5 -35.5h79q1 -2 1 -6v-6q0 -8 -1.5 -14t-3.5 -9q-12 -3 -27 -5.5t-31 -4.5t-31.5 -3.5t-28.5 -1.5q-6 14 -10 30t-6 35h-4q-6 -9 -18 -21.5t-31.5 -23.5t-48 -19t-66.5 -8q-29 0 -55 6.5
t-45.5 26t-31 54.5t-11.5 91q0 70 0.5 134t2.5 136h-77q2 20 11 34q36 11 82 11q23 0 40 -4v-303q0 -34 5 -60t17.5 -43.5t33 -26.5t51.5 -9q48 0 85 20t54 41v340zM282 720q44 0 70.5 -23.5t26.5 -66.5q0 -45 -27 -68.5t-70 -23.5q-48 0 -74 23.5t-26 68.5q0 41 27 65.5
t73 24.5zM282 688q-26 0 -42.5 -15t-16.5 -43q0 -30 16 -45t43 -15q25 0 40.5 15.5t15.5 44.5t-15 43.5t-41 14.5z" />
    <glyph glyph-name="Uhungarumlaut" unicode="&#x170;" horiz-adv-x="686" 
d="M164 248q0 -109 46 -166t139 -57q51 0 88 16.5t61 46.5t35.5 71.5t11.5 90.5v392q-23 1 -43 3t-34 4q-2 8 -3 18.5t1 18.5h205q1 -3 1 -7v-6q0 -14 -3 -23q-15 -3 -34.5 -5t-38.5 -3v-387q0 -62 -15 -112.5t-46.5 -86.5t-79.5 -56t-115 -20q-121 0 -179 66t-58 195v401
q-23 1 -42.5 3t-33.5 4q-2 8 -3.5 18.5t-1.5 18.5h230q2 -7 1 -17.5t-3 -18.5q-17 -3 -40.5 -5t-45.5 -3v-394zM256 730q-8 6 -15 16t-11 19l122 123q14 -3 29.5 -11t25.5 -17zM458 730q-8 6 -15 16t-11 19l122 123q14 -3 29.5 -11t25.5 -17z" />
    <glyph glyph-name="uhungarumlaut" unicode="&#x171;" horiz-adv-x="579" 
d="M407 431h-74q2 20 11 34q36 11 81 11q23 0 40 -4v-361q0 -17 1.5 -35.5t5.5 -35.5h79q1 -2 1 -6v-6q0 -8 -1.5 -14t-3.5 -9q-12 -3 -27 -5.5t-31 -4.5t-31.5 -3.5t-28.5 -1.5q-6 14 -10 30t-6 35h-4q-6 -9 -18 -21.5t-31.5 -23.5t-48 -19t-66.5 -8q-29 0 -55 6.5
t-45.5 26t-31 54.5t-11.5 91q0 70 0.5 134t2.5 136h-77q2 20 11 34q36 11 82 11q23 0 40 -4v-303q0 -34 5 -60t17.5 -43.5t33 -26.5t51.5 -9q48 0 85 20t54 41v340zM191 540q-10 3 -21.5 9.5t-17.5 14.5l92 150q14 -1 30.5 -6.5t27.5 -12.5zM371 540q-10 3 -21.5 9.5
t-17.5 14.5l92 150q14 -1 30.5 -6.5t27.5 -12.5z" />
    <glyph glyph-name="Uogonek" unicode="&#x172;" horiz-adv-x="686" 
d="M372 -18q-7 -1 -16.5 -1.5t-17.5 -0.5q-119 0 -177 66.5t-58 194.5v401q-23 1 -42.5 3t-33.5 4q-2 8 -3.5 18.5t-1.5 18.5h230q2 -7 1 -17.5t-3 -18.5q-17 -3 -40.5 -5t-45.5 -3v-394q0 -109 46 -166t139 -57q51 0 88 16.5t61 46.5t35.5 71.5t11.5 90.5v392q-23 1 -43 3
t-34 4q-2 8 -3 18.5t1 18.5h205q1 -3 1 -7v-6q0 -14 -3 -23q-15 -3 -34.5 -5t-38.5 -3v-387q0 -91 -32 -156t-100 -96q-108 -47 -108 -122q0 -38 23.5 -56.5t55.5 -18.5q7 0 15.5 0.5t14.5 2.5q3 -6 5.5 -16.5t3.5 -18.5q-10 -4 -25 -5.5t-26 -1.5q-23 0 -45 6.5t-38.5 20
t-26.5 34t-10 47.5q0 30 17.5 58t51.5 45v4z" />
    <glyph glyph-name="uogonek" unicode="&#x173;" horiz-adv-x="579" 
d="M407 431h-74q2 20 11 34q36 11 81 11q23 0 40 -4v-361q0 -17 1.5 -35.5t5.5 -35.5h79q1 -2 1 -6v-6q0 -8 -1.5 -14t-3.5 -9q-53 -24 -77 -50t-24 -57q0 -35 20 -51t46 -16q8 0 15.5 1t14.5 3q4 -6 6 -17t2 -19q-10 -4 -24 -5.5t-26 -1.5q-21 0 -40 6t-33.5 18.5t-23.5 31
t-9 42.5q0 29 17 56t58 43v4q-18 -3 -40 -3q-6 14 -10 30t-6 35h-4q-6 -9 -18 -21.5t-31.5 -23.5t-48 -19t-66.5 -8q-29 0 -55 6.5t-45.5 26t-31 54.5t-11.5 91q0 70 0.5 134t2.5 136h-77q2 20 11 34q36 11 82 11q23 0 40 -4v-303q0 -34 5 -60t17.5 -43.5t33 -26.5t51.5 -9
q48 0 85 20t54 41v340z" />
    <glyph glyph-name="Wcircumflex" unicode="&#x174;" horiz-adv-x="949" 
d="M292 40q5 29 11 61t12 58l130 536h73l122 -539q13 -58 21 -116h6q5 28 10.5 57.5t13.5 57.5l95 358q8 32 19 67.5t22 62.5q-23 1 -43 2.5t-39 4.5q-2 7 -4 18t-2 18h201q0 -8 -2 -18.5t-5 -18.5q-11 -2 -26.5 -3.5t-32.5 -2.5l-184 -656h-67l-117 508q-4 16 -7.5 35
t-7 39t-6.5 40t-5 38h-6q-2 -18 -5.5 -38.5t-7.5 -41t-8 -40t-8 -34.5l-124 -506h-69l-173 655q-15 1 -30.5 3t-26.5 5q-6 16 -8 36h220q0 -18 -7 -37q-19 -2 -44 -3.5t-51 -2.5q11 -27 22 -63.5t19 -66.5l91 -354q6 -24 12 -57t10 -62h6zM515 878l126 -97q-5 -9 -12 -18.5
t-15 -14.5l-137 83l-142 -86q-5 8 -9.5 19.5t-6.5 19.5l126 94h70z" />
    <glyph glyph-name="wcircumflex" unicode="&#x175;" horiz-adv-x="733" 
d="M229 38q3 20 7 40.5t9 37.5l96 350l72 7l87 -358q5 -20 8 -38t5 -38h7q3 20 6.5 38.5t9.5 38.5l64 214q8 25 16.5 50t16.5 45q-20 2 -37.5 4t-32.5 6q-3 7 -4.5 16t-1.5 17h168q0 -8 -2 -17.5t-5 -16.5q-9 -4 -21.5 -6t-22.5 -3l-130 -428l-66 -7l-85 337q-5 19 -10 47
t-7 53h-7q-4 -26 -9.5 -52.5t-11.5 -49.5l-92 -328l-67 -7l-125 432q-14 2 -27.5 5.5t-23.5 7.5q-5 13 -7 33h194q0 -7 -1.5 -16.5t-3.5 -16.5q-17 -3 -37 -5t-43 -4q9 -18 17 -41.5t14 -45.5l63 -225q5 -17 8 -37t5 -39h7zM400 701l114 -132q-5 -8 -15 -16t-21 -12
l-108 111l-113 -115q-8 5 -15 15.5t-10 19.5l110 126z" />
    <glyph glyph-name="Ycircumflex" unicode="&#x176;" horiz-adv-x="578" 
d="M296 321q5 17 13 36t16 35l89 169q11 20 23 41t26 41q-20 1 -40 2.5t-36 4.5q-3 7 -5 18t-2 18h191q0 -8 -2 -19.5t-4 -17.5q-11 -2 -25 -3.5t-27 -2.5l-199 -364v-235q27 -1 51 -2.5t47 -5.5q2 -6 3 -17t-1 -19h-258q2 19 8 35q16 4 42.5 6.5t46.5 3.5v235l-184 362
q-13 1 -28 3t-25 4q-3 8 -4.5 18.5t-1.5 18.5h213q0 -8 -2 -18.5t-4 -17.5q-20 -3 -42 -4.5t-45 -2.5q13 -18 25 -38.5t22 -40.5l86 -172q7 -14 14.5 -34t12.5 -37h6zM327 878l126 -97q-5 -9 -12 -18.5t-15 -14.5l-137 83l-142 -86q-5 8 -9.5 19.5t-6.5 19.5l126 94h70z" />
    <glyph glyph-name="ycircumflex" unicode="&#x177;" horiz-adv-x="492" 
d="M260 32q5 22 12 48t14 46l69 207q8 23 17.5 48t18.5 44l-38 4q-19 2 -33 6q-2 6 -4 15.5t-2 17.5h174q0 -8 -2.5 -18.5t-4.5 -16.5q-10 -3 -22.5 -5t-23.5 -3l-58 -171q-12 -35 -25 -73t-27 -76t-28 -73.5t-27 -65.5q-19 -40 -39.5 -71.5t-44.5 -55.5t-53 -42.5
t-65 -32.5q-18 18 -23 50q68 21 113.5 66.5t67.5 100.5l-164 441q-14 2 -28 5.5t-24 7.5q-5 13 -7 33h200q0 -16 -5 -33q-16 -3 -38.5 -5.5t-43.5 -3.5q10 -20 20 -45t18 -48l76 -210q7 -18 13 -43.5t10 -47.5h7zM288 701l114 -132q-5 -8 -15 -16t-21 -12l-108 111
l-113 -115q-8 5 -15 15.5t-10 19.5l110 126z" />
    <glyph glyph-name="Ydieresis" unicode="&#x178;" horiz-adv-x="578" 
d="M296 321q5 17 13 36t16 35l89 169q11 20 23 41t26 41q-20 1 -40 2.5t-36 4.5q-3 7 -5 18t-2 18h191q0 -8 -2 -19.5t-4 -17.5q-11 -2 -25 -3.5t-27 -2.5l-199 -364v-235q27 -1 51 -2.5t47 -5.5q2 -6 3 -17t-1 -19h-258q2 19 8 35q16 4 42.5 6.5t46.5 3.5v235l-184 362
q-13 1 -28 3t-25 4q-3 8 -4.5 18.5t-1.5 18.5h213q0 -8 -2 -18.5t-4 -17.5q-20 -3 -42 -4.5t-45 -2.5q13 -18 25 -38.5t22 -40.5l86 -172q7 -14 14.5 -34t12.5 -37h6zM174 843q20 0 32 -10.5t12 -30.5q0 -21 -12 -32t-32 -11q-44 0 -44 42q0 20 12 31t32 11zM406 843
q20 0 32 -10.5t12 -30.5q0 -21 -12 -32t-32 -11q-44 0 -44 42q0 20 12 31t32 11z" />
    <glyph glyph-name="Zacute" unicode="&#x179;" horiz-adv-x="551" 
d="M51 49l383 587v5h-316q-1 -23 -4 -52t-6 -49q-10 -2 -22 -3t-23 -1v150h440v-48l-380 -587v-4h335q1 23 3.5 53t5.5 52q9 3 22 5t23 2v-159h-461v49zM229 740q-3 8 -5 22t-2 24l198 96q9 -10 16.5 -23.5t12.5 -27.5z" />
    <glyph glyph-name="zacute" unicode="&#x17a;" horiz-adv-x="447" 
d="M50 31l278 393v4h-210q-1 -16 -4 -37t-8 -38q-10 0 -22.5 2t-19.5 5v108h331l7 -31l-279 -393v-5q57 0 116.5 1.5t114.5 5.5q3 18 9 40.5t11 38.5q10 3 23 3h9q5 0 10 -1l-16 -127h-341zM204 539q-8 3 -19.5 11.5t-16.5 16.5l113 147q12 -1 29 -9t26 -16z" />
    <glyph glyph-name="Zdotaccent" unicode="&#x17b;" horiz-adv-x="551" 
d="M51 49l383 587v5h-316q-1 -23 -4 -52t-6 -49q-10 -2 -22 -3t-23 -1v150h440v-48l-380 -587v-4h335q1 23 3.5 53t5.5 52q9 3 22 5t23 2v-159h-461v49zM288 848q20 0 31.5 -10.5t11.5 -31.5q0 -44 -43 -44t-43 43t43 43z" />
    <glyph glyph-name="zdotaccent" unicode="&#x17c;" horiz-adv-x="447" 
d="M50 31l278 393v4h-210q-1 -16 -4 -37t-8 -38q-10 0 -22.5 2t-19.5 5v108h331l7 -31l-279 -393v-5q57 0 116.5 1.5t114.5 5.5q3 18 9 40.5t11 38.5q10 3 23 3h9q5 0 10 -1l-16 -127h-341zM230 646q18 0 29.5 -10t11.5 -30t-11 -31t-30 -11q-41 0 -41 41q0 19 11 30t30 11z
" />
    <glyph glyph-name="Zcaron" unicode="&#x17d;" horiz-adv-x="551" 
d="M51 49l383 587v5h-316q-1 -23 -4 -52t-6 -49q-10 -2 -22 -3t-23 -1v150h440v-48l-380 -587v-4h335q1 23 3.5 53t5.5 52q9 3 22 5t23 2v-159h-461v49zM245 753l-128 104q7 8 19 14.5t23 8.5l129 -80l129 81q9 -4 17.5 -11.5t14.5 -15.5l-131 -101h-73z" />
    <glyph glyph-name="zcaron" unicode="&#x17e;" horiz-adv-x="447" 
d="M50 31l278 393v4h-210q-1 -16 -4 -37t-8 -38q-10 0 -22.5 2t-19.5 5v108h331l7 -31l-279 -393v-5q57 0 116.5 1.5t114.5 5.5q3 18 9 40.5t11 38.5q10 3 23 3h9q5 0 10 -1l-16 -127h-341zM197 540l-119 143q7 6 19 11t23 7l111 -113l109 115q9 -2 18.5 -8.5t14.5 -13.5
l-119 -138z" />
    <glyph glyph-name="longs" unicode="&#x17f;" horiz-adv-x="302" 
d="M123 423q-19 1 -38 3t-33 5q-2 7 -2.5 18.5t0.5 18.5h73v85q0 51 12.5 86t34 56t50 30t60.5 9q19 0 40.5 -3t40.5 -10q2 -8 2 -17v-16q0 -21 -2.5 -40.5t-7.5 -33.5q-8 0 -19.5 2.5t-19.5 7.5v69q-8 3 -17.5 4.5t-18.5 1.5q-18 0 -35.5 -6t-31 -21.5t-22 -42.5t-8.5 -70
v-517q26 -2 52 -4.5t46 -6.5q2 -5 2.5 -14.5t-1.5 -16.5h-237q1 8 3.5 16t5.5 14q14 4 32 7.5t39 5.5v380z" />
    <glyph glyph-name="uni018F" unicode="&#x18f;" horiz-adv-x="664" 
d="M72 260q0 23 2.5 50.5t9.5 50.5h469q-8 140 -74 217.5t-175 77.5q-48 0 -99.5 -8.5t-90.5 -23.5q0 23 10 41q32 18 84.5 29.5t109.5 11.5q74 0 130 -27t94 -75t57.5 -114t19.5 -144q0 -80 -19.5 -147t-57.5 -116t-93 -76t-127 -27q-63 0 -110 20.5t-78 58t-46.5 88.5
t-15.5 113zM326 24q100 0 161.5 74t66.5 220h-413q-2 -14 -3.5 -30.5t-1.5 -33.5q0 -42 9.5 -83t31.5 -74t58.5 -53t90.5 -20z" />
    <glyph glyph-name="florin" unicode="&#x192;" 
d="M303 289l-25 -293q-5 -53 -22 -88.5t-42 -57t-56 -31t-64 -9.5q-21 0 -43.5 4t-41.5 12q0 12 2 27.5t5 31.5t6.5 30.5t6.5 25.5q8 -1 18.5 -3.5t18.5 -6.5l-7 -77q17 -7 37 -7q19 0 39.5 6t37.5 21.5t29.5 42.5t16.5 69l27 303h-148q0 10 2.5 22t5.5 19h143l16 166
q5 53 22 88.5t42 57t56 30.5t64 9q43 0 81 -15q-1 -23 -7 -56t-14 -55q-8 1 -18.5 3.5t-17.5 6.5l9 71q-17 9 -39 9q-19 0 -39 -6t-37 -22t-29.5 -43t-16.5 -69l-15 -175h165q2 -8 1.5 -20.5t-3.5 -20.5h-166z" />
    <glyph glyph-name="uni01B5" unicode="&#x1b5;" horiz-adv-x="551" 
d="M260 369l174 267v5h-316q-1 -23 -4 -51t-6 -48q-10 -2 -22 -3t-23 -1v148h440v-48l-174 -269h134q3 -9 3.5 -21.5t-1.5 -20.5h-163l-179 -276v-4h335q1 23 3.5 52t5.5 51q9 3 22 5t23 2v-157h-461v49l181 278h-135q0 10 2 22.5t5 19.5h156z" />
    <glyph glyph-name="uni01B6" unicode="&#x1b6;" horiz-adv-x="447" 
d="M212 260l116 164v4h-210q-1 -15 -4 -35t-7 -36q-10 0 -23 2t-20 5v104h331l7 -31l-126 -177h100q2 -8 2.5 -19.5t-1.5 -18.5h-128l-126 -178v-5q57 0 116.5 1.5t114.5 5.5q3 17 8.5 38.5t10.5 36.5q10 3 23 3h9q5 0 10 -1l-15 -123h-341l-9 31l135 191h-95q0 9 2 20.5
t4 17.5h116z" />
    <glyph glyph-name="Aringacute" unicode="&#x1fa;" horiz-adv-x="708" 
d="M355 885q53 0 83.5 -24t30.5 -69q0 -42 -24 -65.5t-66 -28.5l242 -653q32 -2 63 -8q2 -6 4.5 -17.5t2.5 -19.5h-222q1 8 4 19t5 16q17 4 41 6.5t43 3.5q-12 22 -22.5 45.5t-18.5 46.5l-36 99h-275l-36 -101q-8 -23 -17.5 -46.5t-20.5 -44.5q22 -1 46 -3t45 -6
q2 -6 4 -16.5t2 -18.5h-221q1 8 4 18.5t6 16.5q12 3 28 5t34 4l243 654q-42 6 -65 30.5t-23 62.5q0 45 31 69.5t85 24.5zM345 636q-5 -26 -14.5 -58t-19.5 -58l-87 -244h246l-89 247q-9 25 -17 54.5t-13 58.5h-6zM355 850q-32 0 -50 -15t-18 -44t19 -43.5t49 -14.5t48 15
t18 44t-18 43.5t-48 14.5zM254 899q-3 8 -5 22t-2 24l198 96q9 -10 16.5 -23.5t12.5 -27.5z" />
    <glyph glyph-name="aringacute" unicode="&#x1fb;" horiz-adv-x="488" 
d="M332 47q-23 -33 -60.5 -48.5t-78.5 -15.5q-28 0 -54 7.5t-46 23.5t-32 41t-12 60q0 38 14.5 66.5t40 47.5t59 28.5t71.5 9.5q26 0 51.5 -4t44.5 -12v49q0 72 -24 105t-80 33q-17 0 -36 -3.5t-38 -9.5t-36 -14t-30 -17q-4 9 -4 24q0 10 2.5 19.5t5.5 14.5q12 7 29.5 13
t38 10.5t41.5 7t40 2.5q38 0 66 -9.5t46 -30.5t27 -55t9 -84v-218q0 -17 3.5 -32t8.5 -23q15 1 35 4t37 7q1 -3 1 -9q0 -17 -7 -27q-7 -4 -19.5 -8t-26.5 -7.5t-28 -6t-24 -2.5q-11 11 -20 28t-11 35h-4zM331 217q-18 5 -40.5 8.5t-45.5 3.5q-66 0 -101.5 -29t-35.5 -77
q0 -49 31 -71.5t74 -22.5q33 0 67 14t51 43v131zM231 720q44 0 70.5 -23.5t26.5 -66.5q0 -45 -27 -68.5t-70 -23.5q-48 0 -74 23.5t-26 68.5q0 41 27 65.5t73 24.5zM231 688q-26 0 -42.5 -15t-16.5 -43q0 -30 16 -45t43 -15q25 0 40.5 15.5t15.5 44.5t-15 43.5t-41 14.5z
M184 738q-8 3 -19.5 11.5t-16.5 16.5l113 147q12 -1 29 -9t26 -16z" />
    <glyph glyph-name="AEacute" unicode="&#x1fc;" horiz-adv-x="896" 
d="M382 0q1 8 3.5 17.5t5.5 17.5q16 3 37 6t40 4v199h-221l-60 -108q-13 -23 -27.5 -47.5t-28.5 -44.5q49 -2 89 -9q2 -6 4 -17t2 -18h-220q2 19 10 34q23 7 60 10l339 600q-25 1 -48 2.5t-39 3.5q-2 8 -3 18.5t0 17.5h513v-131q-9 0 -20.5 1t-18.5 3q-3 17 -5.5 41.5
t-3.5 44.5h-262v-285h214q1 14 3 31.5t5 30.5q7 2 18.5 3.5t19.5 1.5v-176q-8 -1 -19.5 0t-19.5 3q-2 13 -4 31t-3 34h-214v-276h269q1 23 3.5 48t5.5 44q8 2 20.5 3.5t21.5 1.5v-140h-466zM468 645h-6q-10 -23 -22.5 -49.5t-25.5 -49.5l-145 -262h199v361zM438 740
q-3 8 -5 22t-2 24l198 96q9 -10 16.5 -23.5t12.5 -27.5z" />
    <glyph glyph-name="aeacute" unicode="&#x1fd;" horiz-adv-x="758" 
d="M387 228q2 -97 51 -147.5t128 -50.5q35 0 72.5 9.5t64.5 21.5q1 -9 -1.5 -20t-7.5 -19q-23 -14 -64 -26.5t-86 -12.5q-62 0 -104.5 25t-66.5 67h-4q-25 -46 -69 -69t-98 -23q-32 0 -60 8t-48.5 24.5t-32.5 42t-12 59.5q0 39 14.5 68t40 48.5t58.5 29t71 9.5q25 0 51.5 -4
t45.5 -12v46q0 71 -24 103.5t-80 32.5q-16 0 -35 -3.5t-38 -9.5t-36.5 -14t-30.5 -17q-3 9 -3 22q0 20 7 36q12 7 30 13t38.5 10.5t41.5 7t39 2.5q66 0 96.5 -26t36.5 -76h4q16 44 62.5 73t108.5 29q43 0 73.5 -15t50.5 -42t29.5 -65t9.5 -84q0 -14 -1 -28t-3 -23h-319z
M354 105q-11 25 -17.5 55t-7.5 62q-18 5 -40.5 8.5t-43.5 3.5q-67 0 -102 -29.5t-35 -79.5t32 -72.5t81 -22.5q43 0 76 18t57 57zM650 269q3 30 0 62t-16 57.5t-36.5 42t-60.5 16.5q-33 0 -59 -13.5t-45.5 -37t-30.5 -56t-14 -71.5h262zM341 539q-8 3 -19.5 11.5t-16.5 16.5
l113 147q12 -1 29 -9t26 -16z" />
    <glyph glyph-name="Oslashacute" unicode="&#x1fe;" horiz-adv-x="723" 
d="M363 706q62 0 114 -20t91 -59l88 104q10 -4 21 -13t17 -17l-95 -112q31 -44 47.5 -103t16.5 -134q0 -89 -21.5 -158t-60.5 -116.5t-94.5 -72.5t-123.5 -25q-133 0 -209 78l-95 -114q-8 8 -15 20.5t-10 23.5l89 108q-31 46 -47 110t-16 146t22.5 148t62.5 111.5t96 70
t122 24.5zM125 352q0 -126 42 -207l363 436q-31 38 -73 59t-94 21q-59 0 -103.5 -22t-74.5 -62.5t-45 -97.5t-15 -127zM599 352q0 56 -11 103t-31 85l-364 -435q30 -38 73 -58.5t97 -20.5q58 0 102 23t74 65t45 102.5t15 135.5zM286 740q-3 8 -5 22t-2 24l198 96
q9 -10 16.5 -23.5t12.5 -27.5z" />
    <glyph glyph-name="oslashacute" unicode="&#x1ff;" horiz-adv-x="547" 
d="M274 485q80 0 133 -42l53 67q9 -3 19 -10t15 -15l-56 -71q26 -31 39.5 -74t13.5 -98q0 -62 -15.5 -110.5t-44 -81.5t-68.5 -50t-89 -17q-89 0 -141 45l-60 -77q-8 7 -15 17.5t-11 19.5l57 72q-23 32 -35.5 77.5t-12.5 104.5q0 57 16 102t45 76.5t69 48t88 16.5zM431 242
q0 38 -8 69.5t-22 57.5l-235 -297q41 -47 108 -47q78 0 117.5 58.5t39.5 158.5zM116 242q0 -83 27 -135l233 295q-20 20 -45.5 31.5t-56.5 11.5q-77 0 -117.5 -55.5t-40.5 -147.5zM240 539q-8 3 -19.5 11.5t-16.5 16.5l113 147q12 -1 29 -9t26 -16z" />
    <glyph glyph-name="Scommaaccent" unicode="&#x218;" horiz-adv-x="516" 
d="M393 641q-20 11 -47 17t-56 6q-72 0 -111 -33.5t-39 -89.5q0 -47 24.5 -75.5t61.5 -49.5t80 -38.5t80 -42t61.5 -61.5t24.5 -96q0 -56 -19.5 -94t-51.5 -61t-74.5 -33t-87.5 -10q-52 0 -100 10.5t-82 24.5q0 37 1.5 78t6.5 76q11 0 24 -1.5t24 -5.5v-109q27 -14 63 -21.5
t71 -7.5q85 0 124.5 38t39.5 106q0 50 -24.5 80.5t-61.5 51t-80.5 37.5t-80.5 41t-61.5 60t-24.5 95q0 78 53.5 125.5t151.5 47.5q39 0 82.5 -8t81.5 -24q0 -31 -2.5 -67t-7.5 -66q-9 0 -22.5 2.5t-21.5 6.5v91zM212 -83q2 10 8 20.5t11 17.5q16 3 35 3q11 0 23.5 -2
t20.5 -6q-5 -21 -13.5 -47t-18 -51t-19.5 -47t-19 -35q-23 5 -35 17q11 26 22.5 62t17.5 62z" />
    <glyph glyph-name="scommaaccent" unicode="&#x219;" horiz-adv-x="416" 
d="M303 429q-14 8 -33.5 13.5t-43.5 5.5q-47 0 -71.5 -19.5t-24.5 -53.5q0 -31 18 -50t44.5 -33t58 -27t58 -31t44.5 -45t18 -70q0 -37 -14 -62.5t-38 -42t-55.5 -24t-65.5 -7.5q-38 0 -74.5 9t-65.5 25q-3 19 -3 40q0 36 8 71q11 0 24 -1.5t24 -4.5v-75q19 -12 45 -18.5
t52 -6.5q47 0 76.5 24t29.5 66q0 34 -18 54.5t-45 35t-58.5 27t-58.5 29.5t-45 43t-18 67q0 54 40.5 85.5t113.5 31.5q35 0 68 -7.5t60 -22.5q2 -8 2 -16v-16q0 -20 -2.5 -38t-6.5 -32q-10 0 -22.5 2.5t-20.5 7.5v66zM164 -87q2 9 7.5 19.5t10.5 16.5q15 3 33 3q10 0 22 -2
t20 -6q-4 -20 -12 -44t-17 -48t-18.5 -44.5t-17.5 -33.5q-10 2 -18.5 6.5t-13.5 9.5q5 12 10 27.5t10 31.5t9 31t7 27z" />
    <glyph glyph-name="uni021A" unicode="&#x21a;" horiz-adv-x="562" 
d="M311 44q27 -1 50.5 -2.5t46.5 -5.5q2 -6 3 -17t-1 -19h-256q2 19 8 35q16 4 42 6.5t46 3.5v600h-184q-2 -24 -4 -49t-5 -45q-9 -2 -20.5 -3t-20.5 -1v139h530v-141q-10 0 -21.5 1.5t-19.5 3.5q-3 18 -5.5 44.5t-3.5 50.5h-185v-601zM227 -83q2 10 8 20.5t11 17.5
q16 3 35 3q11 0 23.5 -2t20.5 -6q-5 -21 -13.5 -47t-18 -51t-19.5 -47t-19 -35q-23 5 -35 17q11 26 22.5 62t17.5 62z" />
    <glyph glyph-name="uni021B" unicode="&#x21b;" horiz-adv-x="337" 
d="M113 588q7 4 19.5 7t23.5 4v-131h151q2 -9 3 -19.5t1 -20.5h-155v-299q0 -27 2 -46t9.5 -31t22.5 -18t40 -6q23 0 45 3.5t46 11.5q0 -21 -7 -36q-51 -24 -109 -24q-56 0 -82 30t-26 107q0 66 0.5 146.5t2.5 161.5h-69q1 8 3.5 18t5.5 17q11 4 27.5 7.5t32.5 5.5zM159 -87
q2 9 7.5 19.5t10.5 16.5q15 3 33 3q10 0 22 -2t20 -6q-4 -20 -12 -44t-17 -48t-18.5 -44.5t-17.5 -33.5q-10 2 -18.5 6.5t-13.5 9.5q5 12 10 27.5t10 31.5t9 31t7 27z" />
    <glyph glyph-name="dotlessj" unicode="&#x237;" horiz-adv-x="246" 
d="M163 53q0 -52 -12.5 -94t-32.5 -77t-45 -64t-51 -54q-21 8 -31 27q21 21 41.5 45.5t36.5 55t26 66.5t10 79v394h-75q2 20 11 34q36 11 82 11q23 0 40 -4v-419z" />
    <glyph glyph-name="uni0259" unicode="&#x259;" horiz-adv-x="491" 
d="M59 180q0 14 2 32.5t6 33.5h314q-7 95 -51 143.5t-121 48.5q-32 0 -68.5 -6t-62.5 -16q-1 9 1.5 21t7.5 19q23 12 62.5 20.5t79.5 8.5q51 0 90.5 -18.5t67 -51.5t42 -79t14.5 -100t-14 -100.5t-40.5 -80t-65.5 -53t-88 -19.5q-45 0 -78 14.5t-54.5 41t-32.5 62.5t-11 79z
M121 205q-5 -30 -2.5 -62t16 -59t39.5 -44.5t67 -17.5q62 0 99 47.5t41 135.5h-260z" />
    <glyph glyph-name="uni02BB" unicode="&#x2bb;" horiz-adv-x="228" 
d="M174 695q-7 -15 -14.5 -35t-14.5 -40.5t-12.5 -39.5t-8.5 -32l35 -8q-2 -9 -9.5 -23t-14.5 -22q-21 2 -40.5 8.5t-35.5 14.5q6 22 14.5 46t18 46.5t19.5 43t19 35.5q7 2 19 4t25 2z" />
    <glyph glyph-name="afii57929" unicode="&#x2bc;" horiz-adv-x="227" 
d="M65 654q2 11 8 22t13 19q8 2 14.5 2.5t16.5 0.5q16 0 27.5 -2t22.5 -6q-5 -24 -14 -51.5t-19.5 -54.5t-22 -50.5t-20.5 -38.5q-9 3 -18 8t-14 10q6 15 12.5 32.5t12 35.5t10 35t6.5 30z" />
    <glyph glyph-name="circumflex" unicode="&#x2c6;" horiz-adv-x="405" 
d="M237 701l114 -132q-5 -8 -15 -16t-21 -12l-108 111l-113 -115q-8 5 -15 15.5t-10 19.5l110 126z" />
    <glyph glyph-name="caron" unicode="&#x2c7;" horiz-adv-x="405" 
d="M181 540l-119 143q7 6 19 11t23 7l111 -113l109 115q9 -2 18.5 -8.5t14.5 -13.5l-119 -138z" />
    <glyph glyph-name="breve" unicode="&#x2d8;" horiz-adv-x="405" 
d="M101 691q8 -54 34 -78.5t67 -24.5q80 0 103 101q11 -1 21 -3t18 -6q-8 -61 -44.5 -99t-99.5 -38q-62 0 -96 34t-42 95q7 7 17.5 12t21.5 7z" />
    <glyph glyph-name="dotaccent" unicode="&#x2d9;" horiz-adv-x="405" 
d="M201 646q18 0 29.5 -10t11.5 -30t-11 -31t-30 -11q-41 0 -41 41q0 19 11 30t30 11z" />
    <glyph glyph-name="ring" unicode="&#x2da;" horiz-adv-x="405" 
d="M204 720q44 0 70.5 -23.5t26.5 -66.5q0 -45 -27 -68.5t-70 -23.5q-48 0 -74 23.5t-26 68.5q0 41 27 65.5t73 24.5zM204 688q-26 0 -42.5 -15t-16.5 -43q0 -30 16 -45t43 -15q25 0 40.5 15.5t15.5 44.5t-15 43.5t-41 14.5z" />
    <glyph glyph-name="ogonek" unicode="&#x2db;" horiz-adv-x="405" 
d="M264 -165q4 -6 6 -17t2 -19q-10 -4 -24 -5.5t-26 -1.5q-21 0 -40 6t-33.5 18.5t-23.5 31t-9 42.5q0 31 22 63t75 50q11 2 26 2.5t28 0.5q-53 -23 -76 -49.5t-23 -58.5q0 -35 20 -51t46 -16q8 0 15.5 1t14.5 3z" />
    <glyph glyph-name="tilde" unicode="&#x2dc;" horiz-adv-x="405" 
d="M322 651q8 -1 17.5 -3t15.5 -6q-6 -33 -29.5 -57t-63.5 -24q-20 0 -35.5 7t-29.5 15.5t-28 15.5t-31 7q-21 0 -36.5 -12.5t-21.5 -31.5q-20 3 -30 19q9 32 33.5 53t62.5 21q22 0 38 -7t29.5 -15t26.5 -15t30 -7q20 0 33.5 11t18.5 29z" />
    <glyph glyph-name="hungarumlaut" unicode="&#x2dd;" horiz-adv-x="405" 
d="M90 540q-10 3 -21.5 9.5t-17.5 14.5l92 150q14 -1 30.5 -6.5t27.5 -12.5zM270 540q-10 3 -21.5 9.5t-17.5 14.5l92 150q14 -1 30.5 -6.5t27.5 -12.5z" />
    <glyph glyph-name="gravecomb" unicode="&#x300;" horiz-adv-x="1" 
d="M-175 692q11 6 30 10.5t35 4.5l111 -146q-7 -5 -20.5 -9.5t-24.5 -5.5z" />
    <glyph glyph-name="acutecomb" unicode="&#x301;" horiz-adv-x="1" 
d="M-131 539q-8 3 -19.5 11.5t-16.5 16.5l113 147q12 -1 29 -9t26 -16z" />
    <glyph glyph-name="uni0302" unicode="&#x302;" horiz-adv-x="1" 
d="M-113 701l114 -132q-5 -8 -15 -16t-21 -12l-108 111l-113 -115q-8 5 -15 15.5t-10 19.5l110 126z" />
    <glyph glyph-name="tildecomb" unicode="&#x303;" horiz-adv-x="1" 
d="M-32 651q8 -1 17.5 -3t15.5 -6q-6 -33 -29.5 -57t-63.5 -24q-20 0 -35.5 7t-29.5 15.5t-28 15.5t-31 7q-21 0 -36.5 -12.5t-21.5 -31.5q-20 3 -30 19q9 32 33.5 53t62.5 21q22 0 38 -7t29.5 -15t26.5 -15t30 -7q20 0 33.5 11t18.5 29z" />
    <glyph glyph-name="uni0304" unicode="&#x304;" horiz-adv-x="1" 
d="M-2 625q2 -5 2.5 -12.5t0.5 -14.5v-7q0 -4 -1 -9h-258q0 9 2 22.5t4 20.5h250z" />
    <glyph glyph-name="uni0306" unicode="&#x306;" horiz-adv-x="1" 
d="M-242 691q8 -54 34 -78.5t67 -24.5q80 0 103 101q11 -1 21 -3t18 -6q-8 -61 -44.5 -99t-99.5 -38q-62 0 -96 34t-42 95q7 7 17.5 12t21.5 7z" />
    <glyph glyph-name="uni0307" unicode="&#x307;" horiz-adv-x="1" 
d="M-40 646q18 0 29.5 -10t11.5 -30t-11 -31t-30 -11q-41 0 -41 41q0 19 11 30t30 11z" />
    <glyph glyph-name="uni0308" unicode="&#x308;" horiz-adv-x="1" 
d="M-239 644q17 0 28 -9.5t11 -28.5q0 -20 -10.5 -30t-28.5 -10q-39 0 -39 39q0 18 10.5 28.5t28.5 10.5zM-38 644q17 0 28 -9.5t11 -28.5q0 -20 -10.5 -30t-28.5 -10q-39 0 -39 39q0 18 10.5 28.5t28.5 10.5z" />
    <glyph glyph-name="uni030A" unicode="&#x30a;" horiz-adv-x="1" 
d="M-96 720q44 0 70.5 -23.5t26.5 -66.5q0 -45 -27 -68.5t-70 -23.5q-48 0 -74 23.5t-26 68.5q0 41 27 65.5t73 24.5zM-96 688q-26 0 -42.5 -15t-16.5 -43q0 -30 16 -45t43 -15q25 0 40.5 15.5t15.5 44.5t-15 43.5t-41 14.5z" />
    <glyph glyph-name="uni030B" unicode="&#x30b;" horiz-adv-x="1" 
d="M-290 540q-10 3 -21.5 9.5t-17.5 14.5l92 150q14 -1 30.5 -6.5t27.5 -12.5zM-110 540q-10 3 -21.5 9.5t-17.5 14.5l92 150q14 -1 30.5 -6.5t27.5 -12.5z" />
    <glyph glyph-name="uni030C" unicode="&#x30c;" horiz-adv-x="1" 
d="M-175 540l-119 143q7 6 19 11t23 7l111 -113l109 115q9 -2 18.5 -8.5t14.5 -13.5l-119 -138z" />
    <glyph glyph-name="uni0312" unicode="&#x312;" horiz-adv-x="1" 
d="M1 717q-6 -13 -12 -30t-11.5 -34t-10 -33.5t-6.5 -27.5l35 -7q-2 -8 -8.5 -21t-12.5 -21q-21 2 -40.5 8t-32.5 13q4 19 11 39.5t15 40t16 37t16 30.5q7 2 19 4t22 2z" />
    <glyph glyph-name="uni0313" unicode="&#x313;" horiz-adv-x="1" 
d="M-92 675q2 9 7.5 19.5t10.5 16.5q15 3 33 3q10 0 22 -2t20 -6q-4 -21 -12 -46t-17.5 -49t-19.5 -45.5t-18 -34.5q-10 2 -18.5 6.5t-13.5 9.5q5 13 10.5 29t11 32.5t9.5 32.5l7 28z" />
    <glyph glyph-name="uni0326" unicode="&#x326;" horiz-adv-x="1" 
d="M-92 -87q2 9 7.5 19.5t10.5 16.5q15 3 33 3q10 0 22 -2t20 -6q-4 -20 -12 -44t-17 -48t-18.5 -44.5t-17.5 -33.5q-10 2 -18.5 6.5t-13.5 9.5q5 12 10 27.5t10 31.5t9 31t7 27z" />
    <glyph glyph-name="uni0394" unicode="&#x394;" horiz-adv-x="627" 
d="M349 696l240 -653v-43h-549v38l247 658h62zM519 44l-167 461q-12 32 -22 67t-15 64h-7q-5 -29 -16 -65t-23 -69l-166 -458h416z" />
    <glyph glyph-name="uni03A9" unicode="&#x3a9;" horiz-adv-x="838" 
d="M504 45q30 21 57.5 51t47.5 69t32 87.5t12 105.5q0 55 -12.5 109t-40 97.5t-72.5 70.5t-109 27q-63 0 -107.5 -26.5t-72.5 -69.5t-41 -96.5t-13 -108.5q0 -53 11.5 -101.5t31.5 -89.5t47 -73t59 -52v-45h-280v141q9 0 22.5 -1.5t21.5 -3.5q3 -17 5.5 -41t3.5 -46h157v6
q-29 16 -55 45.5t-45.5 70t-31 91t-11.5 107.5q0 76 22 138.5t61.5 106.5t94.5 68t122 24q68 0 122.5 -24.5t93 -69t59.5 -106.5t21 -137q0 -61 -12.5 -112t-33.5 -91t-47.5 -68t-53.5 -43v-6h165q1 22 3.5 46.5t5.5 41.5q8 2 21.5 4t23.5 2v-143h-285v45z" />
    <glyph glyph-name="uni03BC" unicode="&#x3bc;" horiz-adv-x="590" 
d="M131 72q11 -90 15 -175t4 -155q-16 0 -35 4t-30 9q4 96 7 186t5 177t3.5 173t1.5 174q8 2 26.5 4t30.5 2q-2 -67 -2.5 -129t-0.5 -135q0 -91 29 -133t95 -42q50 0 84.5 24.5t52.5 59.5q-2 17 -3 38t-1 43q0 71 1 142.5t4 125.5q8 2 25.5 4t28.5 2q-2 -28 -2.5 -61.5
t-1.5 -69t-1 -72.5v-69q0 -93 12.5 -131t44.5 -38q23 0 43 13q1 -4 1 -11q0 -8 -2 -17.5t-6 -14.5q-9 -7 -24 -12t-31 -5q-63 0 -81 86h-4q-7 -15 -19 -30t-30 -27.5t-42.5 -20.5t-57.5 -8q-50 0 -84.5 21.5t-49.5 67.5h-6z" />
    <glyph glyph-name="pi" unicode="&#x3c0;" horiz-adv-x="564" 
d="M428 416q-3 -33 -5 -76t-2 -85q0 -62 2 -104.5t7.5 -69t14.5 -38t24 -11.5q18 0 38 10q2 -9 -0.5 -24t-7.5 -24q-19 -11 -48 -11q-26 0 -42.5 16.5t-25.5 49t-12 81.5t-3 115q0 17 0.5 40t2 46.5t3 46.5t3.5 40q-50 3 -88 3q-46 0 -80 -3q2 -23 3 -47.5t1 -40.5
q0 -103 -9.5 -190.5t-30.5 -153.5q-17 2 -32 7.5t-25 12.5q20 66 32 141.5t12 174.5q0 16 -0.5 44t-2.5 47q-38 -5 -71 -19t-54 -34q-3 7 -3 24t5 30q10 10 27.5 20.5t46 19t70 14t100.5 5.5q61 0 129 -1.5t131 -5.5q3 -11 3 -32q0 -15 -3 -25q-28 3 -54.5 4.5t-55.5 2.5z
" />
    <glyph glyph-name="Wgrave" unicode="&#x1e80;" horiz-adv-x="949" 
d="M292 40q5 29 11 61t12 58l130 536h73l122 -539q13 -58 21 -116h6q5 28 10.5 57.5t13.5 57.5l95 358q8 32 19 67.5t22 62.5q-23 1 -43 2.5t-39 4.5q-2 7 -4 18t-2 18h201q0 -8 -2 -18.5t-5 -18.5q-11 -2 -26.5 -3.5t-32.5 -2.5l-184 -656h-67l-117 508q-4 16 -7.5 35
t-7 39t-6.5 40t-5 38h-6q-2 -18 -5.5 -38.5t-7.5 -41t-8 -40t-8 -34.5l-124 -506h-69l-173 655q-15 1 -30.5 3t-26.5 5q-6 16 -8 36h220q0 -18 -7 -37q-19 -2 -44 -3.5t-51 -2.5q11 -27 22 -63.5t19 -66.5l91 -354q6 -24 12 -57t10 -62h6zM312 835q8 11 22.5 24.5t26.5 18.5
l185 -94q-1 -10 -6 -22.5t-11 -20.5z" />
    <glyph glyph-name="wgrave" unicode="&#x1e81;" horiz-adv-x="733" 
d="M229 38q3 20 7 40.5t9 37.5l96 350l72 7l87 -358q5 -20 8 -38t5 -38h7q3 20 6.5 38.5t9.5 38.5l64 214q8 25 16.5 50t16.5 45q-20 2 -37.5 4t-32.5 6q-3 7 -4.5 16t-1.5 17h168q0 -8 -2 -17.5t-5 -16.5q-9 -4 -21.5 -6t-22.5 -3l-130 -428l-66 -7l-85 337q-5 19 -10 47
t-7 53h-7q-4 -26 -9.5 -52.5t-11.5 -49.5l-92 -328l-67 -7l-125 432q-14 2 -27.5 5.5t-23.5 7.5q-5 13 -7 33h194q0 -7 -1.5 -16.5t-3.5 -16.5q-17 -3 -37 -5t-43 -4q9 -18 17 -41.5t14 -45.5l63 -225q5 -17 8 -37t5 -39h7zM266 692q11 6 30 10.5t35 4.5l111 -146
q-7 -5 -20.5 -9.5t-24.5 -5.5z" />
    <glyph glyph-name="Wacute" unicode="&#x1e82;" horiz-adv-x="949" 
d="M292 40q5 29 11 61t12 58l130 536h73l122 -539q13 -58 21 -116h6q5 28 10.5 57.5t13.5 57.5l95 358q8 32 19 67.5t22 62.5q-23 1 -43 2.5t-39 4.5q-2 7 -4 18t-2 18h201q0 -8 -2 -18.5t-5 -18.5q-11 -2 -26.5 -3.5t-32.5 -2.5l-184 -656h-67l-117 508q-4 16 -7.5 35
t-7 39t-6.5 40t-5 38h-6q-2 -18 -5.5 -38.5t-7.5 -41t-8 -40t-8 -34.5l-124 -506h-69l-173 655q-15 1 -30.5 3t-26.5 5q-6 16 -8 36h220q0 -18 -7 -37q-19 -2 -44 -3.5t-51 -2.5q11 -27 22 -63.5t19 -66.5l91 -354q6 -24 12 -57t10 -62h6zM421 740q-3 8 -5 22t-2 24l198 96
q9 -10 16.5 -23.5t12.5 -27.5z" />
    <glyph glyph-name="wacute" unicode="&#x1e83;" horiz-adv-x="733" 
d="M229 38q3 20 7 40.5t9 37.5l96 350l72 7l87 -358q5 -20 8 -38t5 -38h7q3 20 6.5 38.5t9.5 38.5l64 214q8 25 16.5 50t16.5 45q-20 2 -37.5 4t-32.5 6q-3 7 -4.5 16t-1.5 17h168q0 -8 -2 -17.5t-5 -16.5q-9 -4 -21.5 -6t-22.5 -3l-130 -428l-66 -7l-85 337q-5 19 -10 47
t-7 53h-7q-4 -26 -9.5 -52.5t-11.5 -49.5l-92 -328l-67 -7l-125 432q-14 2 -27.5 5.5t-23.5 7.5q-5 13 -7 33h194q0 -7 -1.5 -16.5t-3.5 -16.5q-17 -3 -37 -5t-43 -4q9 -18 17 -41.5t14 -45.5l63 -225q5 -17 8 -37t5 -39h7zM345 539q-8 3 -19.5 11.5t-16.5 16.5l113 147
q12 -1 29 -9t26 -16z" />
    <glyph glyph-name="Wdieresis" unicode="&#x1e84;" horiz-adv-x="949" 
d="M326 843q20 0 32 -10.5t12 -30.5q0 -21 -12 -32t-32 -11q-44 0 -44 42q0 20 12 31t32 11zM632 843q20 0 32 -10.5t12 -30.5q0 -21 -12 -32t-32 -11q-44 0 -44 42q0 20 12 31t32 11zM292 40q5 29 11 61t12 58l130 536h73l122 -539q13 -58 21 -116h6q5 28 10.5 57.5
t13.5 57.5l95 358q8 32 19 67.5t22 62.5q-23 1 -43 2.5t-39 4.5q-2 7 -4 18t-2 18h201q0 -8 -2 -18.5t-5 -18.5q-11 -2 -26.5 -3.5t-32.5 -2.5l-184 -656h-67l-117 508q-4 16 -7.5 35t-7 39t-6.5 40t-5 38h-6q-2 -18 -5.5 -38.5t-7.5 -41t-8 -40t-8 -34.5l-124 -506h-69
l-173 655q-15 1 -30.5 3t-26.5 5q-6 16 -8 36h220q0 -18 -7 -37q-19 -2 -44 -3.5t-51 -2.5q11 -27 22 -63.5t19 -66.5l91 -354q6 -24 12 -57t10 -62h6z" />
    <glyph glyph-name="wdieresis" unicode="&#x1e85;" horiz-adv-x="733" 
d="M229 38q3 20 7 40.5t9 37.5l96 350l72 7l87 -358q5 -20 8 -38t5 -38h7q3 20 6.5 38.5t9.5 38.5l64 214q8 25 16.5 50t16.5 45q-20 2 -37.5 4t-32.5 6q-3 7 -4.5 16t-1.5 17h168q0 -8 -2 -17.5t-5 -16.5q-9 -4 -21.5 -6t-22.5 -3l-130 -428l-66 -7l-85 337q-5 19 -10 47
t-7 53h-7q-4 -26 -9.5 -52.5t-11.5 -49.5l-92 -328l-67 -7l-125 432q-14 2 -27.5 5.5t-23.5 7.5q-5 13 -7 33h194q0 -7 -1.5 -16.5t-3.5 -16.5q-17 -3 -37 -5t-43 -4q9 -18 17 -41.5t14 -45.5l63 -225q5 -17 8 -37t5 -39h7zM241 644q17 0 28 -9.5t11 -28.5q0 -20 -10.5 -30
t-28.5 -10q-39 0 -39 39q0 18 10.5 28.5t28.5 10.5zM504 644q17 0 28 -9.5t11 -28.5q0 -20 -10.5 -30t-28.5 -10q-39 0 -39 39q0 18 10.5 28.5t28.5 10.5z" />
    <glyph glyph-name="uni1E8A" unicode="&#x1e8a;" horiz-adv-x="691" 
d="M470 575q10 16 22.5 33.5t26.5 33.5q-18 0 -41 2t-38 4q-3 9 -5 18t-3 20h202q-1 -9 -3 -19.5t-5 -18.5q-8 -2 -25 -3.5t-29 -1.5l-186 -286l204 -313q15 -1 33.5 -3t32.5 -4q3 -7 5.5 -18t3.5 -19h-228q1 8 3.5 18t6.5 18q15 2 37 4t43 3q-17 18 -32 37.5t-28 39.5
l-129 198l-127 -205q-10 -16 -24 -35t-28 -33q22 -1 49.5 -3.5t43.5 -5.5q2 -6 4.5 -17t3.5 -19h-233q1 8 4 18.5t6 16.5q10 2 28.5 4.5t33.5 3.5l211 315l-180 282q-16 1 -34 3.5t-28 4.5q-2 7 -4 18.5t-2 19.5h223q-2 -19 -8 -38q-16 -2 -40.5 -4t-44.5 -3q14 -15 29 -36
t27 -39l110 -171zM353 848q20 0 31.5 -10.5t11.5 -31.5q0 -44 -43 -44t-43 43t43 43z" />
    <glyph glyph-name="uni1E8B" unicode="&#x1e8b;" horiz-adv-x="526" 
d="M171 86q-16 -24 -36 -44q16 -1 35 -3.5t31 -6.5q3 -7 4.5 -16t1.5 -16h-186q1 7 3.5 16.5t5.5 14.5q10 5 25.5 8t28.5 5l149 202l-133 177q-30 5 -50 13q-5 12 -7 32h178q0 -16 -5 -33q-11 -3 -27 -5t-31 -3q21 -20 41 -47l76 -103l77 108q7 10 16.5 21.5t18.5 19.5
q-17 2 -32.5 4t-27.5 6q-5 15 -5 32h160q0 -19 -6 -34q-8 -3 -19.5 -5t-22.5 -3l-133 -181l152 -203q11 -1 26 -3.5t26 -6.5q3 -7 5 -15.5t3 -16.5h-188q1 8 3.5 17t5.5 15q12 4 29.5 6.5t32.5 3.5q-23 21 -45 51l-90 120zM268 646q18 0 29.5 -10t11.5 -30t-11 -31t-30 -11
q-41 0 -41 41q0 19 11 30t30 11z" />
    <glyph glyph-name="Ygrave" unicode="&#x1ef2;" horiz-adv-x="578" 
d="M296 321q5 17 13 36t16 35l89 169q11 20 23 41t26 41q-20 1 -40 2.5t-36 4.5q-3 7 -5 18t-2 18h191q0 -8 -2 -19.5t-4 -17.5q-11 -2 -25 -3.5t-27 -2.5l-199 -364v-235q27 -1 51 -2.5t47 -5.5q2 -6 3 -17t-1 -19h-258q2 19 8 35q16 4 42.5 6.5t46.5 3.5v235l-184 362
q-13 1 -28 3t-25 4q-3 8 -4.5 18.5t-1.5 18.5h213q0 -8 -2 -18.5t-4 -17.5q-20 -3 -42 -4.5t-45 -2.5q13 -18 25 -38.5t22 -40.5l86 -172q7 -14 14.5 -34t12.5 -37h6zM130 835q8 11 22.5 24.5t26.5 18.5l185 -94q-1 -10 -6 -22.5t-11 -20.5z" />
    <glyph glyph-name="ygrave" unicode="&#x1ef3;" horiz-adv-x="492" 
d="M260 32q5 22 12 48t14 46l69 207q8 23 17.5 48t18.5 44l-38 4q-19 2 -33 6q-2 6 -4 15.5t-2 17.5h174q0 -8 -2.5 -18.5t-4.5 -16.5q-10 -3 -22.5 -5t-23.5 -3l-58 -171q-12 -35 -25 -73t-27 -76t-28 -73.5t-27 -65.5q-19 -40 -39.5 -71.5t-44.5 -55.5t-53 -42.5
t-65 -32.5q-18 18 -23 50q68 21 113.5 66.5t67.5 100.5l-164 441q-14 2 -28 5.5t-24 7.5q-5 13 -7 33h200q0 -16 -5 -33q-16 -3 -38.5 -5.5t-43.5 -3.5q10 -20 20 -45t18 -48l76 -210q7 -18 13 -43.5t10 -47.5h7zM152 692q11 6 30 10.5t35 4.5l111 -146q-7 -5 -20.5 -9.5
t-24.5 -5.5z" />
    <glyph glyph-name="uni2007" unicode="&#x2007;" 
 />
    <glyph glyph-name="uni2008" unicode="&#x2008;" horiz-adv-x="350" 
 />
    <glyph glyph-name="uni200B" unicode="&#x200b;" horiz-adv-x="0" 
 />
    <glyph glyph-name="endash" unicode="&#x2013;" horiz-adv-x="500" 
d="M456 285q2 -5 2.5 -13t0.5 -15v-8q0 -4 -1 -9h-419q0 9 2 23t4 22h411z" />
    <glyph glyph-name="emdash" unicode="&#x2014;" horiz-adv-x="1000" 
d="M955 285q2 -5 2.5 -13t0.5 -15v-8q0 -4 -1 -9h-918q0 9 2 23t4 22h910z" />
    <glyph glyph-name="quoteleft" unicode="&#x2018;" horiz-adv-x="228" 
d="M174 695q-7 -15 -14.5 -35t-14.5 -40.5t-12.5 -39.5t-8.5 -32l35 -8q-2 -9 -9.5 -23t-14.5 -22q-21 2 -40.5 8.5t-35.5 14.5q6 22 14.5 46t18 46.5t19.5 43t19 35.5q7 2 19 4t25 2z" />
    <glyph glyph-name="quoteright" unicode="&#x2019;" horiz-adv-x="227" 
d="M65 654q2 11 8 22t13 19q8 2 14.5 2.5t16.5 0.5q16 0 27.5 -2t22.5 -6q-5 -24 -14 -51.5t-19.5 -54.5t-22 -50.5t-20.5 -38.5q-9 3 -18 8t-14 10q6 15 12.5 32.5t12 35.5t10 35t6.5 30z" />
    <glyph glyph-name="quotesinglbase" unicode="&#x201a;" horiz-adv-x="228" 
d="M66 23q2 11 8 22.5t13 19.5q8 2 14.5 2.5t16.5 0.5q29 0 51 -8q-5 -24 -14 -52t-20.5 -56t-23 -52t-20.5 -39q-9 3 -18.5 8t-14.5 10q6 15 12.5 33t12.5 37t11 36t7 30z" />
    <glyph glyph-name="quotereversed" unicode="&#x201b;" horiz-adv-x="227" 
d="M123 645q2 -13 6 -30t9 -36t11 -37t12 -32q-5 -5 -16.5 -9.5t-20.5 -6.5q-8 15 -18 38.5t-20 50.5t-18 54.5t-13 50.5q11 5 26 7t29 2q15 0 29 -3q5 -7 11 -18.5t9 -22.5z" />
    <glyph glyph-name="quotedblleft" unicode="&#x201c;" horiz-adv-x="370" 
d="M171 695q-7 -15 -14.5 -35t-14.5 -40.5t-12.5 -39.5t-8.5 -32l35 -8q-2 -9 -9.5 -23t-14.5 -22q-43 6 -74 23q6 22 14.5 46t18 46.5t19.5 43t19 35.5q7 2 18 4t24 2zM318 695q-7 -15 -14.5 -35t-14.5 -40.5t-12.5 -39.5t-8.5 -32l35 -8q-2 -9 -9.5 -23t-14.5 -22
q-43 6 -74 23q6 22 14.5 46t18 46.5t19.5 43t19 35.5q7 2 18 4t24 2z" />
    <glyph glyph-name="quotedblright" unicode="&#x201d;" horiz-adv-x="370" 
d="M65 654q2 11 8 22t13 19q8 2 14.5 2.5t16.5 0.5q16 0 26.5 -2t21.5 -6q-5 -24 -14 -51.5t-19.5 -54.5t-22 -50.5t-20.5 -38.5q-9 3 -17 8t-13 10q6 15 12.5 32.5t12 35.5t10 35t6.5 30zM213 654q2 11 8 22t13 19q8 2 14.5 2.5t16.5 0.5q16 0 26.5 -2t21.5 -6
q-5 -24 -14 -51.5t-19.5 -54.5t-22 -50.5t-20.5 -38.5q-9 3 -17 8t-13 10q6 15 12.5 32.5t12 35.5t10 35t6.5 30z" />
    <glyph glyph-name="quotedblbase" unicode="&#x201e;" horiz-adv-x="370" 
d="M66 23q2 11 8 22.5t13 19.5q8 2 14.5 2.5t16.5 0.5q16 0 27.5 -2t22.5 -6q-5 -24 -14 -52t-20.5 -56t-23 -52t-20.5 -39q-9 3 -18 8t-14 10q6 15 12.5 33t12.5 37t11 36t7 30zM214 23q2 11 8 22.5t13 19.5q8 2 14.5 2.5t16.5 0.5q16 0 27.5 -2t22.5 -6q-5 -24 -14 -52
t-20.5 -56t-23 -52t-20.5 -39q-9 3 -18 8t-14 10q6 15 12.5 33t12.5 37t11 36t7 30z" />
    <glyph glyph-name="dagger" unicode="&#x2020;" horiz-adv-x="500" 
d="M283 429l-6 -593q-3 -2 -9 -2.5t-12 -0.5q-14 0 -23 3l-7 593h-159q0 9 1.5 21t4.5 20h152l-2 211q9 4 22 6t24 2h8q4 0 9 -1l-3 -218h169q2 -8 2 -20q0 -13 -2 -21h-169z" />
    <glyph glyph-name="daggerdbl" unicode="&#x2021;" horiz-adv-x="500" 
d="M283 429l-3 -259h172q2 -8 2 -20q0 -13 -2 -21h-172l-3 -293q-3 -2 -9 -2.5t-12 -0.5q-14 0 -23 3l-4 293h-162q0 9 1.5 21t4.5 20h156l-3 259h-159q0 9 1.5 21t4.5 20h152l-2 211q9 4 22 6t24 2h8q4 0 9 -1l-3 -218h169q2 -8 2 -20q0 -13 -2 -21h-169z" />
    <glyph glyph-name="bullet" unicode="&#x2022;" horiz-adv-x="558" 
d="M280 339q44 0 71 -25.5t27 -70.5q0 -50 -27 -76.5t-71 -26.5q-48 0 -74 26t-26 77q0 44 27.5 70t72.5 26z" />
    <glyph glyph-name="ellipsis" unicode="&#x2026;" horiz-adv-x="807" 
d="M135 80q20 0 33 -11.5t13 -33.5q0 -24 -12.5 -36t-33.5 -12q-47 0 -47 47q0 21 13 33.5t34 12.5zM404 80q20 0 33 -11.5t13 -33.5q0 -24 -12.5 -36t-33.5 -12q-47 0 -47 47q0 21 13 33.5t34 12.5zM673 80q20 0 33 -11.5t13 -33.5q0 -24 -12.5 -36t-33.5 -12q-47 0 -47 47
q0 21 13 33.5t34 12.5z" />
    <glyph glyph-name="perthousand" unicode="&#x2030;" horiz-adv-x="1300" 
d="M230 678q68 0 109 -43t41 -125q0 -88 -40.5 -133t-109.5 -45q-72 0 -111 45t-39 133q0 78 41.5 123t108.5 45zM134 510q0 -67 24.5 -105t71.5 -38t71 38.5t24 104.5q0 60 -25 97t-70 37q-47 0 -71.5 -36t-24.5 -98zM240 -22q-10 2 -21.5 8.5t-16.5 12.5l470 689
q10 -1 22 -4t20 -8zM677 329q68 0 109 -43t41 -125q0 -88 -40.5 -133t-109.5 -45q-72 0 -111 45t-39 133q0 78 41.5 123t108.5 45zM581 161q0 -67 24.5 -105t71.5 -38t71 38.5t24 104.5q0 60 -25 97t-70 37q-47 0 -71.5 -36t-24.5 -98zM1069 329q68 0 109 -43t41 -125
q0 -88 -40.5 -133t-109.5 -45q-72 0 -111 45t-39 133q0 78 41.5 123t108.5 45zM973 161q0 -67 24.5 -105t71.5 -38t71 38.5t24 104.5q0 60 -25 97t-70 37q-47 0 -71.5 -36t-24.5 -98z" />
    <glyph glyph-name="guilsinglleft" unicode="&#x2039;" horiz-adv-x="315" 
d="M144 246q20 -48 42 -93.5t47 -92.5q-7 -5 -21 -9t-24 -5q-29 45 -57.5 98.5t-51.5 101.5q22 49 46.5 94t51.5 90q11 4 28 6.5t30 2.5q-26 -48 -49 -96.5t-42 -96.5z" />
    <glyph glyph-name="guilsinglright" unicode="&#x203a;" horiz-adv-x="315" 
d="M179 246q-20 48 -41 91t-46 91q8 5 22 8t25 3q26 -44 53.5 -94t50.5 -99q-23 -48 -52.5 -102t-57.5 -99q-10 1 -23.5 6t-20.5 10q24 45 46.5 90.5t43.5 94.5z" />
    <glyph glyph-name="uni203E" unicode="&#x203e;" horiz-adv-x="500" 
d="M500 706q2 -4 2.5 -11t0.5 -13v-7q0 -4 -1 -8h-508q0 8 1.5 19.5t3.5 19.5h501z" />
    <glyph glyph-name="fraction" unicode="&#x2044;" horiz-adv-x="148" 
d="M-150 -22q-11 2 -22.5 8.5t-16.5 13.5l478 689q24 -3 42 -13z" />
    <glyph glyph-name="uni2070" unicode="&#x2070;" horiz-adv-x="385" 
d="M192 765q69 0 110 -48.5t41 -142.5q0 -100 -40.5 -151.5t-110.5 -51.5q-73 0 -111.5 50.5t-38.5 152.5q0 90 41.5 140.5t108.5 50.5zM97 575q0 -78 24 -121.5t71 -43.5q48 0 72 43.5t24 121.5q0 68 -25.5 110t-70.5 42q-48 0 -71.5 -41t-23.5 -111z" />
    <glyph glyph-name="uni2074" unicode="&#x2074;" horiz-adv-x="385" 
d="M285 379q-6 -2 -25 -2q-17 0 -25 2v104h-194v37l176 239h68v-237h53q2 -5 3 -17.5t1 -21.5h-57v-104zM235 647q0 14 0.5 34t2.5 35h-4l-142 -192v-4q13 1 33 1.5t36 0.5h74v125z" />
    <glyph glyph-name="uni2075" unicode="&#x2075;" horiz-adv-x="385" 
d="M135 607q14 3 27.5 4t30.5 1q60 0 97 -27.5t37 -86.5q0 -35 -13 -59t-35 -39t-51 -22t-61 -7q-26 0 -51.5 4t-40.5 11q-5 8 -7 18t-2 19t1 13q20 -10 47 -17t57 -7q44 0 72.5 19t28.5 64q0 44 -27.5 61.5t-72.5 17.5q-20 0 -43 -2.5t-44 -7.5l14 194h233q0 -23 -5 -48
h-184z" />
    <glyph glyph-name="uni2076" unicode="&#x2076;" horiz-adv-x="385" 
d="M118 573q11 18 35 30.5t61 12.5q63 0 93.5 -31.5t30.5 -85.5q0 -60 -37 -94t-100 -34q-72 0 -106.5 44t-34.5 125q0 55 13.5 97t38.5 70.5t58.5 43t74.5 14.5q20 0 40 -3.5t34 -11.5q4 -8 6.5 -24.5t1.5 -28.5q-17 13 -40.5 19.5t-47.5 6.5q-52 0 -85.5 -38.5
t-39.5 -111.5h4zM115 528q0 -60 22.5 -90t64.5 -30q40 0 61 24t21 63t-20.5 60.5t-61.5 21.5q-29 0 -49.5 -11t-37.5 -30v-8z" />
    <glyph glyph-name="uni2077" unicode="&#x2077;" horiz-adv-x="385" 
d="M345 714q-110 -172 -158 -334q-12 -3 -30 -3q-8 0 -17 0.5t-14 2.5q13 39 32 80.5t41 84t46.5 84t50.5 79.5v4h-182q0 -11 -2 -27.5t-5 -28.5q-8 -2 -21 -3.5t-21 -1.5v107h280v-44z" />
    <glyph glyph-name="uni2078" unicode="&#x2078;" horiz-adv-x="385" 
d="M324 675q0 -34 -20 -58.5t-46 -33.5v-4q31 -12 53.5 -34.5t22.5 -63.5q0 -28 -11.5 -49t-31 -34.5t-45.5 -20t-56 -6.5q-26 0 -51.5 5.5t-45 17.5t-31.5 31.5t-12 47.5q0 39 23.5 65.5t58.5 37.5v4q-28 11 -48 32t-20 56q0 27 11.5 45.5t30.5 30t43 16.5t48 5t47 -5
t40.5 -15.5t28.5 -28t11 -41.5zM279 476q0 19 -8.5 32.5t-23 23t-33.5 17t-40 13.5q-33 -11 -52.5 -31t-19.5 -52q0 -38 26.5 -54.5t62.5 -16.5q17 0 33 3.5t28 11.5t19.5 21t7.5 32zM117 674q0 -16 8 -27t21 -20t30.5 -15.5t37.5 -13.5q29 11 44 30t15 43q0 17 -7 28.5
t-18 18t-24.5 9.5t-27.5 3q-13 0 -27 -2.5t-25.5 -8.5t-19 -17t-7.5 -28z" />
    <glyph glyph-name="uni2079" unicode="&#x2079;" horiz-adv-x="385" 
d="M277 567q-11 -18 -35 -30.5t-62 -12.5q-60 0 -90.5 33t-30.5 84q0 58 37 91t100 33q70 0 104.5 -43.5t34.5 -128.5q0 -111 -49.5 -166.5t-131.5 -55.5q-22 0 -45 4t-38 12q-5 8 -8 25t-1 28q17 -10 44 -17.5t52 -7.5q54 0 86 37t37 115h-4zM280 612q0 57 -22 87t-63 30
q-40 0 -61 -24t-21 -61q0 -38 21 -59.5t59 -21.5q29 0 49.5 11t37.5 31v7z" />
    <glyph glyph-name="uni2080" unicode="&#x2080;" horiz-adv-x="385" 
d="M192 292q69 0 110 -48.5t41 -142.5q0 -100 -40.5 -151.5t-110.5 -51.5q-73 0 -111.5 50.5t-38.5 152.5q0 90 41.5 140.5t108.5 50.5zM97 102q0 -78 24 -121.5t71 -43.5q48 0 72 43.5t24 121.5q0 68 -25.5 110t-70.5 42q-48 0 -71.5 -41t-23.5 -111z" />
    <glyph glyph-name="uni2081" unicode="&#x2081;" horiz-adv-x="385" 
d="M95 -94q0 6 3 16.5t6 15.5q14 3 36 5t38 3v301l-94 -13q1 9 3 19t6 18q20 5 58.5 11.5t79.5 10.5v-347q17 -1 39.5 -3t39.5 -4q2 -4 2.5 -9.5t0.5 -10.5q0 -8 -1 -13h-217z" />
    <glyph glyph-name="uni2082" unicode="&#x2082;" horiz-adv-x="385" 
d="M60 -50q22 22 57.5 50t68.5 59.5t57 65t24 65.5q0 34 -21 49t-58 15q-21 0 -41.5 -4.5t-36.5 -12.5v-62q-8 -3 -19.5 -4.5t-19.5 -1.5q-4 20 -5.5 46.5t-1.5 49.5q23 11 55.5 19.5t72.5 8.5q28 0 52 -5.5t41.5 -16.5t27.5 -28.5t10 -42.5q0 -40 -24 -77.5t-57 -70
t-67.5 -58.5t-55.5 -44v-4q48 1 105 2.5t112 4.5q0 -9 -1 -22.5t-3 -24.5h-272v44z" />
    <glyph glyph-name="uni2083" unicode="&#x2083;" horiz-adv-x="385" 
d="M113 82q-2 8 -1 20t3 19q64 0 104 16t40 59q0 33 -22.5 45t-51.5 12q-26 0 -56.5 -7t-51.5 -18q-2 11 0 24t6 22q20 9 48 14t54 5q27 0 50.5 -5t41 -16t27.5 -28.5t10 -42.5q0 -37 -22.5 -62t-62.5 -32v-3q40 -5 67.5 -27.5t27.5 -67.5q0 -30 -12.5 -50.5t-34 -34
t-50 -19.5t-60.5 -6q-26 0 -53.5 4t-44.5 12q-6 15 -6 33v6q0 4 1 8q20 -9 50.5 -15.5t59.5 -6.5q39 0 66.5 15t27.5 55t-35.5 56t-119.5 16z" />
    <glyph glyph-name="uni2084" unicode="&#x2084;" horiz-adv-x="385" 
d="M285 -94q-6 -2 -25 -2q-17 0 -25 2v104h-194v37l176 239h68v-237h53q2 -5 3 -17.5t1 -21.5h-57v-104zM235 174q0 14 0.5 34t2.5 35h-4l-142 -192v-4q13 1 33 1.5t36 0.5h74v125z" />
    <glyph glyph-name="uni2085" unicode="&#x2085;" horiz-adv-x="385" 
d="M135 134q14 3 27.5 4t30.5 1q60 0 97 -27.5t37 -86.5q0 -35 -13 -59t-35 -39t-51 -22t-61 -7q-26 0 -51.5 4t-40.5 11q-5 8 -7 18t-2 19t1 13q20 -10 47 -17t57 -7q44 0 72.5 19t28.5 64q0 44 -27.5 61.5t-72.5 17.5q-20 0 -43 -2.5t-44 -7.5l14 194h233q0 -23 -5 -48
h-184z" />
    <glyph glyph-name="uni2086" unicode="&#x2086;" horiz-adv-x="385" 
d="M118 100q11 18 35 30.5t61 12.5q63 0 93.5 -31.5t30.5 -85.5q0 -60 -37 -94t-100 -34q-72 0 -106.5 44t-34.5 125q0 55 13.5 97t38.5 70.5t58.5 43t74.5 14.5q20 0 40 -3.5t34 -11.5q4 -8 6.5 -24.5t1.5 -28.5q-17 13 -40.5 19.5t-47.5 6.5q-52 0 -85.5 -38.5
t-39.5 -111.5h4zM115 55q0 -60 22.5 -90t64.5 -30q40 0 61 24t21 63t-20.5 60.5t-61.5 21.5q-29 0 -49.5 -11t-37.5 -30v-8z" />
    <glyph glyph-name="uni2087" unicode="&#x2087;" horiz-adv-x="385" 
d="M345 241q-110 -172 -158 -334q-12 -3 -30 -3q-8 0 -17 0.5t-14 2.5q13 39 32 80.5t41 84t46.5 84t50.5 79.5v4h-182q0 -11 -2 -27.5t-5 -28.5q-8 -2 -21 -3.5t-21 -1.5v107h280v-44z" />
    <glyph glyph-name="uni2088" unicode="&#x2088;" horiz-adv-x="385" 
d="M324 202q0 -34 -20 -58.5t-46 -33.5v-4q31 -12 53.5 -34.5t22.5 -63.5q0 -28 -11.5 -49t-31 -34.5t-45.5 -20t-56 -6.5q-26 0 -51.5 5.5t-45 17.5t-31.5 31.5t-12 47.5q0 39 23.5 65.5t58.5 37.5v4q-28 11 -48 32t-20 56q0 27 11.5 45.5t30.5 30t43 16.5t48 5t47 -5
t40.5 -15.5t28.5 -28t11 -41.5zM279 3q0 19 -8.5 32.5t-23 23t-33.5 17t-40 13.5q-33 -11 -52.5 -31t-19.5 -52q0 -38 26.5 -54.5t62.5 -16.5q17 0 33 3.5t28 11.5t19.5 21t7.5 32zM117 201q0 -16 8 -27t21 -20t30.5 -15.5t37.5 -13.5q29 11 44 30t15 43q0 17 -7 28.5
t-18 18t-24.5 9.5t-27.5 3q-13 0 -27 -2.5t-25.5 -8.5t-19 -17t-7.5 -28z" />
    <glyph glyph-name="uni2089" unicode="&#x2089;" horiz-adv-x="385" 
d="M277 94q-11 -18 -35 -30.5t-62 -12.5q-60 0 -90.5 33t-30.5 84q0 58 37 91t100 33q70 0 104.5 -43.5t34.5 -128.5q0 -111 -49.5 -166.5t-131.5 -55.5q-22 0 -45 4t-38 12q-5 8 -8 25t-1 28q17 -10 44 -17.5t52 -7.5q54 0 86 37t37 115h-4zM280 139q0 57 -22 87t-63 30
q-40 0 -61 -24t-21 -61q0 -38 21 -59.5t59 -21.5q29 0 49.5 11t37.5 31v7z" />
    <glyph glyph-name="Euro" unicode="&#x20ac;" 
d="M26 370q0 9 2 20.5t5 17.5h66q12 68 39.5 119t67.5 85.5t89.5 51.5t104.5 17q47 0 87 -8.5t72 -24.5q0 -36 -2 -72t-7 -70q-10 0 -24 2.5t-23 7.5v101q-26 11 -53.5 16t-55.5 5q-43 0 -81.5 -14.5t-69.5 -43t-52 -71.5t-30 -101h268q2 -8 2.5 -19.5t-1.5 -18.5h-404z
M26 241q0 9 2 20.5t5 17.5h396q2 -8 2.5 -19.5t-1.5 -18.5h-265q19 -110 77.5 -160t146.5 -50q45 0 90 10.5t75 22.5q0 -8 -3 -22t-7 -21q-29 -16 -74 -28.5t-97 -12.5q-115 0 -185.5 68t-88.5 193h-73z" />
    <glyph glyph-name="afii61289" unicode="&#x2113;" horiz-adv-x="471" 
d="M125 477q0 52 12 90.5t32 63.5t46 37.5t54 12.5q49 0 83 -34t34 -106q0 -83 -54 -159.5t-151 -146.5v-69q0 -80 25.5 -111.5t73.5 -31.5q36 0 62 14.5t53 49.5q8 -4 16 -9.5t13 -11.5q-30 -48 -68 -67t-83 -19q-69 0 -108.5 41.5t-39.5 133.5v49q-29 -21 -60 -38
q-4 8 -6.5 22.5t-2.5 24.5q16 9 34.5 21t34.5 23v220zM181 290q80 65 115.5 124t35.5 121q0 54 -19.5 79.5t-48.5 25.5q-35 0 -59 -39t-24 -117v-194z" />
    <glyph glyph-name="afii61352" unicode="&#x2116;" horiz-adv-x="1035" 
d="M410 203q22 -36 44.5 -77.5t37.5 -76.5h6v422q-50 2 -84 6q-2 7 -3 18t1 18h202q0 -9 -1 -18.5t-3 -17.5q-28 -4 -65 -6v-470l-75 -10l-218 370q-11 19 -28 50t-28 56h-6v-423q20 -1 44 -3.5t42 -7.5q2 -5 2.5 -15t-1.5 -18h-218q1 7 3.5 16.5t5.5 15.5q15 5 35 8.5
t38 5.5v425q-42 2 -70 6q-2 7 -3 18t1 18h158zM833 495q67 0 108 -39.5t41 -114.5q0 -79 -40 -122.5t-109 -43.5q-72 0 -111.5 42.5t-39.5 123.5q0 72 42 113t109 41zM733 341q0 -60 26 -94.5t74 -34.5t72.5 34.5t24.5 94.5q0 52 -26 85t-71 33q-48 0 -74 -32.5t-26 -85.5z
M966 128q2 -6 3 -19.5t-1 -21.5h-272q0 8 2 21t4 20h264z" />
    <glyph glyph-name="trademark" unicode="&#x2122;" horiz-adv-x="871" 
d="M388 409q2 14 7 27q6 2 18 3.5t23 2.5v211q-12 1 -22.5 2t-21.5 3q-2 5 -2 13.5t1 14.5h112l68 -169q6 -16 11.5 -33.5t8.5 -34.5h5q4 17 9 34.5t12 33.5l69 169h111q1 -5 1 -13.5t-2 -14.5q-8 -2 -20.5 -3t-24.5 -2v-211q14 -1 26 -2.5t21 -3.5q2 -6 2 -15q0 -8 -1 -12
h-137q2 14 7 27q5 2 16.5 3.5t21.5 2.5v211h-4q-5 -20 -13 -44.5t-16 -43.5l-65 -160h-41l-66 160q-8 19 -14.5 42t-11.5 46h-4v-211q26 -2 42 -6q2 -5 2.5 -13.5t-1.5 -13.5h-127zM228 443q17 -1 32 -2.5t27 -3.5q2 -5 2.5 -14t-1.5 -14h-164q1 6 3 14.5t4 13.5
q10 2 23.5 3.5t26.5 2.5v213h-76q-1 -15 -3 -32t-4 -28q-7 -2 -15.5 -3t-16.5 -1v94h277v-94q-6 0 -15.5 0.5t-16.5 2.5q-3 13 -4.5 30t-2.5 31h-76v-213z" />
    <glyph glyph-name="Omega" unicode="&#x2126;" horiz-adv-x="838" 
d="M504 45q30 21 57.5 51t47.5 69t32 87.5t12 105.5q0 55 -12.5 109t-40 97.5t-72.5 70.5t-109 27q-63 0 -107.5 -26.5t-72.5 -69.5t-41 -96.5t-13 -108.5q0 -53 11.5 -101.5t31.5 -89.5t47 -73t59 -52v-45h-280v141q9 0 22.5 -1.5t21.5 -3.5q3 -17 5.5 -41t3.5 -46h157v6
q-29 16 -55 45.5t-45.5 70t-31 91t-11.5 107.5q0 76 22 138.5t61.5 106.5t94.5 68t122 24q68 0 122.5 -24.5t93 -69t59.5 -106.5t21 -137q0 -61 -12.5 -112t-33.5 -91t-47.5 -68t-53.5 -43v-6h165q1 22 3.5 46.5t5.5 41.5q8 2 21.5 4t23.5 2v-143h-285v45z" />
    <glyph glyph-name="estimated" unicode="&#x212e;" horiz-adv-x="880" 
d="M205 320q-5 0 -5 -4v-190q0 -13 9 -23q44 -48 105.5 -75.5t132.5 -27.5q76 0 140 31t109 85h57q-53 -63 -133 -99.5t-174 -36.5q-81 0 -151.5 27.5t-123.5 75t-83.5 111t-30.5 135.5q0 73 30.5 137t83.5 112t123.5 75.5t151.5 27.5q80 0 150.5 -27.5t123 -75.5t83 -112
t30.5 -137v-9h-628zM691 536q0 15 -10 24q-45 45 -104.5 72t-129.5 27t-131 -27.5t-106 -75.5q-10 -7 -10 -24v-186q0 -5 5 -5h483q3 0 3 5v190z" />
    <glyph glyph-name="uni2150" unicode="&#x2150;" horiz-adv-x="918" 
d="M95 281q0 6 3 16.5t6 15.5q14 3 36 5t38 3v301l-94 -13q1 9 3 19t6 18q20 5 58.5 11.5t79.5 10.5v-347q17 -1 39.5 -3t39.5 -4q2 -4 2.5 -9.5t0.5 -10.5q0 -8 -1 -13h-217zM235 -22q-11 2 -22.5 8.5t-16.5 13.5l478 689q24 -3 42 -13zM878 336q-110 -172 -158 -334
q-12 -3 -30 -3q-8 0 -17 0.5t-14 2.5q13 39 32 80.5t41 84t46.5 84t50.5 79.5v4h-182q0 -11 -2 -27.5t-5 -28.5q-8 -2 -21 -3.5t-21 -1.5v107h280v-44z" />
    <glyph glyph-name="uni2151" unicode="&#x2151;" horiz-adv-x="918" 
d="M95 281q0 6 3 16.5t6 15.5q14 3 36 5t38 3v301l-94 -13q1 9 3 19t6 18q20 5 58.5 11.5t79.5 10.5v-347q17 -1 39.5 -3t39.5 -4q2 -4 2.5 -9.5t0.5 -10.5q0 -8 -1 -13h-217zM235 -22q-11 2 -22.5 8.5t-16.5 13.5l478 689q24 -3 42 -13zM810 189q-11 -18 -35 -30.5
t-62 -12.5q-60 0 -90.5 33t-30.5 84q0 58 37 91t100 33q70 0 104.5 -43.5t34.5 -128.5q0 -111 -49.5 -166.5t-131.5 -55.5q-22 0 -45 4t-38 12q-5 8 -8 25t-1 28q17 -10 44 -17.5t52 -7.5q54 0 86 37t37 115h-4zM813 234q0 57 -22 87t-63 30q-40 0 -61 -24t-21 -61
q0 -38 21 -59.5t59 -21.5q29 0 49.5 11t37.5 31v7z" />
    <glyph glyph-name="uni2152" unicode="&#x2152;" horiz-adv-x="1253" 
d="M95 281q0 6 3 16.5t6 15.5q14 3 36 5t38 3v301l-94 -13q1 9 3 19t6 18q20 5 58.5 11.5t79.5 10.5v-347q17 -1 39.5 -3t39.5 -4q2 -4 2.5 -9.5t0.5 -10.5q0 -8 -1 -13h-217zM235 -22q-11 2 -22.5 8.5t-16.5 13.5l478 689q24 -3 42 -13zM628 0q0 6 3 16.5t6 15.5q14 3 36 5
t38 3v301l-94 -13q1 9 3 19t6 18q20 5 58.5 11.5t79.5 10.5v-347q17 -1 39.5 -3t39.5 -4q2 -4 2.5 -9.5t0.5 -10.5q0 -8 -1 -13h-217zM1060 387q69 0 110 -48.5t41 -142.5q0 -100 -40.5 -151.5t-110.5 -51.5q-73 0 -111.5 50.5t-38.5 152.5q0 90 41.5 140.5t108.5 50.5z
M965 197q0 -78 24 -121.5t71 -43.5q48 0 72 43.5t24 121.5q0 68 -25.5 110t-70.5 42q-48 0 -71.5 -41t-23.5 -111z" />
    <glyph glyph-name="onethird" unicode="&#x2153;" horiz-adv-x="918" 
d="M95 281q0 6 3 16.5t6 15.5q14 3 36 5t38 3v301l-94 -13q1 9 3 19t6 18q20 5 58.5 11.5t79.5 10.5v-347q17 -1 39.5 -3t39.5 -4q2 -4 2.5 -9.5t0.5 -10.5q0 -8 -1 -13h-217zM235 -22q-11 2 -22.5 8.5t-16.5 13.5l478 689q24 -3 42 -13zM646 176q-2 8 -1 20t3 19
q64 0 104 16t40 59q0 33 -22.5 45t-51.5 12q-26 0 -56.5 -7t-51.5 -18q-2 11 0 24t6 22q20 9 48 14t54 5q27 0 50.5 -5t41 -16t27.5 -28.5t10 -42.5q0 -37 -22.5 -62t-62.5 -32v-3q40 -5 67.5 -27.5t27.5 -67.5q0 -30 -12.5 -50.5t-34 -34t-50 -19.5t-60.5 -6q-26 0 -53.5 4
t-44.5 12q-6 15 -6 33v6q0 4 1 8q20 -9 50.5 -15.5t59.5 -6.5q39 0 66.5 15t27.5 55t-35.5 56t-119.5 16z" />
    <glyph glyph-name="twothirds" unicode="&#x2154;" horiz-adv-x="918" 
d="M60 325q22 22 57.5 50t68.5 59.5t57 65t24 65.5q0 34 -21 49t-58 15q-21 0 -41.5 -4.5t-36.5 -12.5v-62q-8 -3 -19.5 -4.5t-19.5 -1.5q-4 20 -5.5 46.5t-1.5 49.5q23 11 55.5 19.5t72.5 8.5q28 0 52 -5.5t41.5 -16.5t27.5 -28.5t10 -42.5q0 -40 -24 -77.5t-57 -70
t-67.5 -58.5t-55.5 -44v-4q48 1 105 2.5t112 4.5q0 -9 -1 -22.5t-3 -24.5h-272v44zM235 -22q-11 2 -22.5 8.5t-16.5 13.5l478 689q24 -3 42 -13zM646 176q-2 8 -1 20t3 19q64 0 104 16t40 59q0 33 -22.5 45t-51.5 12q-26 0 -56.5 -7t-51.5 -18q-2 11 0 24t6 22q20 9 48 14
t54 5q27 0 50.5 -5t41 -16t27.5 -28.5t10 -42.5q0 -37 -22.5 -62t-62.5 -32v-3q40 -5 67.5 -27.5t27.5 -67.5q0 -30 -12.5 -50.5t-34 -34t-50 -19.5t-60.5 -6q-26 0 -53.5 4t-44.5 12q-6 15 -6 33v6q0 4 1 8q20 -9 50.5 -15.5t59.5 -6.5q39 0 66.5 15t27.5 55t-35.5 56
t-119.5 16z" />
    <glyph glyph-name="uni2155" unicode="&#x2155;" horiz-adv-x="918" 
d="M95 281q0 6 3 16.5t6 15.5q14 3 36 5t38 3v301l-94 -13q1 9 3 19t6 18q20 5 58.5 11.5t79.5 10.5v-347q17 -1 39.5 -3t39.5 -4q2 -4 2.5 -9.5t0.5 -10.5q0 -8 -1 -13h-217zM235 -22q-11 2 -22.5 8.5t-16.5 13.5l478 689q24 -3 42 -13zM668 229q14 3 27.5 4t30.5 1
q60 0 97 -27.5t37 -86.5q0 -35 -13 -59t-35 -39t-51 -22t-61 -7q-26 0 -51.5 4t-40.5 11q-5 8 -7 18t-2 19t1 13q20 -10 47 -17t57 -7q44 0 72.5 19t28.5 64q0 44 -27.5 61.5t-72.5 17.5q-20 0 -43 -2.5t-44 -7.5l14 194h233q0 -23 -5 -48h-184z" />
    <glyph glyph-name="uni2156" unicode="&#x2156;" horiz-adv-x="918" 
d="M60 325q22 22 57.5 50t68.5 59.5t57 65t24 65.5q0 34 -21 49t-58 15q-21 0 -41.5 -4.5t-36.5 -12.5v-62q-8 -3 -19.5 -4.5t-19.5 -1.5q-4 20 -5.5 46.5t-1.5 49.5q23 11 55.5 19.5t72.5 8.5q28 0 52 -5.5t41.5 -16.5t27.5 -28.5t10 -42.5q0 -40 -24 -77.5t-57 -70
t-67.5 -58.5t-55.5 -44v-4q48 1 105 2.5t112 4.5q0 -9 -1 -22.5t-3 -24.5h-272v44zM235 -22q-11 2 -22.5 8.5t-16.5 13.5l478 689q24 -3 42 -13zM668 229q14 3 27.5 4t30.5 1q60 0 97 -27.5t37 -86.5q0 -35 -13 -59t-35 -39t-51 -22t-61 -7q-26 0 -51.5 4t-40.5 11
q-5 8 -7 18t-2 19t1 13q20 -10 47 -17t57 -7q44 0 72.5 19t28.5 64q0 44 -27.5 61.5t-72.5 17.5q-20 0 -43 -2.5t-44 -7.5l14 194h233q0 -23 -5 -48h-184z" />
    <glyph glyph-name="uni2157" unicode="&#x2157;" horiz-adv-x="918" 
d="M113 457q-2 8 -1 20t3 19q64 0 104 16t40 59q0 33 -22.5 45t-51.5 12q-26 0 -56.5 -7t-51.5 -18q-2 11 0 24t6 22q20 9 48 14t54 5q27 0 50.5 -5t41 -16t27.5 -28.5t10 -42.5q0 -37 -22.5 -62t-62.5 -32v-3q40 -5 67.5 -27.5t27.5 -67.5q0 -30 -12.5 -50.5t-34 -34
t-50 -19.5t-60.5 -6q-26 0 -53.5 4t-44.5 12q-6 15 -6 33v6q0 4 1 8q20 -9 50.5 -15.5t59.5 -6.5q39 0 66.5 15t27.5 55t-35.5 56t-119.5 16zM235 -22q-11 2 -22.5 8.5t-16.5 13.5l478 689q24 -3 42 -13zM668 229q14 3 27.5 4t30.5 1q60 0 97 -27.5t37 -86.5q0 -35 -13 -59
t-35 -39t-51 -22t-61 -7q-26 0 -51.5 4t-40.5 11q-5 8 -7 18t-2 19t1 13q20 -10 47 -17t57 -7q44 0 72.5 19t28.5 64q0 44 -27.5 61.5t-72.5 17.5q-20 0 -43 -2.5t-44 -7.5l14 194h233q0 -23 -5 -48h-184z" />
    <glyph glyph-name="uni2158" unicode="&#x2158;" horiz-adv-x="918" 
d="M285 282q-6 -2 -25 -2q-17 0 -25 2v104h-194v37l176 239h68v-237h53q2 -5 3 -17.5t1 -21.5h-57v-104zM235 550q0 14 0.5 34t2.5 35h-4l-142 -192v-4q13 1 33 1.5t36 0.5h74v125zM235 -22q-11 2 -22.5 8.5t-16.5 13.5l478 689q24 -3 42 -13zM668 229q14 3 27.5 4t30.5 1
q60 0 97 -27.5t37 -86.5q0 -35 -13 -59t-35 -39t-51 -22t-61 -7q-26 0 -51.5 4t-40.5 11q-5 8 -7 18t-2 19t1 13q20 -10 47 -17t57 -7q44 0 72.5 19t28.5 64q0 44 -27.5 61.5t-72.5 17.5q-20 0 -43 -2.5t-44 -7.5l14 194h233q0 -23 -5 -48h-184z" />
    <glyph glyph-name="uni2159" unicode="&#x2159;" horiz-adv-x="918" 
d="M95 281q0 6 3 16.5t6 15.5q14 3 36 5t38 3v301l-94 -13q1 9 3 19t6 18q20 5 58.5 11.5t79.5 10.5v-347q17 -1 39.5 -3t39.5 -4q2 -4 2.5 -9.5t0.5 -10.5q0 -8 -1 -13h-217zM235 -22q-11 2 -22.5 8.5t-16.5 13.5l478 689q24 -3 42 -13zM651 195q11 18 35 30.5t61 12.5
q63 0 93.5 -31.5t30.5 -85.5q0 -60 -37 -94t-100 -34q-72 0 -106.5 44t-34.5 125q0 55 13.5 97t38.5 70.5t58.5 43t74.5 14.5q20 0 40 -3.5t34 -11.5q4 -8 6.5 -24.5t1.5 -28.5q-17 13 -40.5 19.5t-47.5 6.5q-52 0 -85.5 -38.5t-39.5 -111.5h4zM648 150q0 -60 22.5 -90
t64.5 -30q40 0 61 24t21 63t-20.5 60.5t-61.5 21.5q-29 0 -49.5 -11t-37.5 -30v-8z" />
    <glyph glyph-name="uni215A" unicode="&#x215a;" horiz-adv-x="918" 
d="M135 510q14 3 27.5 4t30.5 1q60 0 97 -27.5t37 -86.5q0 -35 -13 -59t-35 -39t-51 -22t-61 -7q-26 0 -51.5 4t-40.5 11q-5 8 -7 18t-2 19t1 13q20 -10 47 -17t57 -7q44 0 72.5 19t28.5 64q0 44 -27.5 61.5t-72.5 17.5q-20 0 -43 -2.5t-44 -7.5l14 194h233q0 -23 -5 -48
h-184zM235 -22q-11 2 -22.5 8.5t-16.5 13.5l478 689q24 -3 42 -13zM651 195q11 18 35 30.5t61 12.5q63 0 93.5 -31.5t30.5 -85.5q0 -60 -37 -94t-100 -34q-72 0 -106.5 44t-34.5 125q0 55 13.5 97t38.5 70.5t58.5 43t74.5 14.5q20 0 40 -3.5t34 -11.5q4 -8 6.5 -24.5
t1.5 -28.5q-17 13 -40.5 19.5t-47.5 6.5q-52 0 -85.5 -38.5t-39.5 -111.5h4zM648 150q0 -60 22.5 -90t64.5 -30q40 0 61 24t21 63t-20.5 60.5t-61.5 21.5q-29 0 -49.5 -11t-37.5 -30v-8z" />
    <glyph glyph-name="oneeighth" unicode="&#x215b;" horiz-adv-x="918" 
d="M95 281q0 6 3 16.5t6 15.5q14 3 36 5t38 3v301l-94 -13q1 9 3 19t6 18q20 5 58.5 11.5t79.5 10.5v-347q17 -1 39.5 -3t39.5 -4q2 -4 2.5 -9.5t0.5 -10.5q0 -8 -1 -13h-217zM235 -22q-11 2 -22.5 8.5t-16.5 13.5l478 689q24 -3 42 -13zM857 297q0 -34 -20 -58.5t-46 -33.5
v-4q31 -12 53.5 -34.5t22.5 -63.5q0 -28 -11.5 -49t-31 -34.5t-45.5 -20t-56 -6.5q-26 0 -51.5 5.5t-45 17.5t-31.5 31.5t-12 47.5q0 39 23.5 65.5t58.5 37.5v4q-28 11 -48 32t-20 56q0 27 11.5 45.5t30.5 30t43 16.5t48 5t47 -5t40.5 -15.5t28.5 -28t11 -41.5zM812 98
q0 19 -8.5 32.5t-23 23t-33.5 17t-40 13.5q-33 -11 -52.5 -31t-19.5 -52q0 -38 26.5 -54.5t62.5 -16.5q17 0 33 3.5t28 11.5t19.5 21t7.5 32zM650 296q0 -16 8 -27t21 -20t30.5 -15.5t37.5 -13.5q29 11 44 30t15 43q0 17 -7 28.5t-18 18t-24.5 9.5t-27.5 3q-13 0 -27 -2.5
t-25.5 -8.5t-19 -17t-7.5 -28z" />
    <glyph glyph-name="threeeighths" unicode="&#x215c;" horiz-adv-x="918" 
d="M113 457q-2 8 -1 20t3 19q64 0 104 16t40 59q0 33 -22.5 45t-51.5 12q-26 0 -56.5 -7t-51.5 -18q-2 11 0 24t6 22q20 9 48 14t54 5q27 0 50.5 -5t41 -16t27.5 -28.5t10 -42.5q0 -37 -22.5 -62t-62.5 -32v-3q40 -5 67.5 -27.5t27.5 -67.5q0 -30 -12.5 -50.5t-34 -34
t-50 -19.5t-60.5 -6q-26 0 -53.5 4t-44.5 12q-6 15 -6 33v6q0 4 1 8q20 -9 50.5 -15.5t59.5 -6.5q39 0 66.5 15t27.5 55t-35.5 56t-119.5 16zM235 -22q-11 2 -22.5 8.5t-16.5 13.5l478 689q24 -3 42 -13zM857 297q0 -34 -20 -58.5t-46 -33.5v-4q31 -12 53.5 -34.5
t22.5 -63.5q0 -28 -11.5 -49t-31 -34.5t-45.5 -20t-56 -6.5q-26 0 -51.5 5.5t-45 17.5t-31.5 31.5t-12 47.5q0 39 23.5 65.5t58.5 37.5v4q-28 11 -48 32t-20 56q0 27 11.5 45.5t30.5 30t43 16.5t48 5t47 -5t40.5 -15.5t28.5 -28t11 -41.5zM812 98q0 19 -8.5 32.5t-23 23
t-33.5 17t-40 13.5q-33 -11 -52.5 -31t-19.5 -52q0 -38 26.5 -54.5t62.5 -16.5q17 0 33 3.5t28 11.5t19.5 21t7.5 32zM650 296q0 -16 8 -27t21 -20t30.5 -15.5t37.5 -13.5q29 11 44 30t15 43q0 17 -7 28.5t-18 18t-24.5 9.5t-27.5 3q-13 0 -27 -2.5t-25.5 -8.5t-19 -17
t-7.5 -28z" />
    <glyph glyph-name="fiveeighths" unicode="&#x215d;" horiz-adv-x="918" 
d="M135 510q14 3 27.5 4t30.5 1q60 0 97 -27.5t37 -86.5q0 -35 -13 -59t-35 -39t-51 -22t-61 -7q-26 0 -51.5 4t-40.5 11q-5 8 -7 18t-2 19t1 13q20 -10 47 -17t57 -7q44 0 72.5 19t28.5 64q0 44 -27.5 61.5t-72.5 17.5q-20 0 -43 -2.5t-44 -7.5l14 194h233q0 -23 -5 -48
h-184zM235 -22q-11 2 -22.5 8.5t-16.5 13.5l478 689q24 -3 42 -13zM857 297q0 -34 -20 -58.5t-46 -33.5v-4q31 -12 53.5 -34.5t22.5 -63.5q0 -28 -11.5 -49t-31 -34.5t-45.5 -20t-56 -6.5q-26 0 -51.5 5.5t-45 17.5t-31.5 31.5t-12 47.5q0 39 23.5 65.5t58.5 37.5v4
q-28 11 -48 32t-20 56q0 27 11.5 45.5t30.5 30t43 16.5t48 5t47 -5t40.5 -15.5t28.5 -28t11 -41.5zM812 98q0 19 -8.5 32.5t-23 23t-33.5 17t-40 13.5q-33 -11 -52.5 -31t-19.5 -52q0 -38 26.5 -54.5t62.5 -16.5q17 0 33 3.5t28 11.5t19.5 21t7.5 32zM650 296q0 -16 8 -27
t21 -20t30.5 -15.5t37.5 -13.5q29 11 44 30t15 43q0 17 -7 28.5t-18 18t-24.5 9.5t-27.5 3q-13 0 -27 -2.5t-25.5 -8.5t-19 -17t-7.5 -28z" />
    </font>
</defs>
</svg>
